M48
; DRILL file {KiCad 9.0.2} date 2025-07-27T20:57:57-0500
; FORMAT={-:-/ absolute / inch / decimal}
; #@! TF.CreationDate,2025-07-27T20:57:57-05:00
; #@! TF.GenerationSoftware,Kicad,Pcbnew,9.0.2
; #@! TF.FileFunction,NonPlated,1,2,NPTH
FMAT,2
INCH
; #@! TA.AperFunction,NonPlated,NPTH,ComponentDrill
T1C0.0866
; #@! TA.AperFunction,NonPlated,NPTH,ComponentDrill
T2C0.1200
; #@! TA.AperFunction,NonPlated,NPTH,ComponentDrill
T3C0.1570
; #@! TA.AperFunction,NonPlated,NPTH,ComponentDrill
T4C0.2067
%
G90
G05
T1
X5.699Y-10.5938
X7.574Y-11.3413
X7.7615Y-9.8413
X8.4178Y-12.4663
X9.449Y-10.5913
X10.6678Y-12.4663
X11.324Y-11.3413
X11.5115Y-9.8413
X13.949Y-10.5938
T2
X4.7615Y-11.4413
X5.699Y-11.4413
X7.574Y-12.1913
X11.5115Y-12.1913
X14.324Y-10.6913
X14.4178Y-9.1913
X15.2615Y-10.6913
X15.3553Y-9.1913
T3
X4.7615Y-12.0413
X5.699Y-12.0413
X7.574Y-12.7913
X11.5115Y-12.7913
X14.324Y-11.2913
X14.4178Y-9.7913
X15.2615Y-11.2913
X15.3553Y-9.7913
T4
X4.7615Y-9.4663
X4.8553Y-12.4663
X4.949Y-10.2163
X5.0428Y-10.9663
X5.2303Y-11.7163
X5.5115Y-9.4663
X5.7928Y-12.4663
X5.8865Y-10.2163
X6.074Y-10.9663
X6.2615Y-9.4663
X6.449Y-11.7163
X6.6365Y-10.2163
X6.7303Y-12.4663
X6.824Y-10.9663
X7.0115Y-9.4663
X7.199Y-11.7163
X7.3865Y-10.2163
X7.574Y-10.9663
X7.7615Y-9.4663
X7.949Y-11.7163
X8.1365Y-10.2163
X8.324Y-10.9663
X8.5115Y-9.4663
X8.699Y-11.7163
X8.8865Y-10.2163
X9.074Y-10.9663
X9.2615Y-9.4663
X9.449Y-11.7163
X9.5428Y-12.4663
X9.6365Y-10.2163
X9.824Y-10.9663
X10.0115Y-9.4663
X10.199Y-11.7163
X10.3865Y-10.2163
X10.574Y-10.9663
X10.7615Y-9.4663
X10.949Y-11.7163
X11.1365Y-10.2163
X11.324Y-10.9663
X11.5115Y-9.4663
X11.699Y-11.7163
X11.8865Y-10.2163
X12.074Y-10.9663
X12.2615Y-9.4663
X12.2615Y-12.4663
X12.449Y-11.7163
X12.6365Y-10.2163
X12.824Y-10.9663
X13.0115Y-9.4663
X13.0115Y-12.4663
X13.199Y-11.7163
X13.3865Y-10.2163
X13.574Y-10.9663
X13.7615Y-9.4663
X13.7615Y-12.4663
X14.1365Y-10.2163
X14.2303Y-11.7163
X14.5115Y-12.4663
X14.7928Y-10.9663
X14.8865Y-9.4663
X15.074Y-10.2163
X15.2615Y-11.7163
X15.2615Y-12.4663
X16.0115Y-10.2163
X16.0115Y-10.9663
X16.0115Y-11.7163
X16.0115Y-12.4663
M30
