%TF.GenerationSoftware,KiCad,Pcbnew,9.0.2*%
%TF.CreationDate,2025-07-27T20:58:08-05:00*%
%TF.ProjectId,modern-keyboard,6d6f6465-726e-42d6-9b65-79626f617264,rev?*%
%TF.SameCoordinates,Original*%
%TF.FileFunction,Soldermask,Top*%
%TF.FilePolarity,Negative*%
%FSLAX46Y46*%
G04 Gerber Fmt 4.6, Leading zero omitted, Abs format (unit mm)*
G04 Created by KiCad (PCBNEW 9.0.2) date 2025-07-27 20:58:08*
%MOMM*%
%LPD*%
G01*
G04 APERTURE LIST*
G04 Aperture macros list*
%AMRoundRect*
0 Rectangle with rounded corners*
0 $1 Rounding radius*
0 $2 $3 $4 $5 $6 $7 $8 $9 X,Y pos of 4 corners*
0 Add a 4 corners polygon primitive as box body*
4,1,4,$2,$3,$4,$5,$6,$7,$8,$9,$2,$3,0*
0 Add four circle primitives for the rounded corners*
1,1,$1+$1,$2,$3*
1,1,$1+$1,$4,$5*
1,1,$1+$1,$6,$7*
1,1,$1+$1,$8,$9*
0 Add four rect primitives between the rounded corners*
20,1,$1+$1,$2,$3,$4,$5,0*
20,1,$1+$1,$4,$5,$6,$7,0*
20,1,$1+$1,$6,$7,$8,$9,0*
20,1,$1+$1,$8,$9,$2,$3,0*%
%AMFreePoly0*
4,1,37,0.603843,0.796157,0.639018,0.796157,0.711114,0.766294,0.766294,0.711114,0.796157,0.639018,0.796157,0.603843,0.800000,0.600000,0.800000,-0.600000,0.796157,-0.603843,0.796157,-0.639018,0.766294,-0.711114,0.711114,-0.766294,0.639018,-0.796157,0.603843,-0.796157,0.600000,-0.800000,0.000000,-0.800000,0.000000,-0.796148,-0.078414,-0.796148,-0.232228,-0.765552,-0.377117,-0.705537,
-0.507515,-0.618408,-0.618408,-0.507515,-0.705537,-0.377117,-0.765552,-0.232228,-0.796148,-0.078414,-0.796148,0.078414,-0.765552,0.232228,-0.705537,0.377117,-0.618408,0.507515,-0.507515,0.618408,-0.377117,0.705537,-0.232228,0.765552,-0.078414,0.796148,0.000000,0.796148,0.000000,0.800000,0.600000,0.800000,0.603843,0.796157,0.603843,0.796157,$1*%
%AMFreePoly1*
4,1,37,0.000000,0.796148,0.078414,0.796148,0.232228,0.765552,0.377117,0.705537,0.507515,0.618408,0.618408,0.507515,0.705537,0.377117,0.765552,0.232228,0.796148,0.078414,0.796148,-0.078414,0.765552,-0.232228,0.705537,-0.377117,0.618408,-0.507515,0.507515,-0.618408,0.377117,-0.705537,0.232228,-0.765552,0.078414,-0.796148,0.000000,-0.796148,0.000000,-0.800000,-0.600000,-0.800000,
-0.603843,-0.796157,-0.639018,-0.796157,-0.711114,-0.766294,-0.766294,-0.711114,-0.796157,-0.639018,-0.796157,-0.603843,-0.800000,-0.600000,-0.800000,0.600000,-0.796157,0.603843,-0.796157,0.639018,-0.766294,0.711114,-0.711114,0.766294,-0.639018,0.796157,-0.603843,0.796157,-0.600000,0.800000,0.000000,0.800000,0.000000,0.796148,0.000000,0.796148,$1*%
G04 Aperture macros list end*
%ADD10C,3.048000*%
%ADD11C,3.987800*%
%ADD12C,2.200000*%
%ADD13C,3.600000*%
%ADD14C,5.600000*%
%ADD15R,2.000000X2.000000*%
%ADD16C,2.000000*%
%ADD17R,2.000000X3.200000*%
%ADD18RoundRect,0.200000X-0.600000X-0.600000X0.600000X-0.600000X0.600000X0.600000X-0.600000X0.600000X0*%
%ADD19C,1.600000*%
%ADD20FreePoly0,0.000000*%
%ADD21FreePoly1,0.000000*%
%ADD22RoundRect,0.250000X0.550000X-0.550000X0.550000X0.550000X-0.550000X0.550000X-0.550000X-0.550000X0*%
%ADD23C,5.250000*%
G04 APERTURE END LIST*
D10*
%TO.C,REF\u002A\u002A*%
X192380000Y-309658750D03*
D11*
X192380000Y-324898750D03*
D10*
X292392500Y-309658750D03*
D11*
X292392500Y-324898750D03*
%TD*%
D12*
%TO.C,REF\u002A\u002A*%
X240005000Y-269018750D03*
%TD*%
D13*
%TO.C,REF\u002A\u002A*%
X106000000Y-231000000D03*
D14*
X106000000Y-231000000D03*
%TD*%
D12*
%TO.C,REF\u002A\u002A*%
X192380000Y-288068750D03*
%TD*%
D15*
%TO.C,SW83*%
X404693750Y-247756250D03*
D16*
X409693750Y-247756250D03*
X407193750Y-247756250D03*
D17*
X401593750Y-240256250D03*
X412793750Y-240256250D03*
D16*
X409693750Y-233256250D03*
X404693750Y-233256250D03*
%TD*%
D12*
%TO.C,REF\u002A\u002A*%
X213811250Y-316643750D03*
%TD*%
%TO.C,REF\u002A\u002A*%
X287630000Y-288068750D03*
%TD*%
%TO.C,REF\u002A\u002A*%
X270961250Y-316643750D03*
%TD*%
D18*
%TO.C,A1*%
X422070000Y-227982500D03*
D19*
X422070000Y-230522500D03*
D20*
X422070000Y-233062500D03*
D19*
X422070000Y-235602500D03*
X422070000Y-238142500D03*
X422070000Y-240682500D03*
X422070000Y-243222500D03*
D20*
X422070000Y-245762500D03*
D19*
X422070000Y-248302500D03*
X422070000Y-250842500D03*
X422070000Y-253382500D03*
X422070000Y-255922500D03*
D20*
X422070000Y-258462500D03*
D19*
X422070000Y-261002500D03*
X422070000Y-263542500D03*
X422070000Y-266082500D03*
X422070000Y-268622500D03*
D20*
X422070000Y-271162500D03*
D19*
X422070000Y-273702500D03*
X422070000Y-276242500D03*
X439850000Y-276242500D03*
X439850000Y-273702500D03*
D21*
X439850000Y-271162500D03*
D19*
X439850000Y-268622500D03*
X439850000Y-266082500D03*
X439850000Y-263542500D03*
X439850000Y-261002500D03*
D21*
X439850000Y-258462500D03*
D19*
X439850000Y-255922500D03*
X439850000Y-253382500D03*
X439850000Y-250842500D03*
X439850000Y-248302500D03*
D21*
X439850000Y-245762500D03*
D19*
X439850000Y-243222500D03*
X439850000Y-240682500D03*
X439850000Y-238142500D03*
X439850000Y-235602500D03*
D21*
X439850000Y-233062500D03*
D19*
X439850000Y-230522500D03*
X439850000Y-227982500D03*
%TD*%
D12*
%TO.C,REF\u002A\u002A*%
X354305000Y-269081250D03*
%TD*%
D13*
%TO.C,REF\u002A\u002A*%
X446000000Y-231000000D03*
D14*
X446000000Y-231000000D03*
%TD*%
D10*
%TO.C,REF\u002A\u002A*%
X366211250Y-233458750D03*
D11*
X366211250Y-248698750D03*
D10*
X390023750Y-233458750D03*
D11*
X390023750Y-248698750D03*
%TD*%
D10*
%TO.C,REF\u002A\u002A*%
X363830000Y-271558750D03*
D11*
X363830000Y-286798750D03*
D10*
X387642500Y-271558750D03*
D11*
X387642500Y-286798750D03*
%TD*%
D13*
%TO.C,REF\u002A\u002A*%
X446000000Y-322000000D03*
D14*
X446000000Y-322000000D03*
%TD*%
D12*
%TO.C,REF\u002A\u002A*%
X292392500Y-249968750D03*
%TD*%
D13*
%TO.C,REF\u002A\u002A*%
X106000000Y-322000000D03*
D14*
X106000000Y-322000000D03*
%TD*%
D12*
%TO.C,REF\u002A\u002A*%
X197142500Y-249968750D03*
%TD*%
D10*
%TO.C,REF\u002A\u002A*%
X120942500Y-290608750D03*
D11*
X120942500Y-305848750D03*
D10*
X144755000Y-290608750D03*
D11*
X144755000Y-305848750D03*
%TD*%
D12*
%TO.C,REF\u002A\u002A*%
X144755000Y-269081250D03*
%TD*%
D22*
%TO.C,D27*%
X349542500Y-267900000D03*
D19*
X349542500Y-260280000D03*
%TD*%
D23*
%TO.C,SW36*%
X249530000Y-278543750D03*
%TD*%
%TO.C,SW6*%
X216192500Y-240443750D03*
%TD*%
%TO.C,SW42*%
X375736250Y-278543750D03*
%TD*%
D22*
%TO.C,D5*%
X187617500Y-248850000D03*
D19*
X187617500Y-241230000D03*
%TD*%
D22*
%TO.C,D62*%
X301917500Y-324326250D03*
D19*
X301917500Y-316706250D03*
%TD*%
D22*
%TO.C,D36*%
X240005000Y-286950000D03*
D19*
X240005000Y-279330000D03*
%TD*%
D23*
%TO.C,SW45*%
X163805000Y-297593750D03*
%TD*%
%TO.C,SW47*%
X201905000Y-297593750D03*
%TD*%
%TO.C,SW39*%
X306680000Y-278543750D03*
%TD*%
D22*
%TO.C,D25*%
X311442500Y-267900000D03*
D19*
X311442500Y-260280000D03*
%TD*%
D23*
%TO.C,SW63*%
X330492500Y-316643750D03*
%TD*%
%TO.C,SW24*%
X301917500Y-259493750D03*
%TD*%
D22*
%TO.C,D9*%
X263817500Y-248850000D03*
D19*
X263817500Y-241230000D03*
%TD*%
D23*
%TO.C,SW48*%
X220955000Y-297593750D03*
%TD*%
D22*
%TO.C,D28*%
X373355000Y-267900000D03*
D19*
X373355000Y-260280000D03*
%TD*%
D22*
%TO.C,D3*%
X149517500Y-248850000D03*
D19*
X149517500Y-241230000D03*
%TD*%
D22*
%TO.C,D18*%
X178092500Y-267900000D03*
D19*
X178092500Y-260280000D03*
%TD*%
D23*
%TO.C,SW31*%
X154280000Y-278543750D03*
%TD*%
%TO.C,SW28*%
X382880000Y-259493750D03*
%TD*%
%TO.C,SW43*%
X406692500Y-278543750D03*
%TD*%
%TO.C,SW54*%
X335255000Y-297593750D03*
%TD*%
%TO.C,SW50*%
X259055000Y-297593750D03*
%TD*%
D22*
%TO.C,D56*%
X378117500Y-306000000D03*
D19*
X378117500Y-298380000D03*
%TD*%
D23*
%TO.C,SW59*%
X147136250Y-316643750D03*
%TD*%
%TO.C,SW3*%
X159042500Y-240443750D03*
%TD*%
D22*
%TO.C,D51*%
X268580000Y-306000000D03*
D19*
X268580000Y-298380000D03*
%TD*%
D22*
%TO.C,D30*%
X118561250Y-286950000D03*
D19*
X118561250Y-279330000D03*
%TD*%
D22*
%TO.C,D17*%
X159042500Y-267900000D03*
D19*
X159042500Y-260280000D03*
%TD*%
D23*
%TO.C,SW55*%
X361448750Y-297593750D03*
%TD*%
D22*
%TO.C,D55*%
X351923750Y-306000000D03*
D19*
X351923750Y-298380000D03*
%TD*%
D23*
%TO.C,SW9*%
X273342500Y-240443750D03*
%TD*%
%TO.C,SW65*%
X368592500Y-316643750D03*
%TD*%
D22*
%TO.C,D34*%
X201905000Y-286950000D03*
D19*
X201905000Y-279330000D03*
%TD*%
D23*
%TO.C,SW64*%
X349542500Y-316643750D03*
%TD*%
%TO.C,SW7*%
X235242500Y-240443750D03*
%TD*%
%TO.C,SW33*%
X192380000Y-278543750D03*
%TD*%
D22*
%TO.C,D33*%
X182855000Y-286950000D03*
D19*
X182855000Y-279330000D03*
%TD*%
D22*
%TO.C,D40*%
X316205000Y-286950000D03*
D19*
X316205000Y-279330000D03*
%TD*%
D22*
%TO.C,D42*%
X359000000Y-286810000D03*
D19*
X359000000Y-279190000D03*
%TD*%
D22*
%TO.C,D4*%
X168567500Y-248850000D03*
D19*
X168567500Y-241230000D03*
%TD*%
D23*
%TO.C,SW30*%
X128086250Y-278543750D03*
%TD*%
%TO.C,SW18*%
X187617500Y-259493750D03*
%TD*%
D22*
%TO.C,D49*%
X230480000Y-306000000D03*
D19*
X230480000Y-298380000D03*
%TD*%
D22*
%TO.C,D67*%
X397167500Y-324326250D03*
D19*
X397167500Y-316706250D03*
%TD*%
D23*
%TO.C,SW29*%
X406692500Y-259493750D03*
%TD*%
%TO.C,SW12*%
X330492500Y-240443750D03*
%TD*%
D22*
%TO.C,D43*%
X397167500Y-286950000D03*
D19*
X397167500Y-279330000D03*
%TD*%
D23*
%TO.C,SW41*%
X344780000Y-278543750D03*
%TD*%
%TO.C,SW19*%
X206667500Y-259493750D03*
%TD*%
D22*
%TO.C,D52*%
X287630000Y-306000000D03*
D19*
X287630000Y-298380000D03*
%TD*%
D23*
%TO.C,SW10*%
X292392500Y-240443750D03*
%TD*%
%TO.C,SW51*%
X278105000Y-297593750D03*
%TD*%
D22*
%TO.C,D8*%
X244767500Y-248850000D03*
D19*
X244767500Y-241230000D03*
%TD*%
D22*
%TO.C,D45*%
X154280000Y-306000000D03*
D19*
X154280000Y-298380000D03*
%TD*%
D22*
%TO.C,D65*%
X359067500Y-324326250D03*
D19*
X359067500Y-316706250D03*
%TD*%
D22*
%TO.C,D10*%
X282867500Y-248850000D03*
D19*
X282867500Y-241230000D03*
%TD*%
D22*
%TO.C,D41*%
X335255000Y-286950000D03*
D19*
X335255000Y-279330000D03*
%TD*%
D22*
%TO.C,D61*%
X232861250Y-324326250D03*
D19*
X232861250Y-316706250D03*
%TD*%
D22*
%TO.C,D31*%
X144755000Y-286950000D03*
D19*
X144755000Y-279330000D03*
%TD*%
D22*
%TO.C,D48*%
X211430000Y-306000000D03*
D19*
X211430000Y-298380000D03*
%TD*%
D23*
%TO.C,SW5*%
X197142500Y-240443750D03*
%TD*%
D22*
%TO.C,D20*%
X216192500Y-267900000D03*
D19*
X216192500Y-260280000D03*
%TD*%
D23*
%TO.C,SW67*%
X406692500Y-316643750D03*
%TD*%
%TO.C,SW53*%
X316205000Y-297593750D03*
%TD*%
D22*
%TO.C,D35*%
X220955000Y-286950000D03*
D19*
X220955000Y-279330000D03*
%TD*%
D23*
%TO.C,SW34*%
X211430000Y-278543750D03*
%TD*%
%TO.C,SW46*%
X182855000Y-297593750D03*
%TD*%
D22*
%TO.C,D53*%
X306680000Y-306000000D03*
D19*
X306680000Y-298380000D03*
%TD*%
D23*
%TO.C,SW57*%
X406692500Y-297593750D03*
%TD*%
%TO.C,SW66*%
X387642500Y-316643750D03*
%TD*%
%TO.C,SW32*%
X173330000Y-278543750D03*
%TD*%
D22*
%TO.C,D47*%
X192380000Y-306000000D03*
D19*
X192380000Y-298380000D03*
%TD*%
D22*
%TO.C,D50*%
X249530000Y-306000000D03*
D19*
X249530000Y-298380000D03*
%TD*%
D23*
%TO.C,SW8*%
X254292500Y-240443750D03*
%TD*%
%TO.C,SW38*%
X287630000Y-278543750D03*
%TD*%
%TO.C,SW26*%
X340017500Y-259493750D03*
%TD*%
%TO.C,SW62*%
X311442500Y-316643750D03*
%TD*%
%TO.C,SW52*%
X297155000Y-297593750D03*
%TD*%
D22*
%TO.C,D7*%
X225717500Y-248850000D03*
D19*
X225717500Y-241230000D03*
%TD*%
D22*
%TO.C,D14*%
X361500000Y-248810000D03*
D19*
X361500000Y-241190000D03*
%TD*%
D22*
%TO.C,D38*%
X278105000Y-286950000D03*
D19*
X278105000Y-279330000D03*
%TD*%
D22*
%TO.C,D59*%
X137611250Y-324326250D03*
D19*
X137611250Y-316706250D03*
%TD*%
D23*
%TO.C,SW44*%
X132848750Y-297593750D03*
%TD*%
%TO.C,SW25*%
X320967500Y-259493750D03*
%TD*%
D22*
%TO.C,D66*%
X378117500Y-324326250D03*
D19*
X378117500Y-316706250D03*
%TD*%
D22*
%TO.C,D23*%
X273342500Y-267900000D03*
D19*
X273342500Y-260280000D03*
%TD*%
D22*
%TO.C,D12*%
X320967500Y-248850000D03*
D19*
X320967500Y-241230000D03*
%TD*%
D23*
%TO.C,SW15*%
X125705000Y-259493750D03*
%TD*%
%TO.C,SW35*%
X230480000Y-278543750D03*
%TD*%
%TO.C,SW20*%
X225717500Y-259493750D03*
%TD*%
D22*
%TO.C,D60*%
X161423750Y-324326250D03*
D19*
X161423750Y-316706250D03*
%TD*%
D23*
%TO.C,SW61*%
X242386250Y-316643750D03*
%TD*%
D22*
%TO.C,D11*%
X301917500Y-248850000D03*
D19*
X301917500Y-241230000D03*
%TD*%
D23*
%TO.C,SW27*%
X359067500Y-259493750D03*
%TD*%
%TO.C,SW22*%
X263817500Y-259493750D03*
%TD*%
D22*
%TO.C,D57*%
X397167500Y-306000000D03*
D19*
X397167500Y-298380000D03*
%TD*%
D22*
%TO.C,D2*%
X130467500Y-248850000D03*
D19*
X130467500Y-241230000D03*
%TD*%
D23*
%TO.C,SW16*%
X149517500Y-259493750D03*
%TD*%
%TO.C,SW2*%
X139992500Y-240443750D03*
%TD*%
%TO.C,SW49*%
X240005000Y-297593750D03*
%TD*%
%TO.C,SW40*%
X325730000Y-278543750D03*
%TD*%
D22*
%TO.C,D39*%
X297155000Y-286950000D03*
D19*
X297155000Y-279330000D03*
%TD*%
D23*
%TO.C,SW4*%
X178092500Y-240443750D03*
%TD*%
D22*
%TO.C,D22*%
X254292500Y-267900000D03*
D19*
X254292500Y-260280000D03*
%TD*%
D22*
%TO.C,D6*%
X206667500Y-248850000D03*
D19*
X206667500Y-241230000D03*
%TD*%
D22*
%TO.C,D13*%
X340017500Y-248850000D03*
D19*
X340017500Y-241230000D03*
%TD*%
D22*
%TO.C,D63*%
X320967500Y-324326250D03*
D19*
X320967500Y-316706250D03*
%TD*%
D23*
%TO.C,SW14*%
X378117500Y-240443750D03*
%TD*%
D22*
%TO.C,D58*%
X113798750Y-324326250D03*
D19*
X113798750Y-316706250D03*
%TD*%
D23*
%TO.C,SW1*%
X120942500Y-240443750D03*
%TD*%
%TO.C,SW17*%
X168567500Y-259493750D03*
%TD*%
D22*
%TO.C,D1*%
X111417500Y-248850000D03*
D19*
X111417500Y-241230000D03*
%TD*%
D23*
%TO.C,SW13*%
X349542500Y-240443750D03*
%TD*%
D22*
%TO.C,D16*%
X139992500Y-267900000D03*
D19*
X139992500Y-260280000D03*
%TD*%
D23*
%TO.C,SW21*%
X244767500Y-259493750D03*
%TD*%
D22*
%TO.C,D37*%
X259055000Y-286950000D03*
D19*
X259055000Y-279330000D03*
%TD*%
D23*
%TO.C,SW56*%
X387642500Y-297593750D03*
%TD*%
D22*
%TO.C,D29*%
X397167500Y-267900000D03*
D19*
X397167500Y-260280000D03*
%TD*%
D22*
%TO.C,D21*%
X235242500Y-267900000D03*
D19*
X235242500Y-260280000D03*
%TD*%
D23*
%TO.C,SW60*%
X170948750Y-316643750D03*
%TD*%
D22*
%TO.C,D54*%
X325730000Y-306000000D03*
D19*
X325730000Y-298380000D03*
%TD*%
D23*
%TO.C,SW37*%
X268580000Y-278543750D03*
%TD*%
%TO.C,SW11*%
X311442500Y-240443750D03*
%TD*%
D22*
%TO.C,D24*%
X292392500Y-267900000D03*
D19*
X292392500Y-260280000D03*
%TD*%
D22*
%TO.C,D32*%
X163805000Y-286950000D03*
D19*
X163805000Y-279330000D03*
%TD*%
D23*
%TO.C,SW23*%
X282867500Y-259493750D03*
%TD*%
D22*
%TO.C,D64*%
X340017500Y-324326250D03*
D19*
X340017500Y-316706250D03*
%TD*%
D22*
%TO.C,D46*%
X173330000Y-306000000D03*
D19*
X173330000Y-298380000D03*
%TD*%
D23*
%TO.C,SW58*%
X123323750Y-316643750D03*
%TD*%
D22*
%TO.C,D44*%
X115000000Y-302310000D03*
D19*
X115000000Y-294690000D03*
%TD*%
D22*
%TO.C,D26*%
X330492500Y-267900000D03*
D19*
X330492500Y-260280000D03*
%TD*%
D22*
%TO.C,D19*%
X197142500Y-267900000D03*
D19*
X197142500Y-260280000D03*
%TD*%
D22*
%TO.C,D15*%
X116180000Y-267900000D03*
D19*
X116180000Y-260280000D03*
%TD*%
M02*
