%TF.GenerationSoftware,KiCad,Pcbnew,9.0.2*%
%TF.CreationDate,2025-07-27T20:58:08-05:00*%
%TF.ProjectId,modern-keyboard,6d6f6465-726e-42d6-9b65-79626f617264,rev?*%
%TF.SameCoordinates,Original*%
%TF.FileFunction,Legend,Top*%
%TF.FilePolarity,Positive*%
%FSLAX46Y46*%
G04 Gerber Fmt 4.6, Leading zero omitted, Abs format (unit mm)*
G04 Created by KiCad (PCBNEW 9.0.2) date 2025-07-27 20:58:08*
%MOMM*%
%LPD*%
G01*
G04 APERTURE LIST*
%ADD10C,0.150000*%
%ADD11C,0.300000*%
%ADD12C,0.000000*%
%ADD13C,0.120000*%
G04 APERTURE END LIST*
D10*
G36*
X380343213Y-229660000D02*
G01*
X380343213Y-229548625D01*
X380118998Y-229548625D01*
X380118998Y-227982418D01*
X380678803Y-227982418D01*
X380678803Y-228317641D01*
X380790910Y-228317641D01*
X380790910Y-228094525D01*
X380903018Y-228094525D01*
X380903018Y-227758080D01*
X380790910Y-227758080D01*
X380790910Y-227870188D01*
X379334856Y-227870188D01*
X379334856Y-227758080D01*
X379223482Y-227758080D01*
X379223482Y-228094159D01*
X379112107Y-228094159D01*
X379112107Y-228317641D01*
X379223482Y-228317641D01*
X379223482Y-228206266D01*
X379334856Y-228206266D01*
X379334856Y-228094525D01*
X379446964Y-228094525D01*
X379446964Y-227982418D01*
X379895394Y-227982418D01*
X379895394Y-229548625D01*
X379671179Y-229548625D01*
X379671179Y-229660000D01*
X380343213Y-229660000D01*
G37*
G36*
X382413904Y-229660000D02*
G01*
X382413904Y-229436151D01*
X382525279Y-229436151D01*
X382525279Y-229211325D01*
X382413904Y-229211325D01*
X382413904Y-229323921D01*
X382301674Y-229323921D01*
X382301674Y-229436517D01*
X382189567Y-229436517D01*
X382189567Y-229548625D01*
X381517655Y-229548625D01*
X381517655Y-228761186D01*
X382077459Y-228761186D01*
X382077459Y-228986011D01*
X382189567Y-228986011D01*
X382189567Y-228425108D01*
X382077459Y-228425108D01*
X382077459Y-228649078D01*
X381517655Y-228649078D01*
X381517655Y-227982418D01*
X382077459Y-227982418D01*
X382077459Y-228094159D01*
X382189567Y-228094159D01*
X382189567Y-228206266D01*
X382301674Y-228206266D01*
X382301674Y-228315443D01*
X382413904Y-228315443D01*
X382413904Y-228094159D01*
X382301674Y-228094159D01*
X382301674Y-227870188D01*
X381069958Y-227870188D01*
X381069958Y-227982418D01*
X381293440Y-227982418D01*
X381293440Y-229548625D01*
X381069958Y-229548625D01*
X381069958Y-229660000D01*
X382413904Y-229660000D01*
G37*
G36*
X384202372Y-229660000D02*
G01*
X384202372Y-229548625D01*
X383978890Y-229548625D01*
X383978890Y-229323921D01*
X383866782Y-229323921D01*
X383866782Y-229158447D01*
X383754675Y-229158447D01*
X383754675Y-228987843D01*
X383642568Y-228987843D01*
X383642568Y-228822369D01*
X383530460Y-228822369D01*
X383530460Y-228651765D01*
X383418963Y-228651765D01*
X383418963Y-228483604D01*
X383306856Y-228483604D01*
X383306856Y-228315687D01*
X383194748Y-228315687D01*
X383194748Y-228150212D01*
X383082641Y-228150212D01*
X383082641Y-227982418D01*
X383306856Y-227982418D01*
X383306856Y-227870188D01*
X382635676Y-227870188D01*
X382635676Y-227982418D01*
X382858426Y-227982418D01*
X382858426Y-228206266D01*
X382970533Y-228206266D01*
X382970533Y-228371863D01*
X383082641Y-228371863D01*
X383082641Y-228542344D01*
X383194748Y-228542344D01*
X383194748Y-228707941D01*
X383306856Y-228707941D01*
X383306856Y-228878422D01*
X383418963Y-228878422D01*
X383418963Y-229045973D01*
X383530460Y-229045973D01*
X383530460Y-229214501D01*
X383642568Y-229214501D01*
X383642568Y-229380097D01*
X383754675Y-229380097D01*
X383754675Y-229548625D01*
X383530460Y-229548625D01*
X383530460Y-229660000D01*
X384202372Y-229660000D01*
G37*
G36*
X383978890Y-228150579D02*
G01*
X383978890Y-227982418D01*
X384202372Y-227982418D01*
X384202372Y-227870188D01*
X383642568Y-227870188D01*
X383642568Y-227982418D01*
X383866782Y-227982418D01*
X383866782Y-228150579D01*
X383978890Y-228150579D01*
G37*
G36*
X383866782Y-228319106D02*
G01*
X383866782Y-228151556D01*
X383754675Y-228151556D01*
X383754675Y-228319106D01*
X383866782Y-228319106D01*
G37*
G36*
X383754675Y-228483970D02*
G01*
X383754675Y-228315687D01*
X383642568Y-228315687D01*
X383642568Y-228483970D01*
X383754675Y-228483970D01*
G37*
G36*
X383642568Y-228651765D02*
G01*
X383642568Y-228483604D01*
X383530460Y-228483604D01*
X383530460Y-228651765D01*
X383642568Y-228651765D01*
G37*
G36*
X383306856Y-229045973D02*
G01*
X383306856Y-228878422D01*
X383194748Y-228878422D01*
X383194748Y-229045973D01*
X383306856Y-229045973D01*
G37*
G36*
X383194748Y-229214501D02*
G01*
X383194748Y-229046339D01*
X383082641Y-229046339D01*
X383082641Y-229214501D01*
X383194748Y-229214501D01*
G37*
G36*
X383082641Y-229382784D02*
G01*
X383082641Y-229214501D01*
X382970533Y-229214501D01*
X382970533Y-229382784D01*
X383082641Y-229382784D01*
G37*
G36*
X383194748Y-229660000D02*
G01*
X383194748Y-229548625D01*
X382970533Y-229548625D01*
X382970533Y-229380464D01*
X382858426Y-229380464D01*
X382858426Y-229548625D01*
X382635676Y-229548625D01*
X382635676Y-229660000D01*
X383194748Y-229660000D01*
G37*
G36*
X385880809Y-229660000D02*
G01*
X385880809Y-229548625D01*
X385657327Y-229548625D01*
X385657327Y-229212180D01*
X385545219Y-229212180D01*
X385545219Y-228876713D01*
X385433112Y-228876713D01*
X385433112Y-228541001D01*
X385321004Y-228541001D01*
X385321004Y-228206022D01*
X385208897Y-228206022D01*
X385208897Y-227758080D01*
X385097400Y-227758080D01*
X385097400Y-227870188D01*
X384985293Y-227870188D01*
X384985293Y-228206022D01*
X385097400Y-228206022D01*
X385097400Y-228541001D01*
X385208897Y-228541001D01*
X385208897Y-228876713D01*
X385321004Y-228876713D01*
X385321004Y-228987843D01*
X384761078Y-228987843D01*
X384761078Y-228876713D01*
X384648970Y-228876713D01*
X384648970Y-229212180D01*
X384761078Y-229212180D01*
X384761078Y-229100073D01*
X385321004Y-229100073D01*
X385321004Y-229212180D01*
X385433112Y-229212180D01*
X385433112Y-229548625D01*
X385208897Y-229548625D01*
X385208897Y-229660000D01*
X385880809Y-229660000D01*
G37*
G36*
X384985293Y-228541001D02*
G01*
X384985293Y-228206022D01*
X384873185Y-228206022D01*
X384873185Y-228541001D01*
X384985293Y-228541001D01*
G37*
G36*
X384873185Y-228876713D02*
G01*
X384873185Y-228541001D01*
X384761078Y-228541001D01*
X384761078Y-228876713D01*
X384873185Y-228876713D01*
G37*
G36*
X384873185Y-229660000D02*
G01*
X384873185Y-229548625D01*
X384648970Y-229548625D01*
X384648970Y-229212180D01*
X384536863Y-229212180D01*
X384536863Y-229548625D01*
X384314113Y-229548625D01*
X384314113Y-229660000D01*
X384873185Y-229660000D01*
G37*
G36*
X386999441Y-229660000D02*
G01*
X386999441Y-229550579D01*
X387111549Y-229550579D01*
X387111549Y-229436151D01*
X387223656Y-229436151D01*
X387223656Y-228933133D01*
X387111549Y-228933133D01*
X387111549Y-228821025D01*
X386999441Y-228821025D01*
X386999441Y-228711605D01*
X386775226Y-228711605D01*
X386775226Y-228597055D01*
X386551744Y-228597055D01*
X386551744Y-228484947D01*
X386327529Y-228484947D01*
X386327529Y-228375526D01*
X386215422Y-228375526D01*
X386215422Y-228096845D01*
X386327529Y-228096845D01*
X386327529Y-227982418D01*
X386887334Y-227982418D01*
X386887334Y-228096845D01*
X386999441Y-228096845D01*
X386999441Y-228207976D01*
X387111549Y-228207976D01*
X387111549Y-227984738D01*
X386999441Y-227984738D01*
X386999441Y-227870188D01*
X386215422Y-227870188D01*
X386215422Y-227984738D01*
X386103314Y-227984738D01*
X386103314Y-228096845D01*
X385991939Y-228096845D01*
X385991939Y-228487634D01*
X386103314Y-228487634D01*
X386103314Y-228597055D01*
X386215422Y-228597055D01*
X386215422Y-228709284D01*
X386439637Y-228709284D01*
X386439637Y-228823712D01*
X386663852Y-228823712D01*
X386663852Y-228933133D01*
X386887334Y-228933133D01*
X386887334Y-229044630D01*
X386999441Y-229044630D01*
X386999441Y-229438471D01*
X386887334Y-229438471D01*
X386887334Y-229548625D01*
X386327529Y-229548625D01*
X386327529Y-229438471D01*
X386215422Y-229438471D01*
X386215422Y-229323921D01*
X386103314Y-229323921D01*
X386103314Y-229212302D01*
X385991939Y-229212302D01*
X385991939Y-229436151D01*
X386103314Y-229436151D01*
X386103314Y-229660000D01*
X386999441Y-229660000D01*
G37*
G36*
X389239026Y-229660000D02*
G01*
X389239026Y-229436151D01*
X389350401Y-229436151D01*
X389350401Y-229211325D01*
X389239026Y-229211325D01*
X389239026Y-229323921D01*
X389126796Y-229323921D01*
X389126796Y-229436517D01*
X389014689Y-229436517D01*
X389014689Y-229548625D01*
X388342777Y-229548625D01*
X388342777Y-228761186D01*
X388902581Y-228761186D01*
X388902581Y-228986011D01*
X389014689Y-228986011D01*
X389014689Y-228425108D01*
X388902581Y-228425108D01*
X388902581Y-228649078D01*
X388342777Y-228649078D01*
X388342777Y-227982418D01*
X388902581Y-227982418D01*
X388902581Y-228094159D01*
X389014689Y-228094159D01*
X389014689Y-228206266D01*
X389126796Y-228206266D01*
X389126796Y-228315443D01*
X389239026Y-228315443D01*
X389239026Y-228094159D01*
X389126796Y-228094159D01*
X389126796Y-227870188D01*
X387895080Y-227870188D01*
X387895080Y-227982418D01*
X388118562Y-227982418D01*
X388118562Y-229548625D01*
X387895080Y-229548625D01*
X387895080Y-229660000D01*
X389239026Y-229660000D01*
G37*
G36*
X390076657Y-229660000D02*
G01*
X390076657Y-229548625D01*
X389852442Y-229548625D01*
X389852442Y-228092205D01*
X389964549Y-228092205D01*
X389964549Y-228315687D01*
X390076657Y-228315687D01*
X390076657Y-228542344D01*
X390188764Y-228542344D01*
X390188764Y-228766681D01*
X390300139Y-228766681D01*
X390300139Y-228987843D01*
X390412247Y-228987843D01*
X390412247Y-229212180D01*
X390524354Y-229212180D01*
X390524354Y-229438838D01*
X390636461Y-229438838D01*
X390636461Y-229660000D01*
X390972173Y-229660000D01*
X390972173Y-227982418D01*
X391196388Y-227982418D01*
X391196388Y-227870188D01*
X390636461Y-227870188D01*
X390636461Y-227982418D01*
X390860799Y-227982418D01*
X390860799Y-229438838D01*
X390748569Y-229438838D01*
X390748569Y-229214501D01*
X390636461Y-229214501D01*
X390636461Y-228987843D01*
X390524354Y-228987843D01*
X390524354Y-228764361D01*
X390412247Y-228764361D01*
X390412247Y-228542344D01*
X390300139Y-228542344D01*
X390300139Y-228318129D01*
X390188764Y-228318129D01*
X390188764Y-228092205D01*
X390076657Y-228092205D01*
X390076657Y-227870188D01*
X389516852Y-227870188D01*
X389516852Y-227982418D01*
X389740334Y-227982418D01*
X389740334Y-229548625D01*
X389516852Y-229548625D01*
X389516852Y-229660000D01*
X390076657Y-229660000D01*
G37*
G36*
X392875436Y-228315443D02*
G01*
X392875436Y-228094159D01*
X392763328Y-228094159D01*
X392763328Y-227870188D01*
X391867812Y-227870188D01*
X391867812Y-227982418D01*
X392539846Y-227982418D01*
X392539846Y-228091838D01*
X392651953Y-228091838D01*
X392651953Y-228206266D01*
X392763328Y-228206266D01*
X392763328Y-228315443D01*
X392875436Y-228315443D01*
G37*
G36*
X391867812Y-229550579D02*
G01*
X391867812Y-229438471D01*
X391755704Y-229438471D01*
X391755704Y-229323921D01*
X391643597Y-229323921D01*
X391643597Y-229099706D01*
X391531489Y-229099706D01*
X391531489Y-228425108D01*
X391643597Y-228425108D01*
X391643597Y-228206266D01*
X391755704Y-228206266D01*
X391755704Y-228091838D01*
X391867812Y-228091838D01*
X391867812Y-227979609D01*
X391643597Y-227979609D01*
X391643597Y-228094159D01*
X391531489Y-228094159D01*
X391531489Y-228201625D01*
X391419382Y-228201625D01*
X391419382Y-228425108D01*
X391308007Y-228425108D01*
X391308007Y-229099951D01*
X391419382Y-229099706D01*
X391419382Y-229323921D01*
X391531489Y-229323921D01*
X391531489Y-229436151D01*
X391643597Y-229436151D01*
X391643597Y-229550579D01*
X391867812Y-229550579D01*
G37*
G36*
X392763328Y-229660000D02*
G01*
X392763328Y-229550579D01*
X392875436Y-229550579D01*
X392875436Y-228987843D01*
X392987543Y-228987843D01*
X392987543Y-228876468D01*
X392371563Y-228876468D01*
X392371563Y-228987843D01*
X392651953Y-228987843D01*
X392651953Y-229438471D01*
X392539846Y-229438471D01*
X392539846Y-229548625D01*
X391867812Y-229548625D01*
X391867812Y-229660000D01*
X392763328Y-229660000D01*
G37*
G36*
X393770341Y-229660000D02*
G01*
X393770341Y-229548625D01*
X393546127Y-229548625D01*
X393546127Y-227982418D01*
X393770341Y-227982418D01*
X393770341Y-227870188D01*
X393098429Y-227870188D01*
X393098429Y-227982418D01*
X393321912Y-227982418D01*
X393321912Y-229548625D01*
X393098429Y-229548625D01*
X393098429Y-229660000D01*
X393770341Y-229660000D01*
G37*
G36*
X394553140Y-229660000D02*
G01*
X394553140Y-229548625D01*
X394328925Y-229548625D01*
X394328925Y-228092205D01*
X394441032Y-228092205D01*
X394441032Y-228315687D01*
X394553140Y-228315687D01*
X394553140Y-228542344D01*
X394665247Y-228542344D01*
X394665247Y-228766681D01*
X394776622Y-228766681D01*
X394776622Y-228987843D01*
X394888729Y-228987843D01*
X394888729Y-229212180D01*
X395000837Y-229212180D01*
X395000837Y-229438838D01*
X395112944Y-229438838D01*
X395112944Y-229660000D01*
X395448656Y-229660000D01*
X395448656Y-227982418D01*
X395672871Y-227982418D01*
X395672871Y-227870188D01*
X395112944Y-227870188D01*
X395112944Y-227982418D01*
X395337281Y-227982418D01*
X395337281Y-229438838D01*
X395225052Y-229438838D01*
X395225052Y-229214501D01*
X395112944Y-229214501D01*
X395112944Y-228987843D01*
X395000837Y-228987843D01*
X395000837Y-228764361D01*
X394888729Y-228764361D01*
X394888729Y-228542344D01*
X394776622Y-228542344D01*
X394776622Y-228318129D01*
X394665247Y-228318129D01*
X394665247Y-228092205D01*
X394553140Y-228092205D01*
X394553140Y-227870188D01*
X393993335Y-227870188D01*
X393993335Y-227982418D01*
X394216817Y-227982418D01*
X394216817Y-229548625D01*
X393993335Y-229548625D01*
X393993335Y-229660000D01*
X394553140Y-229660000D01*
G37*
G36*
X397183757Y-229660000D02*
G01*
X397183757Y-229436151D01*
X397295132Y-229436151D01*
X397295132Y-229211325D01*
X397183757Y-229211325D01*
X397183757Y-229323921D01*
X397071528Y-229323921D01*
X397071528Y-229436517D01*
X396959420Y-229436517D01*
X396959420Y-229548625D01*
X396287508Y-229548625D01*
X396287508Y-228761186D01*
X396847313Y-228761186D01*
X396847313Y-228986011D01*
X396959420Y-228986011D01*
X396959420Y-228425108D01*
X396847313Y-228425108D01*
X396847313Y-228649078D01*
X396287508Y-228649078D01*
X396287508Y-227982418D01*
X396847313Y-227982418D01*
X396847313Y-228094159D01*
X396959420Y-228094159D01*
X396959420Y-228206266D01*
X397071528Y-228206266D01*
X397071528Y-228315443D01*
X397183757Y-228315443D01*
X397183757Y-228094159D01*
X397071528Y-228094159D01*
X397071528Y-227870188D01*
X395839811Y-227870188D01*
X395839811Y-227982418D01*
X396063293Y-227982418D01*
X396063293Y-229548625D01*
X395839811Y-229548625D01*
X395839811Y-229660000D01*
X397183757Y-229660000D01*
G37*
G36*
X398805530Y-229660000D02*
G01*
X398805530Y-229436151D01*
X398916905Y-229436151D01*
X398916905Y-229211325D01*
X398805530Y-229211325D01*
X398805530Y-229323921D01*
X398693300Y-229323921D01*
X398693300Y-229436517D01*
X398581193Y-229436517D01*
X398581193Y-229548625D01*
X397909281Y-229548625D01*
X397909281Y-228761186D01*
X398469085Y-228761186D01*
X398469085Y-228986011D01*
X398581193Y-228986011D01*
X398581193Y-228425108D01*
X398469085Y-228425108D01*
X398469085Y-228649078D01*
X397909281Y-228649078D01*
X397909281Y-227982418D01*
X398469085Y-227982418D01*
X398469085Y-228094159D01*
X398581193Y-228094159D01*
X398581193Y-228206266D01*
X398693300Y-228206266D01*
X398693300Y-228315443D01*
X398805530Y-228315443D01*
X398805530Y-228094159D01*
X398693300Y-228094159D01*
X398693300Y-227870188D01*
X397461584Y-227870188D01*
X397461584Y-227982418D01*
X397685066Y-227982418D01*
X397685066Y-229548625D01*
X397461584Y-229548625D01*
X397461584Y-229660000D01*
X398805530Y-229660000D01*
G37*
G36*
X400202965Y-227984738D02*
G01*
X400315073Y-227984738D01*
X400315073Y-228096845D01*
X400427302Y-228094036D01*
X400427302Y-228651765D01*
X400315073Y-228651765D01*
X400315073Y-228763995D01*
X400202965Y-228763995D01*
X400202965Y-228878422D01*
X399978750Y-228878422D01*
X399978750Y-228987843D01*
X400090858Y-228987843D01*
X400090858Y-229102393D01*
X400202965Y-229102393D01*
X400202965Y-229211814D01*
X400315073Y-229211814D01*
X400315073Y-229323921D01*
X400427302Y-229323921D01*
X400427302Y-229438471D01*
X400538677Y-229438471D01*
X400538677Y-229548625D01*
X400762892Y-229548625D01*
X400762892Y-229660000D01*
X400315073Y-229660000D01*
X400315073Y-229550579D01*
X400202965Y-229550579D01*
X400202965Y-229436151D01*
X400090858Y-229436151D01*
X400090858Y-229323921D01*
X399978750Y-229323921D01*
X399978750Y-229214501D01*
X399866643Y-229214501D01*
X399866643Y-229100073D01*
X399755268Y-229100073D01*
X399755268Y-228987843D01*
X399643161Y-228990163D01*
X399643161Y-228878422D01*
X399531053Y-228878422D01*
X399531053Y-229548625D01*
X399755268Y-229548625D01*
X399755268Y-229660000D01*
X399083356Y-229660000D01*
X399083356Y-229548625D01*
X399306838Y-229548625D01*
X399306838Y-228766315D01*
X399531053Y-228766315D01*
X400090858Y-228766315D01*
X400090858Y-228651765D01*
X400202965Y-228651765D01*
X400202965Y-228096845D01*
X400090858Y-228096845D01*
X400090858Y-227982418D01*
X399531053Y-227982418D01*
X399531053Y-228766315D01*
X399306838Y-228766315D01*
X399306838Y-227982418D01*
X399083356Y-227982418D01*
X399083356Y-227870188D01*
X400202965Y-227870188D01*
X400202965Y-227984738D01*
G37*
G36*
X401601744Y-229660000D02*
G01*
X401601744Y-229548625D01*
X401377529Y-229548625D01*
X401377529Y-227982418D01*
X401601744Y-227982418D01*
X401601744Y-227870188D01*
X400929832Y-227870188D01*
X400929832Y-227982418D01*
X401153314Y-227982418D01*
X401153314Y-229548625D01*
X400929832Y-229548625D01*
X400929832Y-229660000D01*
X401601744Y-229660000D01*
G37*
G36*
X402384542Y-229660000D02*
G01*
X402384542Y-229548625D01*
X402160327Y-229548625D01*
X402160327Y-228092205D01*
X402272435Y-228092205D01*
X402272435Y-228315687D01*
X402384542Y-228315687D01*
X402384542Y-228542344D01*
X402496650Y-228542344D01*
X402496650Y-228766681D01*
X402608025Y-228766681D01*
X402608025Y-228987843D01*
X402720132Y-228987843D01*
X402720132Y-229212180D01*
X402832240Y-229212180D01*
X402832240Y-229438838D01*
X402944347Y-229438838D01*
X402944347Y-229660000D01*
X403280059Y-229660000D01*
X403280059Y-227982418D01*
X403504274Y-227982418D01*
X403504274Y-227870188D01*
X402944347Y-227870188D01*
X402944347Y-227982418D01*
X403168684Y-227982418D01*
X403168684Y-229438838D01*
X403056454Y-229438838D01*
X403056454Y-229214501D01*
X402944347Y-229214501D01*
X402944347Y-228987843D01*
X402832240Y-228987843D01*
X402832240Y-228764361D01*
X402720132Y-228764361D01*
X402720132Y-228542344D01*
X402608025Y-228542344D01*
X402608025Y-228318129D01*
X402496650Y-228318129D01*
X402496650Y-228092205D01*
X402384542Y-228092205D01*
X402384542Y-227870188D01*
X401824738Y-227870188D01*
X401824738Y-227982418D01*
X402048220Y-227982418D01*
X402048220Y-229548625D01*
X401824738Y-229548625D01*
X401824738Y-229660000D01*
X402384542Y-229660000D01*
G37*
G36*
X405183321Y-228315443D02*
G01*
X405183321Y-228094159D01*
X405071214Y-228094159D01*
X405071214Y-227870188D01*
X404175697Y-227870188D01*
X404175697Y-227982418D01*
X404847732Y-227982418D01*
X404847732Y-228091838D01*
X404959839Y-228091838D01*
X404959839Y-228206266D01*
X405071214Y-228206266D01*
X405071214Y-228315443D01*
X405183321Y-228315443D01*
G37*
G36*
X404175697Y-229550579D02*
G01*
X404175697Y-229438471D01*
X404063590Y-229438471D01*
X404063590Y-229323921D01*
X403951482Y-229323921D01*
X403951482Y-229099706D01*
X403839375Y-229099706D01*
X403839375Y-228425108D01*
X403951482Y-228425108D01*
X403951482Y-228206266D01*
X404063590Y-228206266D01*
X404063590Y-228091838D01*
X404175697Y-228091838D01*
X404175697Y-227979609D01*
X403951482Y-227979609D01*
X403951482Y-228094159D01*
X403839375Y-228094159D01*
X403839375Y-228201625D01*
X403727267Y-228201625D01*
X403727267Y-228425108D01*
X403615893Y-228425108D01*
X403615893Y-229099951D01*
X403727267Y-229099706D01*
X403727267Y-229323921D01*
X403839375Y-229323921D01*
X403839375Y-229436151D01*
X403951482Y-229436151D01*
X403951482Y-229550579D01*
X404175697Y-229550579D01*
G37*
G36*
X405071214Y-229660000D02*
G01*
X405071214Y-229550579D01*
X405183321Y-229550579D01*
X405183321Y-228987843D01*
X405295429Y-228987843D01*
X405295429Y-228876468D01*
X404679448Y-228876468D01*
X404679448Y-228987843D01*
X404959839Y-228987843D01*
X404959839Y-229438471D01*
X404847732Y-229438471D01*
X404847732Y-229548625D01*
X404175697Y-229548625D01*
X404175697Y-229660000D01*
X405071214Y-229660000D01*
G37*
G36*
X431587465Y-323745000D02*
G01*
X431587465Y-323534798D01*
X431503384Y-323534798D01*
X431503384Y-323323955D01*
X431419303Y-323323955D01*
X431419303Y-323113662D01*
X431335223Y-323113662D01*
X431335223Y-322903003D01*
X431461344Y-322903003D01*
X431461344Y-322818831D01*
X431042040Y-322818831D01*
X431042040Y-322903003D01*
X431167611Y-322903003D01*
X431167611Y-323113662D01*
X431251142Y-323113662D01*
X431251142Y-323323955D01*
X431335223Y-323323955D01*
X431335223Y-323534798D01*
X431419303Y-323534798D01*
X431419303Y-323745000D01*
X431587465Y-323745000D01*
G37*
G36*
X431839248Y-323113662D02*
G01*
X431839248Y-322903003D01*
X431965369Y-322903003D01*
X431965369Y-322818831D01*
X431629505Y-322818831D01*
X431629505Y-322903003D01*
X431755168Y-322903003D01*
X431755168Y-323113662D01*
X431839248Y-323113662D01*
G37*
G36*
X431755168Y-323323955D02*
G01*
X431755168Y-323113662D01*
X431671545Y-323113662D01*
X431671545Y-323323955D01*
X431755168Y-323323955D01*
G37*
G36*
X431671545Y-323534798D02*
G01*
X431671545Y-323323955D01*
X431587465Y-323323955D01*
X431587465Y-323534798D01*
X431671545Y-323534798D01*
G37*
G36*
X432888516Y-322738597D02*
G01*
X432888516Y-322572634D01*
X432972596Y-322572634D01*
X432972596Y-322402641D01*
X432132340Y-322402641D01*
X432132340Y-322488553D01*
X432048809Y-322488553D01*
X432048809Y-322656806D01*
X432132340Y-322656806D01*
X432132340Y-322572634D01*
X432804435Y-322572634D01*
X432804435Y-322740337D01*
X432888516Y-322738597D01*
G37*
G36*
X432804435Y-322906758D02*
G01*
X432804435Y-322738597D01*
X432720355Y-322738597D01*
X432720355Y-322906758D01*
X432804435Y-322906758D01*
G37*
G36*
X432720355Y-323075011D02*
G01*
X432720355Y-322906758D01*
X432636274Y-322906758D01*
X432636274Y-323075011D01*
X432720355Y-323075011D01*
G37*
G36*
X432636274Y-323240882D02*
G01*
X432636274Y-323073271D01*
X432552743Y-323073271D01*
X432552743Y-323240882D01*
X432636274Y-323240882D01*
G37*
G36*
X432552743Y-323409135D02*
G01*
X432552743Y-323240882D01*
X432468662Y-323240882D01*
X432468662Y-323409135D01*
X432552743Y-323409135D01*
G37*
G36*
X432468662Y-323579128D02*
G01*
X432468662Y-323410875D01*
X432384582Y-323410875D01*
X432384582Y-323579128D01*
X432468662Y-323579128D01*
G37*
G36*
X432384582Y-323745000D02*
G01*
X432384582Y-323577388D01*
X432300501Y-323577388D01*
X432300501Y-323745000D01*
X432384582Y-323745000D01*
G37*
G36*
X432300501Y-323912703D02*
G01*
X432300501Y-323745000D01*
X432216420Y-323745000D01*
X432216420Y-323912703D01*
X432300501Y-323912703D01*
G37*
G36*
X433181699Y-323745000D02*
G01*
X433181699Y-323577388D01*
X433014087Y-323577388D01*
X433014087Y-323745000D01*
X433181699Y-323745000D01*
G37*
G36*
X434104845Y-323074736D02*
G01*
X434104845Y-322990655D01*
X434188926Y-322990564D01*
X434188926Y-322570619D01*
X434104845Y-322570619D01*
X434104845Y-322488553D01*
X434020765Y-322488553D01*
X434020765Y-322402641D01*
X433600819Y-322402641D01*
X433600819Y-322486813D01*
X433937142Y-322486813D01*
X433937142Y-322572634D01*
X434020765Y-322572634D01*
X434020765Y-323076659D01*
X434104845Y-323074736D01*
G37*
G36*
X433600819Y-322572634D02*
G01*
X433600819Y-322488553D01*
X433516739Y-322488553D01*
X433516739Y-322572634D01*
X433600819Y-322572634D01*
G37*
G36*
X433516739Y-322654699D02*
G01*
X433516739Y-322570619D01*
X433433208Y-322570619D01*
X433433208Y-322654699D01*
X433516739Y-322654699D01*
G37*
G36*
X434020765Y-323158817D02*
G01*
X434020765Y-323074736D01*
X433937142Y-323074736D01*
X433937142Y-323158817D01*
X434020765Y-323158817D01*
G37*
G36*
X433937142Y-323240882D02*
G01*
X433937142Y-323157351D01*
X433853061Y-323157351D01*
X433853061Y-323240882D01*
X433937142Y-323240882D01*
G37*
G36*
X433853061Y-323325054D02*
G01*
X433853061Y-323240882D01*
X433768981Y-323240882D01*
X433768981Y-323325054D01*
X433853061Y-323325054D01*
G37*
G36*
X433768981Y-323410875D02*
G01*
X433768981Y-323326795D01*
X433684900Y-323326795D01*
X433684900Y-323410875D01*
X433768981Y-323410875D01*
G37*
G36*
X433684900Y-323492941D02*
G01*
X433684900Y-323408860D01*
X433600819Y-323408860D01*
X433600819Y-323492941D01*
X433684900Y-323492941D01*
G37*
G36*
X434188926Y-323745000D02*
G01*
X434188926Y-323662934D01*
X434273006Y-323662934D01*
X434273006Y-323494773D01*
X434188926Y-323494773D01*
X434188926Y-323578853D01*
X433600819Y-323578853D01*
X433600819Y-323494773D01*
X433516739Y-323494773D01*
X433516739Y-323578853D01*
X433433208Y-323578853D01*
X433433208Y-323661468D01*
X433349677Y-323661468D01*
X433349677Y-323745000D01*
X434188926Y-323745000D01*
G37*
G36*
X435027442Y-323911237D02*
G01*
X435027442Y-323828622D01*
X435111523Y-323828622D01*
X435111523Y-323745000D01*
X435195603Y-323745000D01*
X435195603Y-323577296D01*
X435279684Y-323577296D01*
X435279684Y-323157351D01*
X435195603Y-323157351D01*
X435195603Y-323070889D01*
X435111523Y-323070889D01*
X435111523Y-322986809D01*
X434859830Y-322986809D01*
X434859830Y-322903003D01*
X434943911Y-322903003D01*
X434943911Y-322818831D01*
X435027442Y-322818831D01*
X435027442Y-322734750D01*
X435111523Y-322734750D01*
X435111523Y-322484706D01*
X435027442Y-322484706D01*
X435027442Y-322402641D01*
X434607588Y-322402641D01*
X434607588Y-322486813D01*
X434859830Y-322486813D01*
X434859830Y-322568879D01*
X434943911Y-322568879D01*
X434943911Y-322734750D01*
X434859830Y-322734750D01*
X434859830Y-322818831D01*
X434775750Y-322818831D01*
X434775750Y-322903003D01*
X434691669Y-322903003D01*
X434691669Y-322986809D01*
X434607588Y-322986809D01*
X434607588Y-323070889D01*
X434943911Y-323070889D01*
X434943911Y-323155061D01*
X435027442Y-323155061D01*
X435027442Y-323240882D01*
X435111523Y-323240882D01*
X435111523Y-323577388D01*
X435027442Y-323577388D01*
X435027442Y-323745000D01*
X434943911Y-323745000D01*
X434943911Y-323827065D01*
X434859830Y-323827065D01*
X434859830Y-323911237D01*
X435027442Y-323911237D01*
G37*
G36*
X434607588Y-322568879D02*
G01*
X434607588Y-322484706D01*
X434523508Y-322484706D01*
X434523508Y-322568879D01*
X434607588Y-322568879D01*
G37*
G36*
X434523508Y-322654699D02*
G01*
X434523508Y-322570619D01*
X434439977Y-322570619D01*
X434439977Y-322654699D01*
X434523508Y-322654699D01*
G37*
G36*
X434607588Y-323155061D02*
G01*
X434607588Y-323070889D01*
X434523508Y-323070889D01*
X434523508Y-323155061D01*
X434607588Y-323155061D01*
G37*
G36*
X434859830Y-323997058D02*
G01*
X434859830Y-323912978D01*
X434691669Y-323912978D01*
X434691669Y-323827065D01*
X434607588Y-323827065D01*
X434607588Y-323745000D01*
X434439977Y-323745000D01*
X434439977Y-323911237D01*
X434523508Y-323911237D01*
X434523508Y-323997058D01*
X434859830Y-323997058D01*
G37*
G36*
X435614357Y-323745000D02*
G01*
X435614357Y-323577388D01*
X435446746Y-323577388D01*
X435446746Y-323745000D01*
X435614357Y-323745000D01*
G37*
G36*
X436537504Y-323074736D02*
G01*
X436537504Y-322990655D01*
X436621584Y-322990564D01*
X436621584Y-322570619D01*
X436537504Y-322570619D01*
X436537504Y-322488553D01*
X436453423Y-322488553D01*
X436453423Y-322402641D01*
X436033478Y-322402641D01*
X436033478Y-322486813D01*
X436369801Y-322486813D01*
X436369801Y-322572634D01*
X436453423Y-322572634D01*
X436453423Y-323076659D01*
X436537504Y-323074736D01*
G37*
G36*
X436033478Y-322572634D02*
G01*
X436033478Y-322488553D01*
X435949398Y-322488553D01*
X435949398Y-322572634D01*
X436033478Y-322572634D01*
G37*
G36*
X435949398Y-322654699D02*
G01*
X435949398Y-322570619D01*
X435865867Y-322570619D01*
X435865867Y-322654699D01*
X435949398Y-322654699D01*
G37*
G36*
X436453423Y-323158817D02*
G01*
X436453423Y-323074736D01*
X436369801Y-323074736D01*
X436369801Y-323158817D01*
X436453423Y-323158817D01*
G37*
G36*
X436369801Y-323240882D02*
G01*
X436369801Y-323157351D01*
X436285720Y-323157351D01*
X436285720Y-323240882D01*
X436369801Y-323240882D01*
G37*
G36*
X436285720Y-323325054D02*
G01*
X436285720Y-323240882D01*
X436201639Y-323240882D01*
X436201639Y-323325054D01*
X436285720Y-323325054D01*
G37*
G36*
X436201639Y-323410875D02*
G01*
X436201639Y-323326795D01*
X436117559Y-323326795D01*
X436117559Y-323410875D01*
X436201639Y-323410875D01*
G37*
G36*
X436117559Y-323492941D02*
G01*
X436117559Y-323408860D01*
X436033478Y-323408860D01*
X436033478Y-323492941D01*
X436117559Y-323492941D01*
G37*
G36*
X436621584Y-323745000D02*
G01*
X436621584Y-323662934D01*
X436705665Y-323662934D01*
X436705665Y-323494773D01*
X436621584Y-323494773D01*
X436621584Y-323578853D01*
X436033478Y-323578853D01*
X436033478Y-323494773D01*
X435949398Y-323494773D01*
X435949398Y-323578853D01*
X435865867Y-323578853D01*
X435865867Y-323661468D01*
X435782336Y-323661468D01*
X435782336Y-323745000D01*
X436621584Y-323745000D01*
G37*
G36*
X437544181Y-322488553D02*
G01*
X437628262Y-322488553D01*
X437628262Y-322569153D01*
X437712342Y-322569153D01*
X437712342Y-322736765D01*
X437796423Y-322738505D01*
X437796423Y-323410875D01*
X437712342Y-323410875D01*
X437712342Y-323579128D01*
X437628262Y-323579128D01*
X437628262Y-323662934D01*
X437544181Y-323662934D01*
X437544181Y-323745000D01*
X437124328Y-323745000D01*
X437124328Y-323662934D01*
X437040247Y-323662934D01*
X437040247Y-323579128D01*
X436956167Y-323579128D01*
X436956167Y-323410875D01*
X436872636Y-323409135D01*
X436872636Y-322736765D01*
X436956167Y-322736765D01*
X437040247Y-322736765D01*
X437040247Y-323410875D01*
X437124328Y-323410875D01*
X437124328Y-323578853D01*
X437208408Y-323578853D01*
X437208408Y-323661468D01*
X437460101Y-323661468D01*
X437460101Y-323578853D01*
X437544181Y-323578853D01*
X437544181Y-323410875D01*
X437628262Y-323410875D01*
X437628262Y-322736765D01*
X437544181Y-322736765D01*
X437544181Y-322572634D01*
X437460101Y-322572634D01*
X437460101Y-322486813D01*
X437208408Y-322486813D01*
X437208408Y-322572634D01*
X437124328Y-322572634D01*
X437124328Y-322736765D01*
X437040247Y-322736765D01*
X436956167Y-322736765D01*
X436956167Y-322569153D01*
X437040247Y-322569153D01*
X437040247Y-322488553D01*
X437124328Y-322488553D01*
X437124328Y-322402641D01*
X437544181Y-322402641D01*
X437544181Y-322488553D01*
G37*
G36*
X438634573Y-323074736D02*
G01*
X438634573Y-322990655D01*
X438718654Y-322990564D01*
X438718654Y-322570619D01*
X438634573Y-322570619D01*
X438634573Y-322488553D01*
X438550492Y-322488553D01*
X438550492Y-322402641D01*
X438130547Y-322402641D01*
X438130547Y-322486813D01*
X438466870Y-322486813D01*
X438466870Y-322572634D01*
X438550492Y-322572634D01*
X438550492Y-323076659D01*
X438634573Y-323074736D01*
G37*
G36*
X438130547Y-322572634D02*
G01*
X438130547Y-322488553D01*
X438046467Y-322488553D01*
X438046467Y-322572634D01*
X438130547Y-322572634D01*
G37*
G36*
X438046467Y-322654699D02*
G01*
X438046467Y-322570619D01*
X437962936Y-322570619D01*
X437962936Y-322654699D01*
X438046467Y-322654699D01*
G37*
G36*
X438550492Y-323158817D02*
G01*
X438550492Y-323074736D01*
X438466870Y-323074736D01*
X438466870Y-323158817D01*
X438550492Y-323158817D01*
G37*
G36*
X438466870Y-323240882D02*
G01*
X438466870Y-323157351D01*
X438382789Y-323157351D01*
X438382789Y-323240882D01*
X438466870Y-323240882D01*
G37*
G36*
X438382789Y-323325054D02*
G01*
X438382789Y-323240882D01*
X438298709Y-323240882D01*
X438298709Y-323325054D01*
X438382789Y-323325054D01*
G37*
G36*
X438298709Y-323410875D02*
G01*
X438298709Y-323326795D01*
X438214628Y-323326795D01*
X438214628Y-323410875D01*
X438298709Y-323410875D01*
G37*
G36*
X438214628Y-323492941D02*
G01*
X438214628Y-323408860D01*
X438130547Y-323408860D01*
X438130547Y-323492941D01*
X438214628Y-323492941D01*
G37*
G36*
X438718654Y-323745000D02*
G01*
X438718654Y-323662934D01*
X438802734Y-323662934D01*
X438802734Y-323494773D01*
X438718654Y-323494773D01*
X438718654Y-323578853D01*
X438130547Y-323578853D01*
X438130547Y-323494773D01*
X438046467Y-323494773D01*
X438046467Y-323578853D01*
X437962936Y-323578853D01*
X437962936Y-323661468D01*
X437879405Y-323661468D01*
X437879405Y-323745000D01*
X438718654Y-323745000D01*
G37*
G36*
X439684298Y-322570894D02*
G01*
X439684298Y-322402641D01*
X439096284Y-322402641D01*
X439096284Y-322570894D01*
X439684298Y-322570894D01*
G37*
G36*
X439096284Y-322736765D02*
G01*
X439096284Y-322569153D01*
X439012203Y-322569153D01*
X439012203Y-322736765D01*
X439096284Y-322736765D01*
G37*
G36*
X439768379Y-323490834D02*
G01*
X439768379Y-323070889D01*
X439684298Y-323070889D01*
X439684298Y-322986809D01*
X439516137Y-322986809D01*
X439516137Y-322904743D01*
X439264445Y-322904743D01*
X439264445Y-322818831D01*
X439012203Y-322818831D01*
X439012203Y-322734750D01*
X438928672Y-322734750D01*
X438928672Y-322988824D01*
X439264445Y-322988824D01*
X439264445Y-323070889D01*
X439516137Y-323070889D01*
X439516137Y-323155061D01*
X439600218Y-323155061D01*
X439600218Y-323238592D01*
X439684298Y-323238592D01*
X439684298Y-323490834D01*
X439768379Y-323490834D01*
G37*
G36*
X439684298Y-323661194D02*
G01*
X439684298Y-323492941D01*
X439600218Y-323492941D01*
X439600218Y-323661194D01*
X439684298Y-323661194D01*
G37*
G36*
X439600218Y-323745000D02*
G01*
X439600218Y-323661468D01*
X439432606Y-323661468D01*
X439432606Y-323745000D01*
X439600218Y-323745000D01*
G37*
G36*
X439432606Y-323828622D02*
G01*
X439432606Y-323745000D01*
X439264445Y-323745000D01*
X439264445Y-323828622D01*
X439432606Y-323828622D01*
G37*
G36*
X439264445Y-323911237D02*
G01*
X439264445Y-323827065D01*
X438928672Y-323827065D01*
X438928672Y-323911237D01*
X439264445Y-323911237D01*
G37*
D11*
X172678572Y-270249757D02*
X172535715Y-270178328D01*
X172535715Y-270178328D02*
X172321429Y-270178328D01*
X172321429Y-270178328D02*
X172107143Y-270249757D01*
X172107143Y-270249757D02*
X171964286Y-270392614D01*
X171964286Y-270392614D02*
X171892857Y-270535471D01*
X171892857Y-270535471D02*
X171821429Y-270821185D01*
X171821429Y-270821185D02*
X171821429Y-271035471D01*
X171821429Y-271035471D02*
X171892857Y-271321185D01*
X171892857Y-271321185D02*
X171964286Y-271464042D01*
X171964286Y-271464042D02*
X172107143Y-271606900D01*
X172107143Y-271606900D02*
X172321429Y-271678328D01*
X172321429Y-271678328D02*
X172464286Y-271678328D01*
X172464286Y-271678328D02*
X172678572Y-271606900D01*
X172678572Y-271606900D02*
X172750000Y-271535471D01*
X172750000Y-271535471D02*
X172750000Y-271035471D01*
X172750000Y-271035471D02*
X172464286Y-271035471D01*
X173607143Y-270178328D02*
X173607143Y-270535471D01*
X173250000Y-270392614D02*
X173607143Y-270535471D01*
X173607143Y-270535471D02*
X173964286Y-270392614D01*
X173392857Y-270821185D02*
X173607143Y-270535471D01*
X173607143Y-270535471D02*
X173821429Y-270821185D01*
X174750000Y-270178328D02*
X174750000Y-270535471D01*
X174392857Y-270392614D02*
X174750000Y-270535471D01*
X174750000Y-270535471D02*
X175107143Y-270392614D01*
X174535714Y-270821185D02*
X174750000Y-270535471D01*
X174750000Y-270535471D02*
X174964286Y-270821185D01*
X175892857Y-270178328D02*
X175892857Y-270535471D01*
X175535714Y-270392614D02*
X175892857Y-270535471D01*
X175892857Y-270535471D02*
X176250000Y-270392614D01*
X175678571Y-270821185D02*
X175892857Y-270535471D01*
X175892857Y-270535471D02*
X176107143Y-270821185D01*
D10*
X400400950Y-246765773D02*
X400448569Y-246622916D01*
X400448569Y-246622916D02*
X400448569Y-246384821D01*
X400448569Y-246384821D02*
X400400950Y-246289583D01*
X400400950Y-246289583D02*
X400353330Y-246241964D01*
X400353330Y-246241964D02*
X400258092Y-246194345D01*
X400258092Y-246194345D02*
X400162854Y-246194345D01*
X400162854Y-246194345D02*
X400067616Y-246241964D01*
X400067616Y-246241964D02*
X400019997Y-246289583D01*
X400019997Y-246289583D02*
X399972378Y-246384821D01*
X399972378Y-246384821D02*
X399924759Y-246575297D01*
X399924759Y-246575297D02*
X399877140Y-246670535D01*
X399877140Y-246670535D02*
X399829521Y-246718154D01*
X399829521Y-246718154D02*
X399734283Y-246765773D01*
X399734283Y-246765773D02*
X399639045Y-246765773D01*
X399639045Y-246765773D02*
X399543807Y-246718154D01*
X399543807Y-246718154D02*
X399496188Y-246670535D01*
X399496188Y-246670535D02*
X399448569Y-246575297D01*
X399448569Y-246575297D02*
X399448569Y-246337202D01*
X399448569Y-246337202D02*
X399496188Y-246194345D01*
X399448569Y-245861011D02*
X400448569Y-245622916D01*
X400448569Y-245622916D02*
X399734283Y-245432440D01*
X399734283Y-245432440D02*
X400448569Y-245241964D01*
X400448569Y-245241964D02*
X399448569Y-245003869D01*
X399877140Y-244480059D02*
X399829521Y-244575297D01*
X399829521Y-244575297D02*
X399781902Y-244622916D01*
X399781902Y-244622916D02*
X399686664Y-244670535D01*
X399686664Y-244670535D02*
X399639045Y-244670535D01*
X399639045Y-244670535D02*
X399543807Y-244622916D01*
X399543807Y-244622916D02*
X399496188Y-244575297D01*
X399496188Y-244575297D02*
X399448569Y-244480059D01*
X399448569Y-244480059D02*
X399448569Y-244289583D01*
X399448569Y-244289583D02*
X399496188Y-244194345D01*
X399496188Y-244194345D02*
X399543807Y-244146726D01*
X399543807Y-244146726D02*
X399639045Y-244099107D01*
X399639045Y-244099107D02*
X399686664Y-244099107D01*
X399686664Y-244099107D02*
X399781902Y-244146726D01*
X399781902Y-244146726D02*
X399829521Y-244194345D01*
X399829521Y-244194345D02*
X399877140Y-244289583D01*
X399877140Y-244289583D02*
X399877140Y-244480059D01*
X399877140Y-244480059D02*
X399924759Y-244575297D01*
X399924759Y-244575297D02*
X399972378Y-244622916D01*
X399972378Y-244622916D02*
X400067616Y-244670535D01*
X400067616Y-244670535D02*
X400258092Y-244670535D01*
X400258092Y-244670535D02*
X400353330Y-244622916D01*
X400353330Y-244622916D02*
X400400950Y-244575297D01*
X400400950Y-244575297D02*
X400448569Y-244480059D01*
X400448569Y-244480059D02*
X400448569Y-244289583D01*
X400448569Y-244289583D02*
X400400950Y-244194345D01*
X400400950Y-244194345D02*
X400353330Y-244146726D01*
X400353330Y-244146726D02*
X400258092Y-244099107D01*
X400258092Y-244099107D02*
X400067616Y-244099107D01*
X400067616Y-244099107D02*
X399972378Y-244146726D01*
X399972378Y-244146726D02*
X399924759Y-244194345D01*
X399924759Y-244194345D02*
X399877140Y-244289583D01*
X399448569Y-243765773D02*
X399448569Y-243146726D01*
X399448569Y-243146726D02*
X399829521Y-243480059D01*
X399829521Y-243480059D02*
X399829521Y-243337202D01*
X399829521Y-243337202D02*
X399877140Y-243241964D01*
X399877140Y-243241964D02*
X399924759Y-243194345D01*
X399924759Y-243194345D02*
X400019997Y-243146726D01*
X400019997Y-243146726D02*
X400258092Y-243146726D01*
X400258092Y-243146726D02*
X400353330Y-243194345D01*
X400353330Y-243194345D02*
X400400950Y-243241964D01*
X400400950Y-243241964D02*
X400448569Y-243337202D01*
X400448569Y-243337202D02*
X400448569Y-243622916D01*
X400448569Y-243622916D02*
X400400950Y-243718154D01*
X400400950Y-243718154D02*
X400353330Y-243765773D01*
X442996660Y-277046604D02*
X443472850Y-277046604D01*
X442901422Y-277332319D02*
X443234755Y-276332319D01*
X443234755Y-276332319D02*
X443568088Y-277332319D01*
X444425231Y-277332319D02*
X443853803Y-277332319D01*
X444139517Y-277332319D02*
X444139517Y-276332319D01*
X444139517Y-276332319D02*
X444044279Y-276475176D01*
X444044279Y-276475176D02*
X443949041Y-276570414D01*
X443949041Y-276570414D02*
X443853803Y-276618033D01*
D12*
%TO.C,G\u002A\u002A\u002A*%
G36*
X182936665Y-255361206D02*
G01*
X184050422Y-255571465D01*
X185163551Y-255903771D01*
X186276201Y-256358155D01*
X186529662Y-256478764D01*
X187482475Y-256974724D01*
X188329407Y-257484601D01*
X189086688Y-258022855D01*
X189770553Y-258603943D01*
X190397232Y-259242325D01*
X190982959Y-259952458D01*
X191543966Y-260748802D01*
X191830368Y-261200240D01*
X192297279Y-262053162D01*
X192646793Y-262904496D01*
X192882834Y-263766549D01*
X193009326Y-264651627D01*
X193027882Y-264955288D01*
X193035793Y-265503745D01*
X193005606Y-265968173D01*
X192931317Y-266382367D01*
X192806920Y-266780121D01*
X192631884Y-267183894D01*
X192329005Y-267724204D01*
X191979702Y-268171960D01*
X191562182Y-268554215D01*
X191473793Y-268621338D01*
X190925999Y-268964903D01*
X190331356Y-269217101D01*
X189676380Y-269381846D01*
X188947588Y-269463049D01*
X188536470Y-269473557D01*
X187760418Y-269436010D01*
X187006487Y-269319292D01*
X186249861Y-269117285D01*
X185465729Y-268823873D01*
X184943203Y-268587792D01*
X183975281Y-268064480D01*
X183063151Y-267451734D01*
X182216000Y-266759551D01*
X181443018Y-265997930D01*
X180753392Y-265176869D01*
X180156309Y-264306366D01*
X179660959Y-263396419D01*
X179276528Y-262457025D01*
X179257487Y-262400830D01*
X179035073Y-261591227D01*
X178915027Y-260806468D01*
X178894794Y-260054137D01*
X178971819Y-259341820D01*
X179143545Y-258677102D01*
X179189324Y-258571354D01*
X183280769Y-258571354D01*
X183316939Y-259040615D01*
X183432112Y-259497406D01*
X183636281Y-259978849D01*
X183685822Y-260075913D01*
X184037060Y-260629920D01*
X184480166Y-261138929D01*
X184995443Y-261588583D01*
X185563193Y-261964522D01*
X186163717Y-262252385D01*
X186777318Y-262437816D01*
X186974760Y-262473405D01*
X187236935Y-262486669D01*
X187556128Y-262466626D01*
X187873751Y-262419300D01*
X188116748Y-262355954D01*
X188506034Y-262156733D01*
X188821634Y-261865608D01*
X189053539Y-261494875D01*
X189191738Y-261056829D01*
X189196692Y-261029477D01*
X189226172Y-260516540D01*
X189146510Y-259993466D01*
X188968713Y-259471944D01*
X188703786Y-258963659D01*
X188362738Y-258480300D01*
X187956575Y-258033555D01*
X187496304Y-257635109D01*
X186992932Y-257296652D01*
X186457466Y-257029870D01*
X185900912Y-256846451D01*
X185334278Y-256758082D01*
X185168173Y-256751889D01*
X184894146Y-256754237D01*
X184693895Y-256773995D01*
X184519306Y-256821210D01*
X184322263Y-256905931D01*
X184240486Y-256945616D01*
X183855394Y-257185856D01*
X183573313Y-257481307D01*
X183388499Y-257841698D01*
X183295208Y-258276761D01*
X183280769Y-258571354D01*
X179189324Y-258571354D01*
X179407418Y-258067570D01*
X179760883Y-257520809D01*
X180201383Y-257044404D01*
X180726363Y-256645940D01*
X181296394Y-256348464D01*
X181503550Y-256257658D01*
X181607718Y-256202478D01*
X181619797Y-256174483D01*
X181550685Y-256165230D01*
X181533358Y-256164930D01*
X181287482Y-256181440D01*
X180959714Y-256230360D01*
X180583791Y-256304827D01*
X180193449Y-256397978D01*
X179822425Y-256502950D01*
X179734986Y-256530776D01*
X178752161Y-256910926D01*
X177847969Y-257381496D01*
X177025937Y-257938578D01*
X176289594Y-258578266D01*
X175642466Y-259296650D01*
X175088080Y-260089822D01*
X174629964Y-260953875D01*
X174271645Y-261884901D01*
X174019852Y-262862847D01*
X173962662Y-263255896D01*
X173926119Y-263732697D01*
X173910209Y-264256645D01*
X173914917Y-264791138D01*
X173940229Y-265299570D01*
X173986132Y-265745339D01*
X174021043Y-265955046D01*
X174272902Y-266934255D01*
X174624831Y-267856045D01*
X175071878Y-268713665D01*
X175609088Y-269500365D01*
X176231508Y-270209395D01*
X176934185Y-270834007D01*
X177712164Y-271367448D01*
X178182452Y-271625636D01*
X179000776Y-271982343D01*
X179857085Y-272244780D01*
X180768704Y-272417147D01*
X181752960Y-272503645D01*
X181815385Y-272506222D01*
X182235797Y-272527872D01*
X182569955Y-272556308D01*
X182805478Y-272590213D01*
X182922368Y-272624053D01*
X183202463Y-272809368D01*
X183490000Y-273077109D01*
X183649752Y-273262463D01*
X183840550Y-273503365D01*
X183087462Y-273497451D01*
X182728600Y-273487525D01*
X182350214Y-273465344D01*
X182003914Y-273434488D01*
X181797727Y-273408028D01*
X180652532Y-273169386D01*
X179533957Y-272816788D01*
X178454275Y-272356301D01*
X177425759Y-271793989D01*
X176460681Y-271135921D01*
X175571315Y-270388162D01*
X175443817Y-270267307D01*
X174674381Y-269447779D01*
X174016384Y-268578488D01*
X173469483Y-267658831D01*
X173033331Y-266688201D01*
X172707583Y-265665993D01*
X172625223Y-265321634D01*
X172565915Y-264963360D01*
X172522072Y-264516928D01*
X172494323Y-264015393D01*
X172483295Y-263491807D01*
X172489619Y-262979224D01*
X172513922Y-262510698D01*
X172556834Y-262119282D01*
X172563508Y-262077602D01*
X172781022Y-261128786D01*
X173104106Y-260236245D01*
X173527981Y-259403954D01*
X174047868Y-258635884D01*
X174658989Y-257936010D01*
X175356567Y-257308304D01*
X176135823Y-256756739D01*
X176991978Y-256285289D01*
X177920255Y-255897926D01*
X178915875Y-255598623D01*
X179974060Y-255391354D01*
X180706663Y-255306710D01*
X181822129Y-255272965D01*
X182936665Y-255361206D01*
G37*
G36*
X194850655Y-205913209D02*
G01*
X195846742Y-205922842D01*
X196844117Y-205939033D01*
X197830110Y-205961466D01*
X198792055Y-205989818D01*
X199717282Y-206023773D01*
X200593122Y-206063011D01*
X201406908Y-206107212D01*
X202145971Y-206156057D01*
X202797642Y-206209228D01*
X203349253Y-206266405D01*
X203684387Y-206310929D01*
X204587667Y-206480585D01*
X205386628Y-206704705D01*
X206088287Y-206987579D01*
X206699659Y-207333502D01*
X207227760Y-207746766D01*
X207679604Y-208231663D01*
X208062207Y-208792487D01*
X208222110Y-209087500D01*
X208418503Y-209526122D01*
X208595833Y-210027233D01*
X208756419Y-210601049D01*
X208902580Y-211257786D01*
X209036636Y-212007662D01*
X209160906Y-212860892D01*
X209257581Y-213648763D01*
X209313199Y-214114533D01*
X209376496Y-214609508D01*
X209442379Y-215096082D01*
X209505755Y-215536647D01*
X209561532Y-215893596D01*
X209561837Y-215895432D01*
X209750202Y-217209915D01*
X209892247Y-218594165D01*
X209984377Y-220003554D01*
X210022998Y-221393454D01*
X210023989Y-221634855D01*
X210026325Y-222046888D01*
X210033398Y-222478563D01*
X210045739Y-222940606D01*
X210063875Y-223443748D01*
X210088334Y-223998717D01*
X210119644Y-224616241D01*
X210158333Y-225307049D01*
X210204930Y-226081870D01*
X210259962Y-226951432D01*
X210323957Y-227926464D01*
X210360588Y-228473317D01*
X210405054Y-229143442D01*
X210449354Y-229829996D01*
X210492268Y-230512775D01*
X210532575Y-231171573D01*
X210569053Y-231786185D01*
X210600481Y-232336406D01*
X210625639Y-232802031D01*
X210641063Y-233113701D01*
X210663888Y-233737405D01*
X210678145Y-234418786D01*
X210684164Y-235136741D01*
X210682278Y-235870168D01*
X210672818Y-236597966D01*
X210656115Y-237299032D01*
X210632500Y-237952265D01*
X210602306Y-238536562D01*
X210565862Y-239030821D01*
X210544819Y-239242843D01*
X210511399Y-239554791D01*
X210485340Y-239819646D01*
X210468600Y-240015674D01*
X210463137Y-240121139D01*
X210464639Y-240133176D01*
X210522281Y-240164800D01*
X210665631Y-240241442D01*
X210872354Y-240351206D01*
X211092548Y-240467645D01*
X212186215Y-241110945D01*
X213194906Y-241841575D01*
X214120264Y-242660787D01*
X214555095Y-243107117D01*
X214822587Y-243394299D01*
X215142047Y-243735341D01*
X215481102Y-244095792D01*
X215807379Y-244441200D01*
X215953768Y-244595560D01*
X216355966Y-245026223D01*
X216724755Y-245435310D01*
X217047706Y-245808339D01*
X217312390Y-246130831D01*
X217506378Y-246388304D01*
X217558169Y-246464842D01*
X217663441Y-246627521D01*
X218147788Y-246327120D01*
X219106325Y-245773691D01*
X220076506Y-245292609D01*
X221046239Y-244887501D01*
X222003431Y-244561993D01*
X222935989Y-244319714D01*
X223831821Y-244164292D01*
X224678833Y-244099353D01*
X225464934Y-244128525D01*
X225473924Y-244129459D01*
X226096375Y-244217149D01*
X226649599Y-244348519D01*
X227182823Y-244537567D01*
X227639183Y-244745204D01*
X228382555Y-245177878D01*
X229048154Y-245702907D01*
X229633364Y-246316401D01*
X230135570Y-247014470D01*
X230552158Y-247793221D01*
X230880512Y-248648764D01*
X231118016Y-249577208D01*
X231197823Y-250039743D01*
X231298760Y-250724439D01*
X231667048Y-250884395D01*
X231850689Y-250953279D01*
X232124395Y-251042066D01*
X232459500Y-251142107D01*
X232827338Y-251244754D01*
X233092186Y-251314353D01*
X233489323Y-251420045D01*
X233896379Y-251535722D01*
X234277470Y-251650695D01*
X234596710Y-251754272D01*
X234740744Y-251805421D01*
X235807668Y-252264510D01*
X236791444Y-252812312D01*
X237689774Y-253446186D01*
X238500363Y-254163492D01*
X239220914Y-254961590D01*
X239849130Y-255837839D01*
X240382716Y-256789600D01*
X240819374Y-257814232D01*
X241156809Y-258909096D01*
X241245709Y-259284055D01*
X241460358Y-260536024D01*
X241558131Y-261813642D01*
X241538962Y-263118911D01*
X241402787Y-264453829D01*
X241149543Y-265820395D01*
X241017756Y-266367345D01*
X240648302Y-267600405D01*
X240174235Y-268840401D01*
X239607931Y-270062560D01*
X238961764Y-271242108D01*
X238248108Y-272354270D01*
X237579369Y-273250985D01*
X237266802Y-273621059D01*
X236888900Y-274037925D01*
X236475038Y-274471288D01*
X236054589Y-274890854D01*
X235656927Y-275266329D01*
X235429778Y-275467931D01*
X235038643Y-275804088D01*
X235173026Y-276646926D01*
X235381579Y-278245080D01*
X235500717Y-279849599D01*
X235531812Y-281449462D01*
X235476232Y-283033647D01*
X235335349Y-284591134D01*
X235110532Y-286110902D01*
X234803152Y-287581930D01*
X234414578Y-288993197D01*
X233946182Y-290333682D01*
X233399333Y-291592365D01*
X233286300Y-291822106D01*
X232689758Y-292899068D01*
X232023420Y-293895059D01*
X231293363Y-294803242D01*
X230505664Y-295616780D01*
X229666400Y-296328834D01*
X228781650Y-296932566D01*
X228701558Y-296980435D01*
X228483094Y-297114566D01*
X228322425Y-297223177D01*
X228236381Y-297294154D01*
X228235506Y-297315865D01*
X228362465Y-297362610D01*
X228525323Y-297484126D01*
X228694145Y-297652338D01*
X228838995Y-297839169D01*
X228894842Y-297934237D01*
X229026018Y-298304900D01*
X229093371Y-298764325D01*
X229100272Y-299299311D01*
X229050095Y-299896653D01*
X228946211Y-300543148D01*
X228791992Y-301225595D01*
X228590810Y-301930789D01*
X228346036Y-302645527D01*
X228061044Y-303356607D01*
X227739204Y-304050826D01*
X227383890Y-304714981D01*
X227008233Y-305321298D01*
X226508447Y-305975155D01*
X225888080Y-306622921D01*
X225148565Y-307263508D01*
X224291333Y-307895827D01*
X223317818Y-308518789D01*
X222229450Y-309131304D01*
X221520032Y-309494268D01*
X220912429Y-309788095D01*
X220299473Y-310070494D01*
X219660833Y-310350042D01*
X218976178Y-310635315D01*
X218225175Y-310934891D01*
X217387494Y-311257346D01*
X216946589Y-311423542D01*
X216433276Y-311619318D01*
X215844131Y-311849709D01*
X215215152Y-312100273D01*
X214582336Y-312356569D01*
X213981681Y-312604155D01*
X213526689Y-312795525D01*
X212861043Y-313078146D01*
X212292081Y-313318050D01*
X211804552Y-313521335D01*
X211383203Y-313694095D01*
X211012785Y-313842426D01*
X210678044Y-313972424D01*
X210363731Y-314090184D01*
X210054592Y-314201803D01*
X209735377Y-314313376D01*
X209689345Y-314329226D01*
X209375362Y-314432023D01*
X209014042Y-314541983D01*
X208627713Y-314653196D01*
X208238706Y-314759752D01*
X207869348Y-314855743D01*
X207541969Y-314935257D01*
X207278898Y-314992386D01*
X207102464Y-315021221D01*
X207065947Y-315023531D01*
X206941896Y-315040365D01*
X206853439Y-315103055D01*
X206786929Y-315233154D01*
X206728719Y-315452217D01*
X206697881Y-315604877D01*
X206498365Y-316450291D01*
X206214051Y-317352939D01*
X206013517Y-317892307D01*
X205857744Y-318266187D01*
X205655966Y-318715642D01*
X205423034Y-319210379D01*
X205173800Y-319720104D01*
X204923117Y-320214523D01*
X204685837Y-320663341D01*
X204476813Y-321036265D01*
X204448895Y-321083650D01*
X204313075Y-321323465D01*
X204220317Y-321525753D01*
X204155576Y-321734844D01*
X204103807Y-321995073D01*
X204073259Y-322190524D01*
X203990187Y-323098078D01*
X203998954Y-324059223D01*
X204097899Y-325049003D01*
X204285361Y-326042459D01*
X204346079Y-326289315D01*
X204442787Y-326639525D01*
X204538845Y-326916813D01*
X204654471Y-327168576D01*
X204809883Y-327442210D01*
X204900207Y-327588329D01*
X205662547Y-328713771D01*
X206472258Y-329739408D01*
X207325959Y-330662582D01*
X208220265Y-331480635D01*
X209151796Y-332190910D01*
X210117167Y-332790750D01*
X211112997Y-333277497D01*
X212135901Y-333648493D01*
X212851357Y-333834647D01*
X213246742Y-333901882D01*
X213727864Y-333953284D01*
X214259204Y-333987497D01*
X214805246Y-334003165D01*
X215330471Y-333998935D01*
X215799362Y-333973449D01*
X215985939Y-333954266D01*
X217034525Y-333777823D01*
X218099282Y-333508641D01*
X219133888Y-333158893D01*
X219372252Y-333064443D01*
X219989225Y-332842398D01*
X220535582Y-332712678D01*
X221021952Y-332676440D01*
X221458961Y-332734841D01*
X221857238Y-332889037D01*
X222227411Y-333140186D01*
X222504623Y-333405373D01*
X222734862Y-333695116D01*
X222951776Y-334043195D01*
X223145445Y-334424819D01*
X223305950Y-334815196D01*
X223423370Y-335189534D01*
X223487786Y-335523041D01*
X223489277Y-335790926D01*
X223479436Y-335841626D01*
X223426202Y-336056971D01*
X218144711Y-336056971D01*
X212863221Y-336056971D01*
X212142700Y-335821021D01*
X211575419Y-335611622D01*
X210954290Y-335341579D01*
X210317993Y-335029932D01*
X209705212Y-334695724D01*
X209154629Y-334357997D01*
X209108173Y-334327228D01*
X208010330Y-333521891D01*
X206970868Y-332609595D01*
X205989628Y-331590177D01*
X205066450Y-330463473D01*
X204336538Y-329435221D01*
X204064887Y-329003085D01*
X203770368Y-328493218D01*
X203468159Y-327935311D01*
X203173433Y-327359055D01*
X202901368Y-326794141D01*
X202667138Y-326270259D01*
X202485920Y-325817100D01*
X202482599Y-325808028D01*
X202287420Y-325220893D01*
X202101655Y-324564535D01*
X201937251Y-323887084D01*
X201806159Y-323236671D01*
X201739424Y-322814483D01*
X201639414Y-322074759D01*
X200351798Y-323360814D01*
X199603342Y-324091877D01*
X198880295Y-324761792D01*
X198159789Y-325389206D01*
X197418953Y-325992766D01*
X196634917Y-326591118D01*
X195784812Y-327202909D01*
X194868885Y-327831242D01*
X193848588Y-328517565D01*
X193965010Y-328715393D01*
X194160446Y-329109290D01*
X194347277Y-329604619D01*
X194520024Y-330180737D01*
X194673212Y-330817002D01*
X194801363Y-331492768D01*
X194899000Y-332187394D01*
X194908445Y-332271394D01*
X194936914Y-332567104D01*
X194967920Y-332948931D01*
X194999915Y-333391138D01*
X195031351Y-333867987D01*
X195060679Y-334353739D01*
X195086350Y-334822657D01*
X195106815Y-335249002D01*
X195120526Y-335607038D01*
X195125934Y-335871025D01*
X195125961Y-335886248D01*
X195125961Y-336087500D01*
X194454327Y-336087500D01*
X193782692Y-336087500D01*
X193782692Y-335060123D01*
X193777349Y-334512380D01*
X193759398Y-334011121D01*
X193725956Y-333527614D01*
X193674141Y-333033123D01*
X193601069Y-332498912D01*
X193503859Y-331896249D01*
X193414100Y-331386057D01*
X193281852Y-330630575D01*
X193177720Y-329984517D01*
X193100352Y-329438802D01*
X193048398Y-328984346D01*
X193035414Y-328838341D01*
X193019471Y-328641345D01*
X192225721Y-329104343D01*
X191551440Y-329493365D01*
X190875327Y-329874346D01*
X190187379Y-330252323D01*
X189477593Y-330632331D01*
X188735966Y-331019407D01*
X187952495Y-331418586D01*
X187117176Y-331834905D01*
X186220006Y-332273401D01*
X185250982Y-332739108D01*
X184200101Y-333237063D01*
X183057361Y-333772303D01*
X181812756Y-334349864D01*
X181738425Y-334384216D01*
X181093439Y-334681333D01*
X180549752Y-334929425D01*
X180098430Y-335132008D01*
X179730537Y-335292598D01*
X179437139Y-335414710D01*
X179209300Y-335501858D01*
X179038085Y-335557559D01*
X178914558Y-335585328D01*
X178829785Y-335588680D01*
X178774830Y-335571131D01*
X178757200Y-335557104D01*
X178722427Y-335484976D01*
X178750472Y-335386353D01*
X178850213Y-335248200D01*
X179030530Y-335057484D01*
X179223510Y-334872557D01*
X179330372Y-334775159D01*
X179438152Y-334684765D01*
X179556823Y-334596145D01*
X179696357Y-334504065D01*
X179866728Y-334403296D01*
X180077907Y-334288604D01*
X180339869Y-334154759D01*
X180662586Y-333996529D01*
X181056030Y-333808682D01*
X181530175Y-333585986D01*
X182094993Y-333323210D01*
X182760457Y-333015122D01*
X182792308Y-333000396D01*
X184545733Y-332176021D01*
X186186101Y-331375835D01*
X187719257Y-330596199D01*
X189151045Y-329833471D01*
X190487311Y-329084011D01*
X191733898Y-328344177D01*
X192896651Y-327610329D01*
X193981416Y-326878827D01*
X194994036Y-326146028D01*
X195940357Y-325408294D01*
X196826223Y-324661981D01*
X197657478Y-323903451D01*
X198122804Y-323450574D01*
X199174867Y-322341018D01*
X200109601Y-321224290D01*
X200931785Y-320091864D01*
X201646199Y-318935211D01*
X202257623Y-317745803D01*
X202770834Y-316515111D01*
X203190613Y-315234607D01*
X203521738Y-313895762D01*
X203547823Y-313769815D01*
X203626007Y-313406322D01*
X203693427Y-313143425D01*
X203756592Y-312960832D01*
X203822011Y-312838251D01*
X203863001Y-312787244D01*
X204009856Y-312630340D01*
X203429808Y-312680298D01*
X203046730Y-312703987D01*
X202575548Y-312718660D01*
X202047803Y-312724614D01*
X201495033Y-312722143D01*
X200948780Y-312711543D01*
X200440581Y-312693107D01*
X200001979Y-312667131D01*
X199766346Y-312646043D01*
X199213473Y-312577933D01*
X198676538Y-312495416D01*
X198170513Y-312402077D01*
X197710368Y-312301503D01*
X197311074Y-312197281D01*
X196987601Y-312092997D01*
X196754921Y-311992236D01*
X196628004Y-311898586D01*
X196624100Y-311893302D01*
X196549017Y-311696607D01*
X196551574Y-311467699D01*
X196620183Y-311243942D01*
X196743258Y-311062702D01*
X196909209Y-310961343D01*
X196913461Y-310960242D01*
X197020134Y-310953984D01*
X197224756Y-310959406D01*
X197503847Y-310975250D01*
X197833925Y-311000258D01*
X198090715Y-311023304D01*
X198600642Y-311062040D01*
X199201575Y-311091262D01*
X199863422Y-311110783D01*
X200556093Y-311120418D01*
X201249494Y-311119983D01*
X201913534Y-311109291D01*
X202518122Y-311088158D01*
X203033165Y-311056399D01*
X203063461Y-311053909D01*
X204560111Y-310899648D01*
X206041608Y-310687094D01*
X207520721Y-310412805D01*
X209010218Y-310073339D01*
X210522867Y-309665254D01*
X212071438Y-309185106D01*
X213668699Y-308629453D01*
X215327418Y-307994853D01*
X217045673Y-307284149D01*
X217962064Y-306886674D01*
X218774280Y-306522023D01*
X219493910Y-306184155D01*
X220132545Y-305867029D01*
X220701776Y-305564604D01*
X221213192Y-305270839D01*
X221678383Y-304979693D01*
X222108941Y-304685125D01*
X222301084Y-304544932D01*
X223045469Y-303935961D01*
X223680149Y-303294197D01*
X224212999Y-302607069D01*
X224651896Y-301862002D01*
X225004713Y-301046426D01*
X225279327Y-300147766D01*
X225404519Y-299590339D01*
X225511328Y-298971758D01*
X225564759Y-298447472D01*
X225564592Y-298001838D01*
X225510608Y-297619211D01*
X225402588Y-297283950D01*
X225371238Y-297214337D01*
X225195454Y-296972478D01*
X224946026Y-296822814D01*
X224630281Y-296766127D01*
X224255546Y-296803199D01*
X223829145Y-296934815D01*
X223618302Y-297027021D01*
X223383125Y-297131396D01*
X223175238Y-297210607D01*
X223029575Y-297251769D01*
X223000701Y-297254807D01*
X222917352Y-297278983D01*
X222825651Y-297363299D01*
X222710255Y-297525442D01*
X222582714Y-297736567D01*
X222182300Y-298364003D01*
X221723115Y-298977390D01*
X221225228Y-299554482D01*
X220708708Y-300073035D01*
X220193626Y-300510802D01*
X219875447Y-300737356D01*
X219613488Y-300923579D01*
X219317326Y-301157515D01*
X219037285Y-301398748D01*
X218943854Y-301485554D01*
X217953593Y-302351506D01*
X216865878Y-303153647D01*
X215690283Y-303886960D01*
X214436386Y-304546425D01*
X213113761Y-305127025D01*
X211731985Y-305623741D01*
X210300635Y-306031555D01*
X210240920Y-306046333D01*
X209003169Y-306315700D01*
X207784266Y-306506963D01*
X206546516Y-306624551D01*
X205252222Y-306672896D01*
X204895192Y-306674662D01*
X203588555Y-306635971D01*
X202359701Y-306524174D01*
X201211982Y-306340323D01*
X200148749Y-306085473D01*
X199173352Y-305760675D01*
X198289143Y-305366981D01*
X197499472Y-304905445D01*
X196807692Y-304377120D01*
X196427905Y-304014903D01*
X195963583Y-303470859D01*
X195606791Y-302909977D01*
X195346166Y-302308340D01*
X195170346Y-301642031D01*
X195104332Y-301228919D01*
X195030557Y-300654233D01*
X194701190Y-301076275D01*
X194112058Y-301802826D01*
X193449183Y-302570544D01*
X192732422Y-303359046D01*
X191981631Y-304147947D01*
X191216666Y-304916863D01*
X190457383Y-305645412D01*
X189723639Y-306313208D01*
X189035289Y-306899869D01*
X189001485Y-306927467D01*
X188749675Y-307098984D01*
X188535754Y-307163479D01*
X188341451Y-307122365D01*
X188164083Y-306992262D01*
X188025318Y-306813825D01*
X187982261Y-306619042D01*
X187982211Y-306610914D01*
X187989159Y-306541534D01*
X188016272Y-306465249D01*
X188072958Y-306370734D01*
X188168626Y-306246663D01*
X188312681Y-306081709D01*
X188514532Y-305864546D01*
X188783587Y-305583849D01*
X189129252Y-305228291D01*
X189138470Y-305218844D01*
X189781727Y-304544576D01*
X190457277Y-303808857D01*
X191148902Y-303030884D01*
X191840387Y-302229856D01*
X192515516Y-301424973D01*
X193158072Y-300635433D01*
X193751840Y-299880434D01*
X194280603Y-299179176D01*
X194524363Y-298842307D01*
X195655532Y-297180136D01*
X195763753Y-297004914D01*
X197647317Y-297004914D01*
X197731291Y-297625232D01*
X197844437Y-298028007D01*
X198180870Y-298844875D01*
X198630918Y-299638120D01*
X199186823Y-300397565D01*
X199840826Y-301113034D01*
X200585170Y-301774350D01*
X200865852Y-301991324D01*
X201931594Y-302711160D01*
X203051070Y-303321940D01*
X204225196Y-303824013D01*
X205454888Y-304217727D01*
X206741063Y-304503430D01*
X207887019Y-304662398D01*
X208106141Y-304676648D01*
X208420288Y-304686161D01*
X208802467Y-304691087D01*
X209225685Y-304691575D01*
X209662948Y-304687777D01*
X210087265Y-304679840D01*
X210471641Y-304667916D01*
X210789085Y-304652153D01*
X210878846Y-304645799D01*
X211882535Y-304518788D01*
X212825052Y-304297167D01*
X213729711Y-303974502D01*
X214345436Y-303688876D01*
X214601586Y-303551076D01*
X214880843Y-303388019D01*
X215163444Y-303212836D01*
X215429622Y-303038657D01*
X215659614Y-302878613D01*
X215833655Y-302745833D01*
X215931979Y-302653447D01*
X215946635Y-302625175D01*
X215897708Y-302538135D01*
X215771827Y-302417853D01*
X215600343Y-302287502D01*
X215414606Y-302170254D01*
X215245965Y-302089279D01*
X215202776Y-302075358D01*
X215025429Y-302039872D01*
X214834349Y-302031586D01*
X214601785Y-302052568D01*
X214299989Y-302104891D01*
X214023317Y-302163336D01*
X213189075Y-302303213D01*
X212301937Y-302370652D01*
X211573793Y-302369242D01*
X211269625Y-302354936D01*
X211008138Y-302337572D01*
X210814326Y-302319178D01*
X210713181Y-302301779D01*
X210706836Y-302298966D01*
X210718304Y-302241078D01*
X210805756Y-302117276D01*
X210955894Y-301944958D01*
X211062609Y-301833536D01*
X211561863Y-301242740D01*
X211984991Y-300563757D01*
X212325707Y-299808573D01*
X212577726Y-298989173D01*
X212597096Y-298907259D01*
X212667728Y-298510334D01*
X212719982Y-298034275D01*
X212752174Y-297519019D01*
X212762622Y-297004503D01*
X212749643Y-296530662D01*
X212713328Y-296149390D01*
X212560838Y-295357201D01*
X212497213Y-295133372D01*
X214024300Y-295133372D01*
X214030918Y-295725925D01*
X214044842Y-296282848D01*
X214065955Y-296783171D01*
X214094142Y-297205921D01*
X214129284Y-297530126D01*
X214133759Y-297560096D01*
X214285603Y-298357727D01*
X214476924Y-299040626D01*
X214709000Y-299610048D01*
X214983110Y-300067248D01*
X215300533Y-300413481D01*
X215662549Y-300650003D01*
X216070435Y-300778068D01*
X216525473Y-300798932D01*
X217028939Y-300713850D01*
X217272981Y-300640883D01*
X217987171Y-300337640D01*
X218671124Y-299919967D01*
X219322031Y-299392430D01*
X219937083Y-298759593D01*
X220513470Y-298026023D01*
X221048383Y-297196285D01*
X221539012Y-296274944D01*
X221982548Y-295266566D01*
X222376182Y-294175717D01*
X222717104Y-293006961D01*
X223002504Y-291764865D01*
X223119713Y-291139571D01*
X223210154Y-290610216D01*
X223284241Y-290146526D01*
X223343629Y-289727105D01*
X223389976Y-289330561D01*
X223424938Y-288935500D01*
X223450171Y-288520526D01*
X223467332Y-288064248D01*
X223478076Y-287545270D01*
X223484060Y-286942198D01*
X223486481Y-286402184D01*
X223488518Y-285814087D01*
X223491146Y-285335673D01*
X223495030Y-284954507D01*
X223500832Y-284658158D01*
X223509216Y-284434192D01*
X223520845Y-284270176D01*
X223536382Y-284153677D01*
X223556491Y-284072262D01*
X223581835Y-284013498D01*
X223613076Y-283964951D01*
X223616773Y-283959876D01*
X223831816Y-283750624D01*
X224088938Y-283627660D01*
X224362869Y-283588890D01*
X224628338Y-283632221D01*
X224860074Y-283755559D01*
X225032806Y-283956810D01*
X225087763Y-284081753D01*
X225116151Y-284216532D01*
X225148000Y-284447921D01*
X225180512Y-284750574D01*
X225210891Y-285099147D01*
X225230604Y-285375664D01*
X225264685Y-286486517D01*
X225232171Y-287673280D01*
X225136403Y-288911761D01*
X224980724Y-290177764D01*
X224768478Y-291447098D01*
X224503005Y-292695568D01*
X224187650Y-293898981D01*
X223944335Y-294685530D01*
X223853528Y-294968342D01*
X223782020Y-295207113D01*
X223736176Y-295379326D01*
X223722358Y-295462462D01*
X223723713Y-295466181D01*
X223795561Y-295460413D01*
X223955484Y-295406923D01*
X224183505Y-295314884D01*
X224459650Y-295193472D01*
X224763942Y-295051861D01*
X225076407Y-294899227D01*
X225377069Y-294744743D01*
X225645952Y-294597586D01*
X225760429Y-294530706D01*
X226378298Y-294138742D01*
X226922038Y-293744337D01*
X227435455Y-293313365D01*
X227945912Y-292828125D01*
X228745881Y-291944135D01*
X229466432Y-290967856D01*
X230107258Y-289900020D01*
X230668053Y-288741361D01*
X231148511Y-287492615D01*
X231548324Y-286154513D01*
X231867187Y-284727790D01*
X232104793Y-283213180D01*
X232161201Y-282732413D01*
X232225388Y-281996211D01*
X232268113Y-281188433D01*
X232289838Y-280333982D01*
X232291021Y-279457756D01*
X232272124Y-278584657D01*
X232233606Y-277739586D01*
X232175928Y-276947444D01*
X232099549Y-276233130D01*
X232032692Y-275777764D01*
X231989084Y-275650511D01*
X231903453Y-275589314D01*
X231762874Y-275595711D01*
X231554420Y-275671239D01*
X231265164Y-275817435D01*
X231146819Y-275883116D01*
X230001572Y-276459283D01*
X228812749Y-276921522D01*
X227582755Y-277269032D01*
X226313994Y-277501013D01*
X226265385Y-277507495D01*
X225940772Y-277539650D01*
X225547000Y-277562128D01*
X225109191Y-277575128D01*
X224652468Y-277578848D01*
X224201951Y-277573485D01*
X223782764Y-277559238D01*
X223420027Y-277536304D01*
X223138865Y-277504882D01*
X223019299Y-277481918D01*
X222795569Y-277426279D01*
X222225549Y-278163765D01*
X221881707Y-278586491D01*
X221465880Y-279061939D01*
X221001088Y-279566110D01*
X220510351Y-280075002D01*
X220016687Y-280564618D01*
X219543117Y-281010955D01*
X219213221Y-281304380D01*
X218780148Y-281670764D01*
X218351709Y-282018085D01*
X217911416Y-282358290D01*
X217442786Y-282703321D01*
X216929332Y-283065124D01*
X216354569Y-283455642D01*
X215702011Y-283886819D01*
X215190480Y-284218990D01*
X215156920Y-284295450D01*
X215111808Y-284482121D01*
X215056636Y-284767799D01*
X214992896Y-285141279D01*
X214922080Y-285591355D01*
X214845682Y-286106823D01*
X214765192Y-286676478D01*
X214682104Y-287289115D01*
X214597910Y-287933528D01*
X214514103Y-288598513D01*
X214432173Y-289272865D01*
X214353614Y-289945379D01*
X214279919Y-290604849D01*
X214212578Y-291240071D01*
X214153086Y-291839840D01*
X214104885Y-292370192D01*
X214073222Y-292826311D01*
X214049449Y-293351660D01*
X214033449Y-293925268D01*
X214025105Y-294526163D01*
X214024300Y-295133372D01*
X212497213Y-295133372D01*
X212342051Y-294587525D01*
X212064302Y-293852371D01*
X211734931Y-293163745D01*
X211361275Y-292533657D01*
X210950672Y-291974114D01*
X210510460Y-291497125D01*
X210047976Y-291114697D01*
X209570560Y-290838838D01*
X209433141Y-290781543D01*
X209012299Y-290665074D01*
X208556969Y-290612358D01*
X208120440Y-290627765D01*
X207939601Y-290659163D01*
X207548607Y-290784302D01*
X207120423Y-290981002D01*
X206696989Y-291227816D01*
X206373034Y-291460270D01*
X205964468Y-291840716D01*
X205563256Y-292315268D01*
X205187526Y-292856395D01*
X204855407Y-293436566D01*
X204585028Y-294028247D01*
X204467272Y-294354567D01*
X204398956Y-294563289D01*
X204346094Y-294719930D01*
X204318854Y-294794444D01*
X204317677Y-294796596D01*
X204259040Y-294783622D01*
X204106055Y-294737921D01*
X203879967Y-294666133D01*
X203602022Y-294574899D01*
X203509832Y-294544101D01*
X202794830Y-294319420D01*
X202147890Y-294150203D01*
X201533050Y-294027951D01*
X201022774Y-293956226D01*
X200599126Y-293919464D01*
X200256798Y-293922701D01*
X199960265Y-293970460D01*
X199673999Y-294067264D01*
X199491586Y-294151167D01*
X198917367Y-294493556D01*
X198446498Y-294897208D01*
X198081520Y-295356146D01*
X197824970Y-295864395D01*
X197679390Y-296415976D01*
X197647317Y-297004914D01*
X195763753Y-297004914D01*
X196670084Y-295537456D01*
X197567712Y-293915044D01*
X198348106Y-292313673D01*
X199010959Y-290734119D01*
X199555961Y-289177155D01*
X199982805Y-287643558D01*
X200291183Y-286134100D01*
X200480786Y-284649558D01*
X200538994Y-283730528D01*
X200551861Y-283350484D01*
X200556003Y-283063554D01*
X200549435Y-282840926D01*
X200530171Y-282653784D01*
X200496227Y-282473314D01*
X200445616Y-282270702D01*
X200435923Y-282234615D01*
X200119673Y-281278786D01*
X199703697Y-280370339D01*
X199196030Y-279518725D01*
X198604705Y-278733395D01*
X197937755Y-278023799D01*
X197203213Y-277399387D01*
X196409113Y-276869611D01*
X195563488Y-276443920D01*
X195485953Y-276411377D01*
X194534073Y-276083803D01*
X193545921Y-275870256D01*
X192530110Y-275771198D01*
X191495258Y-275787090D01*
X190449979Y-275918393D01*
X189643388Y-276098445D01*
X189091430Y-276263022D01*
X188459122Y-276481929D01*
X187770006Y-276745318D01*
X187047622Y-277043339D01*
X186315509Y-277366142D01*
X185597209Y-277703879D01*
X184916263Y-278046700D01*
X184654567Y-278185774D01*
X184193967Y-278438177D01*
X183808934Y-278658904D01*
X183470755Y-278867092D01*
X183150718Y-279081876D01*
X182820110Y-279322395D01*
X182450221Y-279607784D01*
X182087357Y-279896825D01*
X180119993Y-281554362D01*
X178245794Y-283290467D01*
X176464470Y-285105513D01*
X174775732Y-286999873D01*
X173179292Y-288973920D01*
X171674860Y-291028027D01*
X170262147Y-293162567D01*
X168940865Y-295377912D01*
X167710725Y-297674436D01*
X166719511Y-299727644D01*
X165903548Y-301597579D01*
X165125707Y-303568079D01*
X164391174Y-305622117D01*
X163705135Y-307742668D01*
X163072778Y-309912705D01*
X162499288Y-312115204D01*
X161989851Y-314333138D01*
X161549655Y-316549481D01*
X161483765Y-316915384D01*
X161414575Y-317304900D01*
X161345532Y-317692707D01*
X161282436Y-318046288D01*
X161231086Y-318333126D01*
X161206900Y-318467573D01*
X161116028Y-318827558D01*
X160985894Y-319085145D01*
X160804545Y-319256961D01*
X160566848Y-319357815D01*
X160284583Y-319381828D01*
X160019233Y-319312717D01*
X159799171Y-319165969D01*
X159652769Y-318957068D01*
X159617010Y-318839368D01*
X159615761Y-318712567D01*
X159636668Y-318477258D01*
X159677987Y-318144686D01*
X159737978Y-317726098D01*
X159814899Y-317232740D01*
X159907009Y-316675857D01*
X160012565Y-316066696D01*
X160129827Y-315416503D01*
X160231728Y-314869951D01*
X160511444Y-313464187D01*
X160823361Y-312028786D01*
X161161136Y-310588936D01*
X161518423Y-309169820D01*
X161888876Y-307796623D01*
X162266152Y-306494531D01*
X162643904Y-305288729D01*
X162651271Y-305266225D01*
X162753603Y-304947212D01*
X162838916Y-304668365D01*
X162901180Y-304450462D01*
X162934366Y-304314281D01*
X162937580Y-304279661D01*
X162882129Y-304287156D01*
X162746158Y-304367686D01*
X162539978Y-304512663D01*
X162273899Y-304713498D01*
X161958229Y-304961603D01*
X161603280Y-305248391D01*
X161219360Y-305565273D01*
X160816779Y-305903660D01*
X160405847Y-306254966D01*
X159996873Y-306610601D01*
X159600168Y-306961978D01*
X159226041Y-307300508D01*
X158884802Y-307617603D01*
X158591479Y-307900024D01*
X158345188Y-308144836D01*
X158138313Y-308357844D01*
X157956517Y-308557191D01*
X157785465Y-308761014D01*
X157610818Y-308987455D01*
X157418240Y-309254653D01*
X157193395Y-309580748D01*
X156921946Y-309983881D01*
X156798612Y-310168509D01*
X156374607Y-310805566D01*
X156013135Y-311353044D01*
X155707790Y-311822161D01*
X155452168Y-312224134D01*
X155239866Y-312570182D01*
X155064479Y-312871523D01*
X154919604Y-313139373D01*
X154798834Y-313384952D01*
X154695767Y-313619476D01*
X154603999Y-313854164D01*
X154517124Y-314100232D01*
X154465711Y-314254863D01*
X154096313Y-315478720D01*
X153805215Y-316662957D01*
X153586751Y-317840850D01*
X153435254Y-319045674D01*
X153345058Y-320310706D01*
X153321188Y-320975721D01*
X153335426Y-322737227D01*
X153467996Y-324468967D01*
X153718821Y-326170585D01*
X154087829Y-327841725D01*
X154574942Y-329482031D01*
X155180085Y-331091149D01*
X155712176Y-332279016D01*
X156034419Y-332930124D01*
X156351366Y-333523117D01*
X156685384Y-334096619D01*
X157058841Y-334689256D01*
X157431525Y-335247956D01*
X158002952Y-336087500D01*
X156784723Y-336087500D01*
X155566493Y-336087500D01*
X155295811Y-335669067D01*
X154625418Y-334562691D01*
X153984058Y-333366652D01*
X153386804Y-332112604D01*
X152848728Y-330832200D01*
X152384904Y-329557091D01*
X152383981Y-329554326D01*
X151917969Y-328022689D01*
X151557714Y-326529117D01*
X151300198Y-325056181D01*
X151142400Y-323586453D01*
X151081301Y-322102502D01*
X151080762Y-322032820D01*
X151076684Y-321601357D01*
X151070118Y-321281291D01*
X151060326Y-321061917D01*
X151046571Y-320932531D01*
X151028116Y-320882426D01*
X151004223Y-320900898D01*
X151002965Y-320903253D01*
X150928956Y-321066220D01*
X150824771Y-321325614D01*
X150697434Y-321661549D01*
X150553966Y-322054139D01*
X150401390Y-322483498D01*
X150246729Y-322929742D01*
X150097005Y-323372984D01*
X149959241Y-323793339D01*
X149840459Y-324170921D01*
X149791359Y-324334142D01*
X149356514Y-325962309D01*
X149016118Y-327574669D01*
X148770840Y-329162729D01*
X148621349Y-330717995D01*
X148568313Y-332231975D01*
X148612399Y-333696175D01*
X148754278Y-335102102D01*
X148881931Y-335889062D01*
X148918879Y-336087500D01*
X148395447Y-336087500D01*
X147872014Y-336087500D01*
X147811531Y-335858533D01*
X147763828Y-335647139D01*
X147705871Y-335342612D01*
X147642186Y-334973034D01*
X147577300Y-334566490D01*
X147515737Y-334151063D01*
X147462025Y-333754837D01*
X147430225Y-333492548D01*
X147401722Y-333154452D01*
X147380015Y-332719853D01*
X147365111Y-332214171D01*
X147357018Y-331662831D01*
X147355744Y-331091253D01*
X147361297Y-330524860D01*
X147373685Y-329989074D01*
X147392917Y-329509319D01*
X147419000Y-329111016D01*
X147428805Y-329004807D01*
X147665840Y-327229963D01*
X148020409Y-325427871D01*
X148491721Y-323601474D01*
X149078985Y-321753712D01*
X149781410Y-319887527D01*
X150061323Y-319214103D01*
X150163923Y-318967135D01*
X150242891Y-318765223D01*
X150289186Y-318632280D01*
X150296666Y-318591698D01*
X150260370Y-318634604D01*
X150173460Y-318770630D01*
X150043923Y-318985761D01*
X149879750Y-319265983D01*
X149688928Y-319597281D01*
X149479448Y-319965642D01*
X149259298Y-320357049D01*
X149036467Y-320757490D01*
X148818944Y-321152949D01*
X148614718Y-321529412D01*
X148503470Y-321737367D01*
X148014276Y-322687511D01*
X147508010Y-323726859D01*
X146997839Y-324826301D01*
X146496933Y-325956730D01*
X146018458Y-327089037D01*
X145575582Y-328194113D01*
X145533535Y-328302584D01*
X145371313Y-328709287D01*
X145192560Y-329135531D01*
X145013026Y-329545149D01*
X144848460Y-329901973D01*
X144749162Y-330103786D01*
X144536459Y-330503685D01*
X144306726Y-330908933D01*
X144067639Y-331308575D01*
X143826872Y-331691653D01*
X143592100Y-332047210D01*
X143370997Y-332364290D01*
X143171239Y-332631937D01*
X143000500Y-332839193D01*
X142866455Y-332975101D01*
X142776778Y-333028705D01*
X142739143Y-332989049D01*
X142738461Y-332974361D01*
X142760359Y-332894971D01*
X142822321Y-332716715D01*
X142918755Y-332453989D01*
X143044067Y-332121184D01*
X143192663Y-331732694D01*
X143358950Y-331302913D01*
X143537333Y-330846234D01*
X143722221Y-330377051D01*
X143908018Y-329909757D01*
X144089131Y-329458744D01*
X144259967Y-329038408D01*
X144399771Y-328699519D01*
X144842924Y-327658818D01*
X145329869Y-326558440D01*
X145849871Y-325420636D01*
X146392194Y-324267658D01*
X146946102Y-323121761D01*
X147500859Y-322005195D01*
X148045730Y-320940214D01*
X148569978Y-319949070D01*
X148995138Y-319174519D01*
X149814060Y-317746051D01*
X150667656Y-316321132D01*
X151542567Y-314920527D01*
X152425432Y-313565001D01*
X153302890Y-312275318D01*
X154161580Y-311072244D01*
X154514817Y-310595913D01*
X154725792Y-310318051D01*
X154977818Y-309991178D01*
X155257177Y-309632602D01*
X155550150Y-309259631D01*
X155843018Y-308889572D01*
X156122062Y-308539732D01*
X156373563Y-308227419D01*
X156583801Y-307969940D01*
X156739059Y-307784602D01*
X156784799Y-307732181D01*
X156902442Y-307598971D01*
X157080185Y-307396002D01*
X157298275Y-307145905D01*
X157536964Y-306871311D01*
X157669253Y-306718750D01*
X158193158Y-306133524D01*
X158797184Y-305492480D01*
X159463459Y-304812664D01*
X160174111Y-304111126D01*
X160911267Y-303404912D01*
X161657056Y-302711071D01*
X162393607Y-302046652D01*
X163103046Y-301428701D01*
X163767503Y-300874267D01*
X163952302Y-300725343D01*
X164437056Y-300338221D01*
X164903703Y-299300240D01*
X165948645Y-297105208D01*
X167065597Y-295008516D01*
X168254486Y-293010282D01*
X169515242Y-291110624D01*
X170847792Y-289309661D01*
X171253733Y-288798317D01*
X171553958Y-288432846D01*
X171921302Y-287996515D01*
X172339611Y-287507783D01*
X172792731Y-286985109D01*
X173264509Y-286446953D01*
X173738791Y-285911773D01*
X174199424Y-285398029D01*
X174630255Y-284924180D01*
X174894418Y-284637973D01*
X175193502Y-284320630D01*
X175555520Y-283943630D01*
X175969805Y-283517578D01*
X176425684Y-283053077D01*
X176912489Y-282560734D01*
X177419551Y-282051152D01*
X177936198Y-281534937D01*
X178451762Y-281022692D01*
X178955572Y-280525023D01*
X179436960Y-280052535D01*
X179885254Y-279615831D01*
X180289786Y-279225517D01*
X180639886Y-278892197D01*
X180924884Y-278626476D01*
X181113221Y-278457099D01*
X181374319Y-278227119D01*
X181601684Y-278022991D01*
X181779864Y-277858901D01*
X181893407Y-277749036D01*
X181927324Y-277709705D01*
X181883398Y-277680626D01*
X181748704Y-277660417D01*
X181591506Y-277654096D01*
X181376627Y-277645126D01*
X181086037Y-277621940D01*
X180764779Y-277588501D01*
X180567687Y-277564056D01*
X179183266Y-277325292D01*
X177849852Y-276986465D01*
X176572164Y-276551511D01*
X175354920Y-276024369D01*
X174202839Y-275408978D01*
X173120639Y-274709275D01*
X172113040Y-273929198D01*
X171184758Y-273072687D01*
X170340512Y-272143678D01*
X169585022Y-271146111D01*
X168923005Y-270083924D01*
X168359180Y-268961054D01*
X167898265Y-267781440D01*
X167589649Y-266732024D01*
X167315418Y-265421694D01*
X167152577Y-264125400D01*
X167099096Y-262848909D01*
X167105672Y-262696153D01*
X168356262Y-262696153D01*
X168357714Y-263168756D01*
X168363129Y-263542685D01*
X168374094Y-263841358D01*
X168392199Y-264088195D01*
X168419033Y-264306613D01*
X168456183Y-264520030D01*
X168491477Y-264689550D01*
X168662562Y-265364040D01*
X168884750Y-266040684D01*
X169168569Y-266748159D01*
X169524550Y-267515145D01*
X169541805Y-267550240D01*
X170220284Y-268798195D01*
X170982476Y-269958338D01*
X171827575Y-271029705D01*
X172754778Y-272011335D01*
X173763279Y-272902266D01*
X174464030Y-273433711D01*
X175583698Y-274165035D01*
X176751926Y-274799420D01*
X177957527Y-275333048D01*
X179189314Y-275762100D01*
X180436102Y-276082757D01*
X181686704Y-276291200D01*
X182929934Y-276383610D01*
X183115611Y-276387234D01*
X183982933Y-276397821D01*
X184807211Y-275845863D01*
X186105897Y-275027701D01*
X187390919Y-274323662D01*
X188674593Y-273728550D01*
X189969234Y-273237168D01*
X191287160Y-272844319D01*
X192622596Y-272548162D01*
X192986512Y-272497010D01*
X193431430Y-272460330D01*
X193928789Y-272438118D01*
X194450032Y-272430371D01*
X194966600Y-272437083D01*
X195449935Y-272458251D01*
X195871476Y-272493870D01*
X196202667Y-272543936D01*
X196225000Y-272548696D01*
X197119665Y-272798975D01*
X197935850Y-273141181D01*
X198678311Y-273577888D01*
X199351808Y-274111673D01*
X199653701Y-274404902D01*
X200240944Y-275088511D01*
X200744750Y-275839358D01*
X201167129Y-276662737D01*
X201510091Y-277563944D01*
X201775644Y-278548275D01*
X201965798Y-279621024D01*
X202082562Y-280787486D01*
X202084052Y-280810114D01*
X202108438Y-281179682D01*
X202132827Y-281542101D01*
X202154923Y-281863697D01*
X202172427Y-282110794D01*
X202177704Y-282182239D01*
X202185709Y-282492653D01*
X202172949Y-282900951D01*
X202141744Y-283385104D01*
X202094414Y-283923082D01*
X202033281Y-284492855D01*
X201960665Y-285072395D01*
X201878886Y-285639672D01*
X201790264Y-286172657D01*
X201717256Y-286553452D01*
X201648910Y-286878714D01*
X201610044Y-287100257D01*
X201613578Y-287235350D01*
X201672434Y-287301260D01*
X201799530Y-287315256D01*
X202007787Y-287294607D01*
X202248780Y-287263862D01*
X202562760Y-287221666D01*
X202949651Y-287163589D01*
X203362478Y-287096981D01*
X203754267Y-287029193D01*
X203790486Y-287022631D01*
X204597421Y-286866218D01*
X205356347Y-286697605D01*
X206088994Y-286509976D01*
X206817092Y-286296517D01*
X207562372Y-286050415D01*
X208346564Y-285764855D01*
X209191397Y-285433023D01*
X210118602Y-285048104D01*
X210207211Y-285010464D01*
X211576733Y-284367319D01*
X212930490Y-283612970D01*
X214253114Y-282758330D01*
X215529235Y-281814309D01*
X216743486Y-280791819D01*
X217880496Y-279701772D01*
X218287993Y-279273317D01*
X218589593Y-278944781D01*
X218877660Y-278623871D01*
X219160564Y-278300163D01*
X219446674Y-277963234D01*
X219744361Y-277602658D01*
X220061995Y-277208012D01*
X220407946Y-276768872D01*
X220790583Y-276274814D01*
X221218278Y-275715414D01*
X221699399Y-275080248D01*
X222242317Y-274358892D01*
X222360791Y-274201044D01*
X222748550Y-273685047D01*
X223118987Y-273193698D01*
X223464810Y-272736565D01*
X223778724Y-272323216D01*
X224053434Y-271963218D01*
X224281647Y-271666141D01*
X224456066Y-271441552D01*
X224569399Y-271299019D01*
X224606757Y-271255010D01*
X224806257Y-271102309D01*
X225003946Y-271066817D01*
X225189753Y-271149628D01*
X225231381Y-271187150D01*
X225282204Y-271240721D01*
X225314757Y-271295448D01*
X225327284Y-271370468D01*
X225318029Y-271484916D01*
X225285234Y-271657929D01*
X225227144Y-271908642D01*
X225142000Y-272256192D01*
X225128049Y-272312740D01*
X224998254Y-272787113D01*
X224835415Y-273301772D01*
X224649729Y-273830209D01*
X224451390Y-274345916D01*
X224250597Y-274822382D01*
X224057544Y-275233099D01*
X223882428Y-275551559D01*
X223882069Y-275552139D01*
X223803957Y-275685848D01*
X223763555Y-275769306D01*
X223762019Y-275776611D01*
X223819282Y-275805365D01*
X223976261Y-275826829D01*
X224210745Y-275840448D01*
X224500521Y-275845667D01*
X224823376Y-275841931D01*
X225157097Y-275828683D01*
X225348763Y-275816282D01*
X226504847Y-275668325D01*
X227644703Y-275400717D01*
X228764641Y-275015277D01*
X229860971Y-274513824D01*
X230930002Y-273898177D01*
X231968045Y-273170156D01*
X232971410Y-272331578D01*
X233565580Y-271765813D01*
X234059098Y-271261161D01*
X234482874Y-270798818D01*
X234863787Y-270346418D01*
X235228719Y-269871597D01*
X235604549Y-269341989D01*
X235722980Y-269168269D01*
X236394797Y-268092316D01*
X236978045Y-266985562D01*
X237469759Y-265858629D01*
X237866973Y-264722137D01*
X238166719Y-263586708D01*
X238366033Y-262462964D01*
X238461947Y-261361526D01*
X238451495Y-260293015D01*
X238387199Y-259628220D01*
X238194707Y-258606448D01*
X237898710Y-257648613D01*
X237500899Y-256756635D01*
X237002966Y-255932434D01*
X236406600Y-255177931D01*
X235713492Y-254495047D01*
X234925334Y-253885700D01*
X234043817Y-253351813D01*
X233070631Y-252895304D01*
X232171638Y-252569235D01*
X231787113Y-252448285D01*
X231502776Y-252365020D01*
X231303117Y-252318064D01*
X231172622Y-252306043D01*
X231095782Y-252327581D01*
X231057083Y-252381305D01*
X231041015Y-252465838D01*
X231040706Y-252468990D01*
X230960471Y-253026237D01*
X230823713Y-253661530D01*
X230638533Y-254349302D01*
X230413033Y-255063984D01*
X230155312Y-255780008D01*
X229873473Y-256471806D01*
X229575616Y-257113810D01*
X229557615Y-257149785D01*
X228970897Y-258199434D01*
X228290478Y-259207743D01*
X227529890Y-260159108D01*
X226702665Y-261037925D01*
X225822338Y-261828592D01*
X224906185Y-262512980D01*
X224692530Y-262665000D01*
X224566293Y-262779201D01*
X224507824Y-262876493D01*
X224496645Y-262948818D01*
X224473835Y-263120636D01*
X224415294Y-263371152D01*
X224331500Y-263666029D01*
X224232931Y-263970928D01*
X224130065Y-264251513D01*
X224033377Y-264473446D01*
X224028417Y-264483327D01*
X223948553Y-264623924D01*
X223811630Y-264846428D01*
X223629694Y-265132064D01*
X223414786Y-265462054D01*
X223178950Y-265817622D01*
X223041816Y-266021525D01*
X222785246Y-266403199D01*
X222529159Y-266788043D01*
X222289013Y-267152540D01*
X222080270Y-267473170D01*
X221918389Y-267726415D01*
X221867789Y-267807518D01*
X221520856Y-268370084D01*
X221482410Y-267838046D01*
X221378606Y-267093804D01*
X221176519Y-266416828D01*
X220870625Y-265794966D01*
X220455404Y-265216064D01*
X220130927Y-264863686D01*
X219566750Y-264364987D01*
X218970341Y-263968021D01*
X218320489Y-263661601D01*
X217595980Y-263434539D01*
X217289904Y-263365345D01*
X216705693Y-263281638D01*
X216068462Y-263252187D01*
X215423592Y-263276033D01*
X214816465Y-263352217D01*
X214481250Y-263424703D01*
X213888364Y-263620704D01*
X213241435Y-263910502D01*
X212552288Y-264285067D01*
X211832746Y-264735368D01*
X211094636Y-265252375D01*
X210349782Y-265827057D01*
X209610008Y-266450384D01*
X208887139Y-267113324D01*
X208193000Y-267806848D01*
X207539417Y-268521925D01*
X207066723Y-269087164D01*
X206590369Y-269701736D01*
X206168371Y-270293822D01*
X205768654Y-270910454D01*
X205387448Y-271549519D01*
X205124059Y-271994871D01*
X204851189Y-272436363D01*
X204576230Y-272863837D01*
X204306576Y-273267135D01*
X204049619Y-273636098D01*
X203812753Y-273960567D01*
X203603371Y-274230385D01*
X203428867Y-274435393D01*
X203296633Y-274565432D01*
X203214063Y-274610345D01*
X203188348Y-274571118D01*
X203216880Y-274448364D01*
X203301869Y-274231350D01*
X203437530Y-273930879D01*
X203618080Y-273557754D01*
X203837736Y-273122778D01*
X204090712Y-272636755D01*
X204371225Y-272110486D01*
X204673491Y-271554777D01*
X204991726Y-270980429D01*
X205320146Y-270398245D01*
X205652967Y-269819029D01*
X205984405Y-269253584D01*
X206308677Y-268712712D01*
X206440629Y-268496634D01*
X206682158Y-268110405D01*
X206962754Y-267673056D01*
X207265419Y-267210144D01*
X207573153Y-266747225D01*
X207868959Y-266309854D01*
X208135837Y-265923590D01*
X208356790Y-265613988D01*
X208369695Y-265596394D01*
X208683892Y-265168990D01*
X208500148Y-265149931D01*
X208306321Y-265152135D01*
X208021371Y-265184296D01*
X207671137Y-265241276D01*
X207281461Y-265317940D01*
X206878183Y-265409153D01*
X206487145Y-265509779D01*
X206134187Y-265614681D01*
X206091719Y-265628606D01*
X205027498Y-266043777D01*
X203983022Y-266572584D01*
X202968405Y-267206930D01*
X201993765Y-267938717D01*
X201069215Y-268759845D01*
X200204871Y-269662216D01*
X199410849Y-270637733D01*
X198867892Y-271412002D01*
X198683146Y-271682978D01*
X198537443Y-271864018D01*
X198410899Y-271972145D01*
X198283635Y-272024381D01*
X198137067Y-272037752D01*
X197940723Y-271996352D01*
X197732579Y-271892695D01*
X197566063Y-271756914D01*
X197515578Y-271687267D01*
X197498145Y-271593302D01*
X197483420Y-271389028D01*
X197471762Y-271086227D01*
X197463528Y-270696683D01*
X197459076Y-270232179D01*
X197458492Y-269806476D01*
X197454750Y-268974323D01*
X197438976Y-268235856D01*
X197409472Y-267563083D01*
X197364540Y-266928015D01*
X197302482Y-266302659D01*
X197221601Y-265659024D01*
X197195716Y-265474278D01*
X196977786Y-264167097D01*
X196708225Y-262950492D01*
X196380295Y-261801478D01*
X195987255Y-260697068D01*
X195522369Y-259614275D01*
X195405845Y-259368509D01*
X194780389Y-258192451D01*
X194084841Y-257115204D01*
X193315744Y-256133245D01*
X192469639Y-255243049D01*
X191543068Y-254441093D01*
X190532570Y-253723854D01*
X189434689Y-253087808D01*
X189050721Y-252894205D01*
X187812391Y-252350573D01*
X186541846Y-251906683D01*
X185248741Y-251562731D01*
X183942730Y-251318913D01*
X182633467Y-251175427D01*
X181330607Y-251132468D01*
X180043802Y-251190232D01*
X178782709Y-251348918D01*
X177556980Y-251608720D01*
X176376271Y-251969835D01*
X175250234Y-252432460D01*
X174894843Y-252606133D01*
X173923951Y-253160794D01*
X172999192Y-253808425D01*
X172130762Y-254537550D01*
X171328859Y-255336693D01*
X170603679Y-256194377D01*
X169965417Y-257099125D01*
X169424271Y-258039461D01*
X168990436Y-259003908D01*
X168840107Y-259421109D01*
X168686384Y-259902588D01*
X168568045Y-260329010D01*
X168480781Y-260729545D01*
X168420282Y-261133364D01*
X168382238Y-261569637D01*
X168362341Y-262067535D01*
X168356280Y-262656227D01*
X168356262Y-262696153D01*
X167105672Y-262696153D01*
X167152944Y-261597990D01*
X167312088Y-260378413D01*
X167574499Y-259195945D01*
X167938145Y-258056355D01*
X168400995Y-256965413D01*
X168961017Y-255928887D01*
X169616181Y-254952545D01*
X170364455Y-254042156D01*
X171203808Y-253203489D01*
X172132209Y-252442313D01*
X172778846Y-251994174D01*
X173860414Y-251364644D01*
X175015297Y-250825093D01*
X176232761Y-250376911D01*
X177502074Y-250021485D01*
X178812502Y-249760206D01*
X180153313Y-249594463D01*
X181513772Y-249525645D01*
X182883147Y-249555141D01*
X184250705Y-249684340D01*
X185605712Y-249914632D01*
X186730529Y-250188376D01*
X188053209Y-250616725D01*
X189317280Y-251146697D01*
X190517595Y-251774160D01*
X191649004Y-252494978D01*
X192706359Y-253305019D01*
X193684513Y-254200147D01*
X194578315Y-255176230D01*
X195382618Y-256229134D01*
X196092273Y-257354723D01*
X196424608Y-257972161D01*
X197015132Y-259210695D01*
X197528442Y-260446443D01*
X197959140Y-261663769D01*
X198301830Y-262847036D01*
X198551116Y-263980606D01*
X198602913Y-264283653D01*
X198643583Y-264581138D01*
X198687555Y-264976849D01*
X198732954Y-265447004D01*
X198777904Y-265967824D01*
X198820530Y-266515529D01*
X198858955Y-267066339D01*
X198891304Y-267596472D01*
X198915701Y-268082150D01*
X198927531Y-268398916D01*
X198942067Y-268881246D01*
X199810316Y-268053186D01*
X200130473Y-267754722D01*
X200471727Y-267448305D01*
X200805505Y-267158818D01*
X201103233Y-266911143D01*
X201290796Y-266763938D01*
X202289460Y-266081883D01*
X203347051Y-265492250D01*
X204450042Y-264999755D01*
X205584908Y-264609112D01*
X206738126Y-264325038D01*
X207896171Y-264152248D01*
X208943391Y-264095693D01*
X209627163Y-264090905D01*
X210222949Y-263397388D01*
X210818734Y-262703870D01*
X210512381Y-262299121D01*
X210236694Y-261885551D01*
X209971081Y-261397883D01*
X209738567Y-260883447D01*
X209562182Y-260389569D01*
X209532112Y-260284375D01*
X209444206Y-259851787D01*
X209386490Y-259338281D01*
X209360162Y-258781561D01*
X209366418Y-258219331D01*
X209406453Y-257689297D01*
X209441706Y-257434747D01*
X209607800Y-256678882D01*
X209860425Y-255871318D01*
X210189753Y-255035371D01*
X210585956Y-254194356D01*
X211039208Y-253371591D01*
X211390705Y-252810620D01*
X211556669Y-252553956D01*
X211692081Y-252333470D01*
X211785354Y-252168902D01*
X211824898Y-252079994D01*
X211824718Y-252071270D01*
X211754873Y-252043722D01*
X211597618Y-252013124D01*
X211391235Y-251986583D01*
X211185074Y-251956088D01*
X210894221Y-251900518D01*
X210551834Y-251826798D01*
X210191069Y-251741849D01*
X210050774Y-251706717D01*
X208832033Y-251346703D01*
X207605971Y-250890352D01*
X206390546Y-250347768D01*
X205203718Y-249729056D01*
X204063446Y-249044320D01*
X202987690Y-248303665D01*
X201994409Y-247517196D01*
X201101562Y-246695017D01*
X201048558Y-246641719D01*
X200460842Y-246008800D01*
X199973120Y-245396099D01*
X199570280Y-244783054D01*
X199273633Y-244226201D01*
X199058565Y-243742187D01*
X198910649Y-243316036D01*
X198820482Y-242910480D01*
X198778656Y-242488245D01*
X198772863Y-242241826D01*
X198781011Y-242116799D01*
X200330082Y-242116799D01*
X200344568Y-242455528D01*
X200475744Y-243094398D01*
X200727128Y-243741357D01*
X201097254Y-244394122D01*
X201584655Y-245050407D01*
X202187866Y-245707931D01*
X202791218Y-246266667D01*
X203731573Y-247019165D01*
X204753380Y-247723929D01*
X205838190Y-248372301D01*
X206967551Y-248955624D01*
X208123013Y-249465238D01*
X209286127Y-249892484D01*
X210438443Y-250228705D01*
X211561510Y-250465241D01*
X211825240Y-250506301D01*
X211968461Y-250517262D01*
X212193910Y-250523857D01*
X212461752Y-250525145D01*
X212572529Y-250523952D01*
X213136644Y-250515144D01*
X214037913Y-249623432D01*
X214344846Y-249323097D01*
X214656795Y-249023756D01*
X214951055Y-248746779D01*
X215204919Y-248513534D01*
X215395683Y-248345394D01*
X215397115Y-248344181D01*
X215589982Y-248173336D01*
X215738698Y-248026955D01*
X215823888Y-247924958D01*
X215836272Y-247892624D01*
X215795802Y-247807397D01*
X215708672Y-247649985D01*
X215590869Y-247446953D01*
X215458378Y-247224867D01*
X215327185Y-247010294D01*
X215310764Y-246984275D01*
X223727224Y-246984275D01*
X223752306Y-247463536D01*
X223867511Y-247955775D01*
X224065432Y-248449371D01*
X224338658Y-248932701D01*
X224679781Y-249394143D01*
X225081391Y-249822075D01*
X225536079Y-250204875D01*
X226036435Y-250530921D01*
X226575050Y-250788591D01*
X227059135Y-250945606D01*
X227476167Y-251012185D01*
X227916797Y-251015204D01*
X228338112Y-250957683D01*
X228697196Y-250842644D01*
X228727993Y-250828111D01*
X229097673Y-250588044D01*
X229374585Y-250283123D01*
X229561918Y-249924023D01*
X229662860Y-249521419D01*
X229680599Y-249085986D01*
X229618322Y-248628401D01*
X229479218Y-248159338D01*
X229266475Y-247689472D01*
X228983280Y-247229480D01*
X228632822Y-246790036D01*
X228218288Y-246381816D01*
X227742866Y-246015496D01*
X227209745Y-245701750D01*
X227194891Y-245694264D01*
X226661019Y-245472556D01*
X226133713Y-245340888D01*
X225626521Y-245297505D01*
X225152992Y-245340650D01*
X224726674Y-245468569D01*
X224361115Y-245679506D01*
X224069866Y-245971706D01*
X223977072Y-246111176D01*
X223799677Y-246529614D01*
X223727224Y-246984275D01*
X215310764Y-246984275D01*
X215213273Y-246829799D01*
X215132630Y-246709950D01*
X215104365Y-246676258D01*
X215025799Y-246679182D01*
X214870708Y-246716472D01*
X214723792Y-246762889D01*
X214429673Y-246844919D01*
X214146329Y-246876067D01*
X213844451Y-246854193D01*
X213494730Y-246777156D01*
X213067857Y-246642815D01*
X213064606Y-246641694D01*
X212142294Y-246297647D01*
X211223059Y-245905213D01*
X210331147Y-245476648D01*
X209490808Y-245024203D01*
X208726289Y-244560132D01*
X208131250Y-244148719D01*
X207622633Y-243733288D01*
X207165420Y-243284904D01*
X206769433Y-242817815D01*
X206444497Y-242346266D01*
X206200436Y-241884504D01*
X206047073Y-241446775D01*
X205994231Y-241049695D01*
X206031600Y-240755503D01*
X206134685Y-240513686D01*
X206289955Y-240354752D01*
X206306706Y-240345192D01*
X206385279Y-240277181D01*
X206382396Y-240229744D01*
X206299055Y-240193969D01*
X206119298Y-240139532D01*
X205866371Y-240072127D01*
X205563521Y-239997449D01*
X205233993Y-239921190D01*
X204901035Y-239849044D01*
X204587892Y-239786704D01*
X204528846Y-239775761D01*
X204154850Y-239712911D01*
X203738286Y-239651894D01*
X203308951Y-239596225D01*
X202896640Y-239549418D01*
X202531149Y-239514990D01*
X202242276Y-239496453D01*
X202142256Y-239494230D01*
X201797453Y-239494230D01*
X201326066Y-239987625D01*
X200904265Y-240498746D01*
X200596115Y-241027885D01*
X200403945Y-241569188D01*
X200330082Y-242116799D01*
X198781011Y-242116799D01*
X198810650Y-241662033D01*
X198933051Y-241124409D01*
X199148824Y-240604848D01*
X199466733Y-240079244D01*
X199650065Y-239828299D01*
X199966831Y-239415013D01*
X199149161Y-239457168D01*
X197415418Y-239596731D01*
X195622813Y-239838693D01*
X193776249Y-240181306D01*
X191880630Y-240622827D01*
X189940860Y-241161507D01*
X187961843Y-241795602D01*
X185948482Y-242523366D01*
X183905681Y-243343052D01*
X181838344Y-244252914D01*
X179751373Y-245251207D01*
X177649674Y-246336184D01*
X175538150Y-247506100D01*
X173987886Y-248416053D01*
X172305431Y-249454251D01*
X170647069Y-250531041D01*
X169022050Y-251639125D01*
X167439627Y-252771200D01*
X165909050Y-253919968D01*
X164439571Y-255078127D01*
X163040440Y-256238379D01*
X161720909Y-257393422D01*
X160490230Y-258535956D01*
X159357652Y-259658682D01*
X158332429Y-260754298D01*
X158284812Y-260807497D01*
X157908572Y-261230247D01*
X157603791Y-261578076D01*
X157359652Y-261866297D01*
X157165334Y-262110223D01*
X157010018Y-262325169D01*
X156882886Y-262526446D01*
X156773118Y-262729369D01*
X156669896Y-262949250D01*
X156562398Y-263201404D01*
X156519054Y-263306730D01*
X155593135Y-265473614D01*
X154571286Y-267689361D01*
X153462033Y-269939587D01*
X152273906Y-272209904D01*
X151015432Y-274485928D01*
X149695139Y-276753273D01*
X148321556Y-278997553D01*
X146903211Y-281204383D01*
X145448631Y-283359377D01*
X143966345Y-285448150D01*
X142464881Y-287456315D01*
X141389031Y-288828846D01*
X139663809Y-290916114D01*
X137913027Y-292897876D01*
X136138783Y-294772285D01*
X134343178Y-296537492D01*
X132528309Y-298191651D01*
X130696277Y-299732912D01*
X128849179Y-301159428D01*
X126989116Y-302469352D01*
X125118186Y-303660835D01*
X123459495Y-304612593D01*
X123167201Y-304773953D01*
X122916905Y-304916430D01*
X122726502Y-305029489D01*
X122613888Y-305102593D01*
X122590866Y-305123991D01*
X122636732Y-305178671D01*
X122752369Y-305276903D01*
X122841684Y-305344951D01*
X123121892Y-305574896D01*
X123372079Y-305837434D01*
X123608097Y-306153806D01*
X123845799Y-306545254D01*
X124100025Y-307030976D01*
X124463036Y-307796337D01*
X124782226Y-308546162D01*
X125068829Y-309311366D01*
X125334078Y-310122861D01*
X125589206Y-311011561D01*
X125703132Y-311442683D01*
X125845706Y-312013301D01*
X125978894Y-312587512D01*
X126104232Y-313175586D01*
X126223259Y-313787794D01*
X126337513Y-314434405D01*
X126448532Y-315125691D01*
X126557853Y-315871921D01*
X126667014Y-316683366D01*
X126777553Y-317570296D01*
X126891008Y-318542981D01*
X127008918Y-319611693D01*
X127132818Y-320786700D01*
X127199163Y-321433653D01*
X127311479Y-322526613D01*
X127415156Y-323509628D01*
X127511727Y-324394443D01*
X127602725Y-325192806D01*
X127689682Y-325916462D01*
X127774132Y-326577156D01*
X127857607Y-327186636D01*
X127941642Y-327756646D01*
X128027768Y-328298933D01*
X128117520Y-328825243D01*
X128212430Y-329347322D01*
X128275001Y-329676442D01*
X128559963Y-331009952D01*
X128889155Y-332293963D01*
X129256905Y-333509189D01*
X129657542Y-334636344D01*
X129931348Y-335309014D01*
X130266246Y-336087500D01*
X129125595Y-336087500D01*
X127984944Y-336087500D01*
X127523278Y-335309014D01*
X127000612Y-334394167D01*
X126551192Y-333530198D01*
X126160089Y-332683498D01*
X125812378Y-331820460D01*
X125493133Y-330907474D01*
X125310591Y-330326843D01*
X125207923Y-329976037D01*
X125113140Y-329623761D01*
X125024569Y-329259542D01*
X124940534Y-328872905D01*
X124859359Y-328453376D01*
X124779370Y-327990480D01*
X124698892Y-327473745D01*
X124616250Y-326892695D01*
X124529768Y-326236856D01*
X124437772Y-325495755D01*
X124338587Y-324658917D01*
X124230537Y-323715868D01*
X124176427Y-323234855D01*
X124041762Y-322048184D01*
X123915678Y-320972334D01*
X123796662Y-319996428D01*
X123683196Y-319109590D01*
X123573767Y-318300943D01*
X123466859Y-317559611D01*
X123360957Y-316874718D01*
X123254545Y-316235387D01*
X123146108Y-315630742D01*
X123040852Y-315083653D01*
X122761690Y-313798433D01*
X122448880Y-312577785D01*
X122105832Y-311431770D01*
X121735956Y-310370449D01*
X121342661Y-309403882D01*
X120929359Y-308542131D01*
X120658343Y-308054362D01*
X120496084Y-307784112D01*
X120346085Y-307546719D01*
X120194199Y-307323393D01*
X120026282Y-307095345D01*
X119828188Y-306843786D01*
X119585770Y-306549926D01*
X119284884Y-306194977D01*
X119068680Y-305942866D01*
X117427235Y-303980760D01*
X115902977Y-302048412D01*
X114495062Y-300144268D01*
X113202642Y-298266775D01*
X112024874Y-296414380D01*
X110960910Y-294585530D01*
X110009906Y-292778672D01*
X109171016Y-290992254D01*
X108443393Y-289224723D01*
X107826194Y-287474525D01*
X107318570Y-285740108D01*
X106919678Y-284019919D01*
X106806372Y-283425240D01*
X106706137Y-282850936D01*
X106625633Y-282343344D01*
X106562814Y-281877262D01*
X106515634Y-281427486D01*
X106482047Y-280968817D01*
X106460005Y-280476050D01*
X106447463Y-279923984D01*
X106442374Y-279287418D01*
X106441982Y-278937500D01*
X106444847Y-278246849D01*
X106454151Y-277644902D01*
X106472027Y-277104361D01*
X106500609Y-276597928D01*
X106542030Y-276098307D01*
X106598422Y-275578198D01*
X106671920Y-275010306D01*
X106764657Y-274367332D01*
X106835641Y-273900240D01*
X106898114Y-273485439D01*
X106902215Y-273457089D01*
X117108104Y-273457089D01*
X117148883Y-274779784D01*
X117246703Y-275814949D01*
X117480113Y-277214254D01*
X117819977Y-278557592D01*
X118264299Y-279841878D01*
X118811081Y-281064025D01*
X119458327Y-282220949D01*
X120204037Y-283309563D01*
X121046215Y-284326783D01*
X121982864Y-285269523D01*
X123011986Y-286134697D01*
X124131583Y-286919219D01*
X124634856Y-287227779D01*
X124982126Y-287434347D01*
X125307825Y-287632100D01*
X125590169Y-287807526D01*
X125807374Y-287947114D01*
X125925938Y-288028546D01*
X125981928Y-288009620D01*
X126122188Y-287953575D01*
X126318842Y-287871618D01*
X126364328Y-287852319D01*
X127940486Y-287126536D01*
X129518296Y-286292379D01*
X131078421Y-285361770D01*
X132601525Y-284346633D01*
X134068272Y-283258892D01*
X134892548Y-282593598D01*
X135509589Y-282056137D01*
X136170504Y-281438406D01*
X136853501Y-280763093D01*
X137536790Y-280052885D01*
X138198578Y-279330471D01*
X138817076Y-278618537D01*
X139370490Y-277939772D01*
X139405504Y-277895017D01*
X139886685Y-277203502D01*
X140318434Y-276434838D01*
X140690758Y-275615016D01*
X140993662Y-274770023D01*
X141217149Y-273925849D01*
X141351227Y-273108481D01*
X141379408Y-272762396D01*
X141410846Y-272174072D01*
X140960717Y-271510714D01*
X140047200Y-270263247D01*
X139058987Y-269100656D01*
X138001691Y-268027274D01*
X136880927Y-267047433D01*
X135702310Y-266165467D01*
X134471454Y-265385707D01*
X133193974Y-264712488D01*
X131875483Y-264150141D01*
X131049799Y-263862231D01*
X130380678Y-263665510D01*
X129615764Y-263470153D01*
X128781333Y-263280967D01*
X127903658Y-263102759D01*
X127009014Y-262940334D01*
X126123675Y-262798500D01*
X125273915Y-262682062D01*
X124486010Y-262595827D01*
X123871635Y-262549131D01*
X123291586Y-262516454D01*
X123688461Y-262639113D01*
X124844669Y-263048122D01*
X125916578Y-263537069D01*
X126918962Y-264114496D01*
X127866592Y-264788946D01*
X128774241Y-265568962D01*
X128805392Y-265598210D01*
X129647014Y-266470768D01*
X130423147Y-267439241D01*
X131124822Y-268491299D01*
X131743074Y-269614609D01*
X131778916Y-269687259D01*
X132139188Y-270462296D01*
X132434769Y-271192852D01*
X132682630Y-271925241D01*
X132899743Y-272705777D01*
X132931164Y-272831730D01*
X133093402Y-273539382D01*
X133212895Y-274184436D01*
X133296437Y-274815780D01*
X133350823Y-275482302D01*
X133376655Y-276037259D01*
X133372613Y-277264770D01*
X133269961Y-278441014D01*
X133065079Y-279591465D01*
X132754350Y-280741595D01*
X132672339Y-280994374D01*
X132564173Y-281332934D01*
X132484134Y-281613635D01*
X132436656Y-281819099D01*
X132426175Y-281931946D01*
X132429990Y-281943866D01*
X132474007Y-282092756D01*
X132483162Y-282311388D01*
X132460914Y-282553557D01*
X132410728Y-282773060D01*
X132358984Y-282891543D01*
X132237517Y-283056542D01*
X132090496Y-283180683D01*
X131903373Y-283266336D01*
X131661600Y-283315869D01*
X131350630Y-283331652D01*
X130955917Y-283316053D01*
X130462912Y-283271440D01*
X130204177Y-283242420D01*
X128928600Y-283037820D01*
X127690806Y-282728639D01*
X126501885Y-282318839D01*
X125372924Y-281812381D01*
X124315011Y-281213227D01*
X124060052Y-281047494D01*
X123014141Y-280277826D01*
X122060584Y-279428777D01*
X121200382Y-278502001D01*
X120434536Y-277499153D01*
X119764047Y-276421887D01*
X119189918Y-275271857D01*
X118713149Y-274050719D01*
X118334741Y-272760128D01*
X118055696Y-271401737D01*
X117998518Y-271030528D01*
X117976052Y-270812559D01*
X117957084Y-270509398D01*
X117941815Y-270142717D01*
X117930442Y-269734192D01*
X117923166Y-269305497D01*
X117920186Y-268878305D01*
X117921700Y-268474291D01*
X117927907Y-268115129D01*
X117933122Y-267977644D01*
X119402700Y-267977644D01*
X119446329Y-269133890D01*
X119570717Y-270348999D01*
X119771703Y-271594083D01*
X120045125Y-272840252D01*
X120174431Y-273334698D01*
X120403155Y-274090258D01*
X120657926Y-274764337D01*
X120956258Y-275393003D01*
X121315663Y-276012326D01*
X121753655Y-276658374D01*
X121857562Y-276801231D01*
X122120107Y-277129867D01*
X122456263Y-277507575D01*
X122841719Y-277910485D01*
X123252164Y-278314721D01*
X123663287Y-278696413D01*
X124050779Y-279031685D01*
X124390329Y-279296665D01*
X124421154Y-279318692D01*
X124894614Y-279626281D01*
X125449094Y-279941914D01*
X126046525Y-280246617D01*
X126648838Y-280521419D01*
X127217964Y-280747348D01*
X127443510Y-280824910D01*
X128097583Y-281018891D01*
X128772513Y-281185458D01*
X129441193Y-281319712D01*
X130076520Y-281416755D01*
X130651388Y-281471688D01*
X131076442Y-281481521D01*
X131534375Y-281471394D01*
X131699969Y-280813111D01*
X131854950Y-280129235D01*
X131967765Y-279463902D01*
X132044255Y-278773635D01*
X132090259Y-278014953D01*
X132095816Y-277865912D01*
X132082921Y-276475183D01*
X131950954Y-275088114D01*
X131702365Y-273716155D01*
X131339602Y-272370756D01*
X130865117Y-271063369D01*
X130437410Y-270114663D01*
X129943562Y-269179733D01*
X129424174Y-268342432D01*
X128861850Y-267578546D01*
X128239190Y-266863861D01*
X127744737Y-266367105D01*
X126943398Y-265676328D01*
X126098715Y-265090282D01*
X125217882Y-264612080D01*
X124308090Y-264244834D01*
X123376532Y-263991658D01*
X122430401Y-263855665D01*
X121887260Y-263831776D01*
X121559805Y-263830474D01*
X121326352Y-263835356D01*
X121158800Y-263850815D01*
X121029048Y-263881247D01*
X120908995Y-263931045D01*
X120770541Y-264004605D01*
X120765982Y-264007129D01*
X120401864Y-264269401D01*
X120096089Y-264622323D01*
X119847529Y-265069176D01*
X119655059Y-265613242D01*
X119517551Y-266257802D01*
X119433879Y-267006136D01*
X119402917Y-267861526D01*
X119402700Y-267977644D01*
X117933122Y-267977644D01*
X117939007Y-267822493D01*
X117955199Y-267618056D01*
X117966549Y-267550240D01*
X117985709Y-267443850D01*
X117965145Y-267446271D01*
X117957307Y-267458653D01*
X117920097Y-267558508D01*
X117864159Y-267755397D01*
X117794915Y-268026650D01*
X117717788Y-268349598D01*
X117638203Y-268701572D01*
X117561583Y-269059902D01*
X117497167Y-269381971D01*
X117283297Y-270731209D01*
X117153259Y-272098573D01*
X117108104Y-273457089D01*
X106902215Y-273457089D01*
X106959232Y-273062961D01*
X107014271Y-272666656D01*
X107058509Y-272330373D01*
X107082696Y-272129567D01*
X107303750Y-270572749D01*
X107621127Y-268970040D01*
X108028762Y-267342096D01*
X108520590Y-265709576D01*
X109090545Y-264093137D01*
X109732563Y-262513435D01*
X110220273Y-261443353D01*
X110805961Y-260281156D01*
X111470188Y-259077854D01*
X112193651Y-257865409D01*
X112957044Y-256675783D01*
X113741064Y-255540939D01*
X113999442Y-255186057D01*
X114517720Y-254483894D01*
X114211450Y-254443914D01*
X113752407Y-254325767D01*
X113301074Y-254100173D01*
X112874948Y-253781404D01*
X112491527Y-253383735D01*
X112168308Y-252921441D01*
X112032896Y-252666664D01*
X111800460Y-252069540D01*
X111647078Y-251431167D01*
X111576307Y-250782404D01*
X111591707Y-250154109D01*
X111682662Y-249629807D01*
X111920804Y-248944885D01*
X112269909Y-248280547D01*
X112719091Y-247649248D01*
X113257469Y-247063446D01*
X113874158Y-246535596D01*
X114558276Y-246078154D01*
X114987740Y-245847016D01*
X115492419Y-245615821D01*
X115945657Y-245451299D01*
X116390160Y-245342349D01*
X116868635Y-245277873D01*
X117277404Y-245251946D01*
X117784351Y-245246267D01*
X118206348Y-245279813D01*
X118576071Y-245359000D01*
X118926198Y-245490248D01*
X119201280Y-245629868D01*
X119546338Y-245866054D01*
X119894383Y-246181255D01*
X120210054Y-246538545D01*
X120457991Y-246901002D01*
X120508939Y-246995367D01*
X120702544Y-247378898D01*
X121433703Y-246687886D01*
X122775520Y-245437824D01*
X124062943Y-244276676D01*
X125310618Y-243192630D01*
X126533190Y-242173873D01*
X127745301Y-241208591D01*
X128961598Y-240284972D01*
X130196724Y-239391204D01*
X131465325Y-238515473D01*
X132047104Y-238126720D01*
X133110691Y-237438648D01*
X134238149Y-236738505D01*
X135409038Y-236037746D01*
X136602916Y-235347826D01*
X137799341Y-234680197D01*
X138977871Y-234046316D01*
X140118066Y-233457636D01*
X141199483Y-232925610D01*
X141975240Y-232563590D01*
X144220378Y-231602409D01*
X146455409Y-230762593D01*
X148681253Y-230043888D01*
X150898833Y-229446043D01*
X153109067Y-228968806D01*
X155312878Y-228611923D01*
X157148077Y-228406014D01*
X157595308Y-228373264D01*
X158131795Y-228345808D01*
X158732436Y-228323966D01*
X159372129Y-228308059D01*
X160025775Y-228298405D01*
X160668272Y-228295325D01*
X161274519Y-228299140D01*
X161819414Y-228310168D01*
X162277856Y-228328731D01*
X162435129Y-228338603D01*
X163112326Y-228387062D01*
X163213531Y-227422738D01*
X163347884Y-226099350D01*
X163462355Y-224875095D01*
X163558545Y-223728894D01*
X163638055Y-222639669D01*
X163702486Y-221586341D01*
X163753441Y-220547832D01*
X163773451Y-220051903D01*
X163806791Y-219223275D01*
X163840815Y-218503114D01*
X163876717Y-217877769D01*
X163915687Y-217333593D01*
X163958920Y-216856938D01*
X164007608Y-216434155D01*
X164062944Y-216051594D01*
X164126120Y-215695609D01*
X164174869Y-215458508D01*
X164425455Y-214540717D01*
X164763442Y-213705675D01*
X165192728Y-212948207D01*
X165717214Y-212263138D01*
X166340798Y-211645292D01*
X167067378Y-211089496D01*
X167802644Y-210643472D01*
X168181027Y-210452455D01*
X168659531Y-210235762D01*
X169220522Y-210000045D01*
X169846362Y-209751955D01*
X170519415Y-209498144D01*
X171222044Y-209245262D01*
X171936613Y-208999962D01*
X172645486Y-208768894D01*
X173328365Y-208559498D01*
X175436755Y-207982969D01*
X177625066Y-207477357D01*
X179896830Y-207042125D01*
X182255578Y-206676737D01*
X184704843Y-206380656D01*
X187248156Y-206153345D01*
X189889048Y-205994266D01*
X190332933Y-205974602D01*
X191132554Y-205946652D01*
X191996805Y-205926857D01*
X192913018Y-205914897D01*
X193868524Y-205910455D01*
X194850655Y-205913209D01*
G37*
G36*
X372146638Y-226853403D02*
G01*
X372256478Y-226868758D01*
X372373628Y-226894832D01*
X372500362Y-226931955D01*
X372516666Y-226937281D01*
X372582342Y-226959566D01*
X372644212Y-226982006D01*
X372703806Y-227005409D01*
X372762653Y-227030583D01*
X372822281Y-227058337D01*
X372884221Y-227089478D01*
X372950000Y-227124816D01*
X373021149Y-227165158D01*
X373099196Y-227211313D01*
X373185671Y-227264089D01*
X373282102Y-227324294D01*
X373390019Y-227392737D01*
X373445833Y-227428423D01*
X373540910Y-227487295D01*
X373632986Y-227540335D01*
X373719994Y-227586479D01*
X373799866Y-227624667D01*
X373870532Y-227653837D01*
X373912500Y-227668047D01*
X373943820Y-227676950D01*
X373971359Y-227683191D01*
X373999375Y-227687251D01*
X374032126Y-227689611D01*
X374073871Y-227690753D01*
X374116666Y-227691112D01*
X374182625Y-227690387D01*
X374235758Y-227687042D01*
X374279807Y-227680268D01*
X374318515Y-227669256D01*
X374355625Y-227653197D01*
X374394878Y-227631281D01*
X374395669Y-227630803D01*
X374421693Y-227616029D01*
X374444489Y-227606396D01*
X374469732Y-227600298D01*
X374503095Y-227596128D01*
X374524835Y-227594246D01*
X374563316Y-227590867D01*
X374598874Y-227587250D01*
X374625890Y-227583985D01*
X374633602Y-227582815D01*
X374668914Y-227583459D01*
X374714480Y-227595096D01*
X374742582Y-227603956D01*
X374763801Y-227607923D01*
X374785086Y-227607306D01*
X374813387Y-227602408D01*
X374825173Y-227599963D01*
X374866237Y-227593666D01*
X374916183Y-227589560D01*
X374970582Y-227587648D01*
X375025003Y-227587929D01*
X375075019Y-227590405D01*
X375116198Y-227595076D01*
X375138258Y-227599909D01*
X375171789Y-227608647D01*
X375199852Y-227611403D01*
X375228992Y-227607978D01*
X375265753Y-227598174D01*
X375273382Y-227595812D01*
X375299538Y-227588300D01*
X375322146Y-227584191D01*
X375346506Y-227583190D01*
X375377921Y-227585004D01*
X375410882Y-227588200D01*
X375451929Y-227593200D01*
X375484966Y-227599545D01*
X375516072Y-227608985D01*
X375551328Y-227623269D01*
X375583333Y-227637833D01*
X375650060Y-227666558D01*
X375709196Y-227686191D01*
X375766177Y-227698034D01*
X375826439Y-227703390D01*
X375859683Y-227704043D01*
X375937067Y-227700723D01*
X376012758Y-227689954D01*
X376089908Y-227670883D01*
X376171670Y-227642662D01*
X376261197Y-227604438D01*
X376304166Y-227584084D01*
X376332087Y-227570271D01*
X376360610Y-227555582D01*
X376391132Y-227539200D01*
X376425048Y-227520306D01*
X376463754Y-227498084D01*
X376508644Y-227471717D01*
X376561114Y-227440387D01*
X376622559Y-227403277D01*
X376694375Y-227359570D01*
X376777957Y-227308449D01*
X376844924Y-227267378D01*
X376965299Y-227195700D01*
X377076592Y-227134266D01*
X377181668Y-227081693D01*
X377283391Y-227036600D01*
X377384624Y-226997606D01*
X377451115Y-226975006D01*
X377599508Y-226932732D01*
X377746415Y-226902030D01*
X377888785Y-226883435D01*
X378008333Y-226877508D01*
X378083819Y-226879055D01*
X378146209Y-226885281D01*
X378198545Y-226896687D01*
X378243866Y-226913775D01*
X378251951Y-226917714D01*
X378287565Y-226944244D01*
X378312964Y-226980429D01*
X378327567Y-227022596D01*
X378330792Y-227067069D01*
X378322057Y-227110172D01*
X378300782Y-227148230D01*
X378290240Y-227159703D01*
X378282611Y-227167214D01*
X378275903Y-227172997D01*
X378268029Y-227177187D01*
X378256903Y-227179914D01*
X378240437Y-227181314D01*
X378216546Y-227181516D01*
X378183141Y-227180655D01*
X378138137Y-227178863D01*
X378079447Y-227176272D01*
X378050000Y-227174969D01*
X377997032Y-227172958D01*
X377956036Y-227172426D01*
X377922360Y-227173635D01*
X377891352Y-227176851D01*
X377858362Y-227182336D01*
X377833694Y-227187235D01*
X377776992Y-227200020D01*
X377722707Y-227214842D01*
X377669404Y-227232479D01*
X377615649Y-227253711D01*
X377560008Y-227279316D01*
X377501045Y-227310073D01*
X377437328Y-227346763D01*
X377367421Y-227390162D01*
X377289890Y-227441051D01*
X377203301Y-227500209D01*
X377106218Y-227568415D01*
X377025000Y-227626449D01*
X376890932Y-227721592D01*
X376768915Y-227805692D01*
X376658672Y-227878923D01*
X376559930Y-227941460D01*
X376472412Y-227993477D01*
X376395842Y-228035150D01*
X376334621Y-228064596D01*
X376313441Y-228074621D01*
X376305533Y-228081310D01*
X376308708Y-228087552D01*
X376314112Y-228091649D01*
X376328586Y-228099090D01*
X376354513Y-228110011D01*
X376387533Y-228122629D01*
X376407234Y-228129682D01*
X376465644Y-228152183D01*
X376509231Y-228174392D01*
X376539726Y-228197924D01*
X376558864Y-228224397D01*
X376568376Y-228255427D01*
X376570238Y-228281756D01*
X376565942Y-228321899D01*
X376551604Y-228355712D01*
X376550519Y-228357493D01*
X376520424Y-228393650D01*
X376476675Y-228428952D01*
X376422265Y-228461749D01*
X376360186Y-228490387D01*
X376293433Y-228513216D01*
X376248267Y-228524299D01*
X376175249Y-228535200D01*
X376104823Y-228536556D01*
X376033365Y-228527911D01*
X375957248Y-228508809D01*
X375872848Y-228478796D01*
X375866666Y-228476327D01*
X375824131Y-228459120D01*
X375794645Y-228447903D01*
X375775557Y-228443067D01*
X375764218Y-228445004D01*
X375757977Y-228454105D01*
X375754187Y-228470761D01*
X375750520Y-228493475D01*
X375739684Y-228549384D01*
X375726125Y-228603735D01*
X375708921Y-228658865D01*
X375687152Y-228717112D01*
X375659899Y-228780812D01*
X375626241Y-228852303D01*
X375585258Y-228933921D01*
X375551767Y-228998238D01*
X375507711Y-229084195D01*
X375472295Y-229158689D01*
X375444644Y-229223940D01*
X375423884Y-229282167D01*
X375409138Y-229335591D01*
X375400037Y-229383020D01*
X375395218Y-229422661D01*
X375394080Y-229458593D01*
X375397187Y-229494556D01*
X375405102Y-229534293D01*
X375418389Y-229581545D01*
X375437611Y-229640056D01*
X375439593Y-229645833D01*
X375460231Y-229709959D01*
X375473353Y-229762181D01*
X375479084Y-229805405D01*
X375477553Y-229842539D01*
X375468885Y-229876487D01*
X375453208Y-229910158D01*
X375451269Y-229913606D01*
X375433106Y-229952768D01*
X375419049Y-229996339D01*
X375415319Y-230013606D01*
X375398323Y-230077071D01*
X375369625Y-230132791D01*
X375326900Y-230185150D01*
X375321406Y-230190731D01*
X375261656Y-230238879D01*
X375191428Y-230275037D01*
X375112212Y-230298809D01*
X375025502Y-230309800D01*
X374932787Y-230307616D01*
X374896157Y-230303230D01*
X374807922Y-230284300D01*
X374726304Y-230254758D01*
X374654290Y-230215897D01*
X374602092Y-230175806D01*
X374562344Y-230133694D01*
X374536524Y-230091212D01*
X374522370Y-230044045D01*
X374518952Y-230017269D01*
X374512060Y-229976258D01*
X374496964Y-229936139D01*
X374484742Y-229912500D01*
X374465169Y-229869683D01*
X374455913Y-229827996D01*
X374456958Y-229783653D01*
X374468293Y-229732867D01*
X374483927Y-229687241D01*
X374505393Y-229630311D01*
X374521592Y-229586099D01*
X374533267Y-229551779D01*
X374541161Y-229524523D01*
X374546019Y-229501505D01*
X374548582Y-229479898D01*
X374549595Y-229456875D01*
X374549784Y-229436749D01*
X374548711Y-229394972D01*
X374544699Y-229355429D01*
X374536955Y-229315652D01*
X374524684Y-229273173D01*
X374507094Y-229225524D01*
X374483391Y-229170236D01*
X374452781Y-229104843D01*
X374424389Y-229046826D01*
X374381014Y-228958125D01*
X374344960Y-228881407D01*
X374315307Y-228814169D01*
X374291132Y-228753909D01*
X374271513Y-228698124D01*
X374255531Y-228644311D01*
X374242262Y-228589968D01*
X374230786Y-228532592D01*
X374226865Y-228510416D01*
X374220189Y-228476084D01*
X374213423Y-228448930D01*
X374207528Y-228432468D01*
X374204627Y-228429166D01*
X374194267Y-228431755D01*
X374171047Y-228438902D01*
X374137846Y-228449682D01*
X374097543Y-228463165D01*
X374071087Y-228472189D01*
X373992437Y-228496976D01*
X373924491Y-228513072D01*
X373863922Y-228520789D01*
X373807405Y-228520435D01*
X373751616Y-228512320D01*
X373720637Y-228504825D01*
X373646778Y-228480773D01*
X373580493Y-228451310D01*
X373523332Y-228417627D01*
X373476845Y-228380914D01*
X373442583Y-228342362D01*
X373422097Y-228303162D01*
X373416666Y-228271389D01*
X373421612Y-228233910D01*
X373437312Y-228201371D01*
X373465059Y-228172623D01*
X373506147Y-228146518D01*
X373561871Y-228121907D01*
X373600554Y-228108148D01*
X373636429Y-228095937D01*
X373665654Y-228085499D01*
X373685099Y-228077987D01*
X373691666Y-228074621D01*
X373684935Y-228067829D01*
X373666764Y-228054699D01*
X373640185Y-228037162D01*
X373608232Y-228017145D01*
X373573936Y-227996577D01*
X373540331Y-227977386D01*
X373529166Y-227971283D01*
X373467835Y-227936082D01*
X373395719Y-227890744D01*
X373312512Y-227835058D01*
X373217903Y-227768812D01*
X373111584Y-227691794D01*
X372993246Y-227603792D01*
X372988424Y-227600165D01*
X372902547Y-227535829D01*
X372828124Y-227480761D01*
X372763548Y-227433884D01*
X372707207Y-227394117D01*
X372657490Y-227360384D01*
X372612789Y-227331605D01*
X372571493Y-227306702D01*
X372531991Y-227284596D01*
X372492673Y-227264209D01*
X372470833Y-227253478D01*
X372393332Y-227217582D01*
X372324145Y-227189475D01*
X372259240Y-227168235D01*
X372194589Y-227152937D01*
X372126160Y-227142659D01*
X372049926Y-227136478D01*
X371961855Y-227133471D01*
X371945833Y-227133214D01*
X371876596Y-227131885D01*
X371821955Y-227129705D01*
X371779842Y-227126156D01*
X371748189Y-227120721D01*
X371724929Y-227112878D01*
X371707994Y-227102111D01*
X371695316Y-227087900D01*
X371684827Y-227069726D01*
X371683712Y-227067449D01*
X371669525Y-227027720D01*
X371669027Y-226991391D01*
X371682196Y-226952378D01*
X371683334Y-226949998D01*
X371698443Y-226925642D01*
X371719044Y-226905911D01*
X371747137Y-226890052D01*
X371784723Y-226877312D01*
X371833804Y-226866938D01*
X371896381Y-226858178D01*
X371939784Y-226853527D01*
X372041832Y-226848436D01*
X372146638Y-226853403D01*
G37*
D13*
%TO.C,SW83*%
X401293750Y-234156250D02*
X403693750Y-234156250D01*
X401293750Y-238256250D02*
X401293750Y-234156250D01*
X401293750Y-242256250D02*
X401293750Y-246356250D01*
X401293750Y-246356250D02*
X413093750Y-246356250D01*
X403093750Y-247456250D02*
X403393750Y-247756250D01*
X403093750Y-248056250D02*
X403093750Y-247456250D01*
X403393750Y-247756250D02*
X403093750Y-248056250D01*
X405893750Y-234156250D02*
X408493750Y-234156250D01*
X406693750Y-240256250D02*
X407693750Y-240256250D01*
X407193750Y-240756250D02*
X407193750Y-239756250D01*
X410693750Y-234156250D02*
X413093750Y-234156250D01*
X413093750Y-234156250D02*
X413093750Y-238256250D01*
X413093750Y-242256250D02*
X413093750Y-246356250D01*
X410193750Y-240256250D02*
G75*
G02*
X404193750Y-240256250I-3000000J0D01*
G01*
X404193750Y-240256250D02*
G75*
G02*
X410193750Y-240256250I3000000J0D01*
G01*
%TO.C,A1*%
X420030000Y-228782500D02*
X420030000Y-227182500D01*
X420350000Y-227112500D02*
X420350000Y-277112500D01*
X420690000Y-226565500D02*
X420690000Y-277659500D01*
X420960000Y-226502500D02*
X423450000Y-226502500D01*
X420960000Y-277722500D02*
X424797939Y-277722500D01*
X423450000Y-226502500D02*
X423450000Y-227416020D01*
X423450000Y-226502500D02*
X424797940Y-226502500D01*
X423450000Y-229808980D02*
X423450000Y-274416020D01*
X423450000Y-276808980D02*
X423450000Y-277722500D01*
X425722061Y-226502500D02*
X426725000Y-226502500D01*
X426725000Y-226502500D02*
X435195000Y-226502500D01*
X426850000Y-225202500D02*
X426850000Y-226022500D01*
X426850000Y-225202500D02*
X435070000Y-225202500D01*
X426850000Y-226022500D02*
X427060000Y-226022500D01*
X427060000Y-226022500D02*
X427060000Y-227418500D01*
X427060000Y-229806500D02*
X427060000Y-231022500D01*
X427360000Y-277722500D02*
X425722061Y-277722500D01*
X434560000Y-277722500D02*
X427360000Y-277722500D01*
X434860000Y-226022500D02*
X434860000Y-227418500D01*
X434860000Y-229806500D02*
X434860000Y-231022500D01*
X434860000Y-231022500D02*
X427060000Y-231022500D01*
X435070000Y-225202500D02*
X435070000Y-226022500D01*
X435070000Y-226022500D02*
X434860000Y-226022500D01*
X435195000Y-226502500D02*
X436197939Y-226502500D01*
X436197939Y-277722500D02*
X434560000Y-277722500D01*
X437122061Y-226502500D02*
X438470000Y-226502500D01*
X437122061Y-277722500D02*
X440960000Y-277722500D01*
X438470000Y-226502500D02*
X438470000Y-227416020D01*
X438470000Y-229808980D02*
X438470000Y-274416020D01*
X438470000Y-276808980D02*
X438470000Y-277722500D01*
X440960000Y-226502500D02*
X438470000Y-226502500D01*
X441230000Y-277659500D02*
X441230000Y-226565500D01*
X441570000Y-227112500D02*
X441570000Y-277112500D01*
X420350000Y-227112500D02*
G75*
G02*
X420960000Y-226502500I610000J0D01*
G01*
X420960000Y-277722500D02*
G75*
G02*
X420350000Y-277112500I-99J609901D01*
G01*
X440960000Y-226502500D02*
G75*
G02*
X441570000Y-227112500I0J-610000D01*
G01*
X441570000Y-277112500D02*
G75*
G02*
X440960000Y-277722500I-610000J0D01*
G01*
%TD*%
M02*
