M48
; DRILL file {KiCad 9.0.2} date 2025-07-27T20:57:57-0500
; FORMAT={-:-/ absolute / inch / decimal}
; #@! TF.CreationDate,2025-07-27T20:57:57-05:00
; #@! TF.GenerationSoftware,Kicad,Pcbnew,9.0.2
; #@! TF.FileFunction,Plated,1,2,PTH
FMAT,2
INCH
; #@! TA.AperFunction,Plated,PTH,ViaDrill
T1C0.0118
; #@! TA.AperFunction,Plated,PTH,ComponentDrill
T2C0.0315
; #@! TA.AperFunction,Plated,PTH,ComponentDrill
T3C0.0394
; #@! TA.AperFunction,Plated,PTH,ComponentDrill
T4C0.0591
; #@! TA.AperFunction,Plated,PTH,ComponentDrill
T5C0.1181
; #@! TA.AperFunction,Plated,PTH,ComponentDrill
T6C0.1260
%
G90
G05
T1
X4.3125Y-10.3125
X4.3125Y-12.4803
X4.9213Y-12.0472
X4.9688Y-9.75
X5.0625Y-12.75
X5.1562Y-10.5
X5.25Y-11.25
X5.4375Y-12.0
X5.6693Y-10.1969
X5.7188Y-9.75
X6.0Y-12.75
X6.0938Y-10.5
X6.2812Y-11.25
X6.3386Y-11.6142
X6.4688Y-9.75
X6.6562Y-12.0
X6.8438Y-10.5
X6.9375Y-12.75
X7.0312Y-11.25
X7.2188Y-9.75
X7.4062Y-12.0
X7.4803Y-11.6929
X7.5938Y-10.5
X7.7812Y-11.25
X7.9688Y-9.75
X8.1562Y-12.0
X8.3438Y-10.5
X8.5312Y-11.25
X8.7188Y-9.75
X8.9062Y-12.0
X9.0938Y-10.5
X9.2812Y-11.25
X9.4688Y-9.75
X9.6161Y-10.9055
X9.6562Y-12.0
X9.75Y-12.75
X9.813Y-9.4094
X9.8438Y-10.5
X10.0312Y-11.25
X10.2188Y-9.75
X10.4062Y-12.0
X10.5938Y-10.5
X10.7812Y-11.25
X10.9688Y-9.75
X11.1562Y-12.0
X11.3438Y-10.5
X11.5312Y-11.25
X11.7188Y-9.75
X11.7717Y-12.1949
X11.9062Y-12.0
X12.0938Y-10.5
X12.2812Y-11.25
X12.4688Y-9.75
X12.4688Y-12.75
X12.5984Y-10.8661
X12.6562Y-12.0
X12.8438Y-10.5
X13.0312Y-11.25
X13.2188Y-9.75
X13.2188Y-12.75
X13.4062Y-12.0
X13.5938Y-10.5
X13.7812Y-11.25
X13.9688Y-9.75
X13.9688Y-12.75
X14.3438Y-10.5
X14.4375Y-12.0
X14.6457Y-9.4291
X14.7188Y-12.75
X14.8031Y-11.5748
X15.0Y-11.25
X15.0938Y-9.75
X15.2756Y-9.7047
X15.2812Y-10.5
X15.4688Y-12.0
X15.4688Y-12.75
X15.5059Y-9.7047
X15.8438Y-9.8438
X16.1041Y-9.2576
X16.1091Y-9.3049
X16.125Y-9.8438
X16.1415Y-9.3585
X16.1611Y-9.7042
X16.1811Y-9.3307
X16.2084Y-10.5701
X16.2084Y-11.3201
X16.2084Y-12.0701
X16.212Y-9.2605
X16.2188Y-9.75
X16.2188Y-9.8201
X16.2188Y-10.5
X16.2188Y-11.25
X16.2188Y-12.0
X16.2188Y-12.75
X16.3125Y-11.3438
X16.3125Y-12.0938
X16.4062Y-11.0625
X16.5933Y-11.1562
X16.5933Y-11.3438
X16.5933Y-12.0938
X16.5933Y-12.75
X16.6875Y-11.1562
X16.6875Y-11.3438
X16.6875Y-12.0938
X16.6875Y-12.75
X16.875Y-10.5512
X16.9355Y-10.4395
T2
X4.3865Y-9.4972
X4.3865Y-9.7972
X4.4803Y-12.4688
X4.4803Y-12.7687
X4.5276Y-11.602
X4.5276Y-11.902
X4.574Y-10.2472
X4.574Y-10.5472
X4.6678Y-10.9972
X4.6678Y-11.2972
X5.1365Y-9.4972
X5.1365Y-9.7972
X5.4178Y-12.4688
X5.4178Y-12.7687
X5.5115Y-10.2472
X5.5115Y-10.5472
X5.699Y-10.9972
X5.699Y-11.2972
X5.8865Y-9.4972
X5.8865Y-9.7972
X6.074Y-11.7472
X6.074Y-12.0472
X6.2615Y-10.2472
X6.2615Y-10.5472
X6.3553Y-12.4688
X6.3553Y-12.7687
X6.449Y-10.9972
X6.449Y-11.2972
X6.6365Y-9.4972
X6.6365Y-9.7972
X6.824Y-11.7472
X6.824Y-12.0472
X7.0115Y-10.2472
X7.0115Y-10.5472
X7.199Y-10.9972
X7.199Y-11.2972
X7.3865Y-9.4972
X7.3865Y-9.7972
X7.574Y-11.7472
X7.574Y-12.0472
X7.7615Y-10.2472
X7.7615Y-10.5472
X7.949Y-10.9972
X7.949Y-11.2972
X8.1365Y-9.4972
X8.1365Y-9.7972
X8.324Y-11.7472
X8.324Y-12.0472
X8.5115Y-10.2472
X8.5115Y-10.5472
X8.699Y-10.9972
X8.699Y-11.2972
X8.8865Y-9.4972
X8.8865Y-9.7972
X9.074Y-11.7472
X9.074Y-12.0472
X9.1678Y-12.4688
X9.1678Y-12.7687
X9.2615Y-10.2472
X9.2615Y-10.5472
X9.449Y-10.9972
X9.449Y-11.2972
X9.6365Y-9.4972
X9.6365Y-9.7972
X9.824Y-11.7472
X9.824Y-12.0472
X10.0115Y-10.2472
X10.0115Y-10.5472
X10.199Y-10.9972
X10.199Y-11.2972
X10.3865Y-9.4972
X10.3865Y-9.7972
X10.574Y-11.7472
X10.574Y-12.0472
X10.7615Y-10.2472
X10.7615Y-10.5472
X10.949Y-10.9972
X10.949Y-11.2972
X11.1365Y-9.4972
X11.1365Y-9.7972
X11.324Y-11.7472
X11.324Y-12.0472
X11.5115Y-10.2472
X11.5115Y-10.5472
X11.699Y-10.9972
X11.699Y-11.2972
X11.8865Y-9.4972
X11.8865Y-9.7972
X11.8865Y-12.4688
X11.8865Y-12.7687
X12.074Y-11.7472
X12.074Y-12.0472
X12.2615Y-10.2472
X12.2615Y-10.5472
X12.449Y-10.9972
X12.449Y-11.2972
X12.6365Y-9.4972
X12.6365Y-9.7972
X12.6365Y-12.4688
X12.6365Y-12.7687
X12.824Y-11.7472
X12.824Y-12.0472
X13.0115Y-10.2472
X13.0115Y-10.5472
X13.199Y-10.9972
X13.199Y-11.2972
X13.3865Y-9.4972
X13.3865Y-9.7972
X13.3865Y-12.4688
X13.3865Y-12.7687
X13.7615Y-10.2472
X13.7615Y-10.5472
X13.8553Y-11.7472
X13.8553Y-12.0472
X14.1339Y-10.9917
X14.1339Y-11.2917
X14.1365Y-12.4688
X14.1365Y-12.7687
X14.2323Y-9.4957
X14.2323Y-9.7957
X14.699Y-10.2472
X14.699Y-10.5472
X14.8865Y-11.7472
X14.8865Y-12.0472
X14.8865Y-12.4688
X14.8865Y-12.7687
X15.6365Y-10.2472
X15.6365Y-10.5472
X15.6365Y-10.9972
X15.6365Y-11.2972
X15.6365Y-11.7472
X15.6365Y-12.0472
X15.6365Y-12.4688
X15.6365Y-12.7687
T3
X15.9328Y-9.1833
X15.9328Y-9.7542
X16.0312Y-9.7542
X16.1297Y-9.1833
X16.1297Y-9.7542
X16.6169Y-8.9757
X16.6169Y-9.0757
X16.6169Y-9.1757
X16.6169Y-9.2757
X16.6169Y-9.3757
X16.6169Y-9.4757
X16.6169Y-9.5757
X16.6169Y-9.6757
X16.6169Y-9.7757
X16.6169Y-9.8757
X16.6169Y-9.9757
X16.6169Y-10.0757
X16.6169Y-10.1757
X16.6169Y-10.2757
X16.6169Y-10.3757
X16.6169Y-10.4757
X16.6169Y-10.5757
X16.6169Y-10.6757
X16.6169Y-10.7757
X16.6169Y-10.8757
X17.3169Y-8.9757
X17.3169Y-9.0757
X17.3169Y-9.1757
X17.3169Y-9.2757
X17.3169Y-9.3757
X17.3169Y-9.4757
X17.3169Y-9.5757
X17.3169Y-9.6757
X17.3169Y-9.7757
X17.3169Y-9.8757
X17.3169Y-9.9757
X17.3169Y-10.0757
X17.3169Y-10.1757
X17.3169Y-10.2757
X17.3169Y-10.3757
X17.3169Y-10.4757
X17.3169Y-10.5757
X17.3169Y-10.6757
X17.3169Y-10.7757
X17.3169Y-10.8757
T5
X4.6592Y-9.2399
X4.7529Y-12.2399
X4.8467Y-9.9899
X4.9347Y-9.2812
X4.9404Y-10.7399
X5.0285Y-12.2812
X5.1222Y-10.0312
X5.1279Y-11.4899
X5.216Y-10.7812
X5.4035Y-11.5312
X5.4092Y-9.2399
X5.6847Y-9.2812
X5.6904Y-12.2399
X5.7842Y-9.9899
X5.966Y-12.2812
X5.9717Y-10.7399
X6.0597Y-10.0312
X6.1592Y-9.2399
X6.2472Y-10.7812
X6.3467Y-11.4899
X6.4347Y-9.2812
X6.5342Y-9.9899
X6.6222Y-11.5312
X6.6279Y-12.2399
X6.7217Y-10.7399
X6.8097Y-10.0312
X6.9035Y-12.2812
X6.9092Y-9.2399
X6.9972Y-10.7812
X7.0967Y-11.4899
X7.1847Y-9.2812
X7.2842Y-9.9899
X7.3722Y-11.5312
X7.4717Y-10.7399
X7.5597Y-10.0312
X7.6592Y-9.2399
X7.7472Y-10.7812
X7.8467Y-11.4899
X7.9347Y-9.2812
X8.0342Y-9.9899
X8.1222Y-11.5312
X8.2217Y-10.7399
X8.3097Y-10.0312
X8.4092Y-9.2399
X8.4972Y-10.7812
X8.5967Y-11.4899
X8.6847Y-9.2812
X8.7842Y-9.9899
X8.8722Y-11.5312
X8.9717Y-10.7399
X9.0597Y-10.0312
X9.1592Y-9.2399
X9.2472Y-10.7812
X9.3467Y-11.4899
X9.4347Y-9.2812
X9.4404Y-12.2399
X9.5342Y-9.9899
X9.6222Y-11.5312
X9.716Y-12.2812
X9.7217Y-10.7399
X9.8097Y-10.0312
X9.9092Y-9.2399
X9.9972Y-10.7812
X10.0967Y-11.4899
X10.1847Y-9.2812
X10.2842Y-9.9899
X10.3722Y-11.5312
X10.4717Y-10.7399
X10.5597Y-10.0312
X10.6592Y-9.2399
X10.7472Y-10.7812
X10.8467Y-11.4899
X10.9347Y-9.2812
X11.0342Y-9.9899
X11.1222Y-11.5312
X11.2217Y-10.7399
X11.3097Y-10.0312
X11.4092Y-9.2399
X11.4972Y-10.7812
X11.5967Y-11.4899
X11.6847Y-9.2812
X11.7842Y-9.9899
X11.8722Y-11.5312
X11.9717Y-10.7399
X12.0597Y-10.0312
X12.1592Y-9.2399
X12.1592Y-12.2399
X12.2472Y-10.7812
X12.3467Y-11.4899
X12.4347Y-9.2812
X12.4347Y-12.2812
X12.5342Y-9.9899
X12.6222Y-11.5312
X12.7217Y-10.7399
X12.8097Y-10.0312
X12.9092Y-9.2399
X12.9092Y-12.2399
X12.9972Y-10.7812
X13.0967Y-11.4899
X13.1847Y-9.2812
X13.1847Y-12.2812
X13.2842Y-9.9899
X13.3722Y-11.5312
X13.4717Y-10.7399
X13.5597Y-10.0312
X13.6592Y-9.2399
X13.6592Y-12.2399
X13.7472Y-10.7812
X13.9347Y-9.2812
X13.9347Y-12.2812
X14.0342Y-9.9899
X14.1279Y-11.4899
X14.3097Y-10.0312
X14.4035Y-11.5312
X14.4092Y-12.2399
X14.6847Y-12.2812
X14.6904Y-10.7399
X14.7842Y-9.2399
X14.966Y-10.7812
X14.9717Y-9.9899
X15.0597Y-9.2812
X15.1592Y-11.4899
X15.1592Y-12.2399
X15.2472Y-10.0312
X15.4347Y-11.5312
X15.4347Y-12.2812
X15.9092Y-9.9899
X15.9092Y-10.7399
X15.9092Y-11.4899
X15.9092Y-12.2399
X16.1847Y-10.0312
X16.1847Y-10.7812
X16.1847Y-11.5312
X16.1847Y-12.2812
T6
X4.1732Y-9.0945
X4.1732Y-12.6772
X17.5591Y-9.0945
X17.5591Y-12.6772
T4
G00X15.8108Y-9.4845
M15
G01X15.8108Y-9.4333
M16
G05
G00X16.2517Y-9.4845
M15
G01X16.2517Y-9.4333
M16
G05
M30
