%TF.GenerationSoftware,KiCad,Pcbnew,9.0.2*%
%TF.CreationDate,2025-07-27T20:58:09-05:00*%
%TF.ProjectId,modern-keyboard,6d6f6465-726e-42d6-9b65-79626f617264,rev?*%
%TF.SameCoordinates,Original*%
%TF.FileFunction,Soldermask,Bot*%
%TF.FilePolarity,Negative*%
%FSLAX46Y46*%
G04 Gerber Fmt 4.6, Leading zero omitted, Abs format (unit mm)*
G04 Created by KiCad (PCBNEW 9.0.2) date 2025-07-27 20:58:09*
%MOMM*%
%LPD*%
G01*
G04 APERTURE LIST*
G04 Aperture macros list*
%AMRoundRect*
0 Rectangle with rounded corners*
0 $1 Rounding radius*
0 $2 $3 $4 $5 $6 $7 $8 $9 X,Y pos of 4 corners*
0 Add a 4 corners polygon primitive as box body*
4,1,4,$2,$3,$4,$5,$6,$7,$8,$9,$2,$3,0*
0 Add four circle primitives for the rounded corners*
1,1,$1+$1,$2,$3*
1,1,$1+$1,$4,$5*
1,1,$1+$1,$6,$7*
1,1,$1+$1,$8,$9*
0 Add four rect primitives between the rounded corners*
20,1,$1+$1,$2,$3,$4,$5,0*
20,1,$1+$1,$4,$5,$6,$7,0*
20,1,$1+$1,$6,$7,$8,$9,0*
20,1,$1+$1,$8,$9,$2,$3,0*%
%AMFreePoly0*
4,1,37,0.603843,0.796157,0.639018,0.796157,0.711114,0.766294,0.766294,0.711114,0.796157,0.639018,0.796157,0.603843,0.800000,0.600000,0.800000,-0.600000,0.796157,-0.603843,0.796157,-0.639018,0.766294,-0.711114,0.711114,-0.766294,0.639018,-0.796157,0.603843,-0.796157,0.600000,-0.800000,0.000000,-0.800000,0.000000,-0.796148,-0.078414,-0.796148,-0.232228,-0.765552,-0.377117,-0.705537,
-0.507515,-0.618408,-0.618408,-0.507515,-0.705537,-0.377117,-0.765552,-0.232228,-0.796148,-0.078414,-0.796148,0.078414,-0.765552,0.232228,-0.705537,0.377117,-0.618408,0.507515,-0.507515,0.618408,-0.377117,0.705537,-0.232228,0.765552,-0.078414,0.796148,0.000000,0.796148,0.000000,0.800000,0.600000,0.800000,0.603843,0.796157,0.603843,0.796157,$1*%
%AMFreePoly1*
4,1,37,0.000000,0.796148,0.078414,0.796148,0.232228,0.765552,0.377117,0.705537,0.507515,0.618408,0.618408,0.507515,0.705537,0.377117,0.765552,0.232228,0.796148,0.078414,0.796148,-0.078414,0.765552,-0.232228,0.705537,-0.377117,0.618408,-0.507515,0.507515,-0.618408,0.377117,-0.705537,0.232228,-0.765552,0.078414,-0.796148,0.000000,-0.796148,0.000000,-0.800000,-0.600000,-0.800000,
-0.603843,-0.796157,-0.639018,-0.796157,-0.711114,-0.766294,-0.766294,-0.711114,-0.796157,-0.639018,-0.796157,-0.603843,-0.800000,-0.600000,-0.800000,0.600000,-0.796157,0.603843,-0.796157,0.639018,-0.766294,0.711114,-0.711114,0.766294,-0.639018,0.796157,-0.603843,0.796157,-0.600000,0.800000,0.000000,0.800000,0.000000,0.796148,0.000000,0.796148,$1*%
%AMFreePoly2*
4,1,18,-0.410000,0.593000,-0.403758,0.624380,-0.385983,0.650983,-0.359380,0.668758,-0.328000,0.675000,0.328000,0.675000,0.359380,0.668758,0.385983,0.650983,0.403758,0.624380,0.410000,0.593000,0.410000,-0.593000,0.403758,-0.624380,0.385983,-0.650983,0.359380,-0.668758,0.328000,-0.675000,0.000000,-0.675000,-0.410000,-0.265000,-0.410000,0.593000,-0.410000,0.593000,$1*%
G04 Aperture macros list end*
%ADD10C,3.048000*%
%ADD11C,3.987800*%
%ADD12C,2.200000*%
%ADD13C,3.600000*%
%ADD14C,5.600000*%
%ADD15R,2.000000X2.000000*%
%ADD16C,2.000000*%
%ADD17R,2.000000X3.200000*%
%ADD18RoundRect,0.200000X-0.600000X-0.600000X0.600000X-0.600000X0.600000X0.600000X-0.600000X0.600000X0*%
%ADD19C,1.600000*%
%ADD20FreePoly0,0.000000*%
%ADD21FreePoly1,0.000000*%
%ADD22RoundRect,0.250000X0.550000X-0.550000X0.550000X0.550000X-0.550000X0.550000X-0.550000X-0.550000X0*%
%ADD23C,5.250000*%
%ADD24C,3.300000*%
%ADD25RoundRect,0.255000X-1.070000X-1.020000X1.070000X-1.020000X1.070000X1.020000X-1.070000X1.020000X0*%
%ADD26RoundRect,0.082000X-0.593000X0.328000X-0.593000X-0.328000X0.593000X-0.328000X0.593000X0.328000X0*%
%ADD27FreePoly2,270.000000*%
%ADD28RoundRect,0.250000X-0.475000X0.337500X-0.475000X-0.337500X0.475000X-0.337500X0.475000X0.337500X0*%
G04 APERTURE END LIST*
D10*
%TO.C,REF\u002A\u002A*%
X192380000Y-309658750D03*
D11*
X192380000Y-324898750D03*
D10*
X292392500Y-309658750D03*
D11*
X292392500Y-324898750D03*
%TD*%
D12*
%TO.C,REF\u002A\u002A*%
X240005000Y-269018750D03*
%TD*%
D13*
%TO.C,REF\u002A\u002A*%
X106000000Y-231000000D03*
D14*
X106000000Y-231000000D03*
%TD*%
D12*
%TO.C,REF\u002A\u002A*%
X192380000Y-288068750D03*
%TD*%
D15*
%TO.C,SW83*%
X404693750Y-247756250D03*
D16*
X409693750Y-247756250D03*
X407193750Y-247756250D03*
D17*
X401593750Y-240256250D03*
X412793750Y-240256250D03*
D16*
X409693750Y-233256250D03*
X404693750Y-233256250D03*
%TD*%
D12*
%TO.C,REF\u002A\u002A*%
X213811250Y-316643750D03*
%TD*%
%TO.C,REF\u002A\u002A*%
X287630000Y-288068750D03*
%TD*%
%TO.C,REF\u002A\u002A*%
X270961250Y-316643750D03*
%TD*%
D18*
%TO.C,A1*%
X422070000Y-227982500D03*
D19*
X422070000Y-230522500D03*
D20*
X422070000Y-233062500D03*
D19*
X422070000Y-235602500D03*
X422070000Y-238142500D03*
X422070000Y-240682500D03*
X422070000Y-243222500D03*
D20*
X422070000Y-245762500D03*
D19*
X422070000Y-248302500D03*
X422070000Y-250842500D03*
X422070000Y-253382500D03*
X422070000Y-255922500D03*
D20*
X422070000Y-258462500D03*
D19*
X422070000Y-261002500D03*
X422070000Y-263542500D03*
X422070000Y-266082500D03*
X422070000Y-268622500D03*
D20*
X422070000Y-271162500D03*
D19*
X422070000Y-273702500D03*
X422070000Y-276242500D03*
X439850000Y-276242500D03*
X439850000Y-273702500D03*
D21*
X439850000Y-271162500D03*
D19*
X439850000Y-268622500D03*
X439850000Y-266082500D03*
X439850000Y-263542500D03*
X439850000Y-261002500D03*
D21*
X439850000Y-258462500D03*
D19*
X439850000Y-255922500D03*
X439850000Y-253382500D03*
X439850000Y-250842500D03*
X439850000Y-248302500D03*
D21*
X439850000Y-245762500D03*
D19*
X439850000Y-243222500D03*
X439850000Y-240682500D03*
X439850000Y-238142500D03*
X439850000Y-235602500D03*
D21*
X439850000Y-233062500D03*
D19*
X439850000Y-230522500D03*
X439850000Y-227982500D03*
%TD*%
D12*
%TO.C,REF\u002A\u002A*%
X354305000Y-269081250D03*
%TD*%
D13*
%TO.C,REF\u002A\u002A*%
X446000000Y-231000000D03*
D14*
X446000000Y-231000000D03*
%TD*%
D10*
%TO.C,REF\u002A\u002A*%
X366211250Y-233458750D03*
D11*
X366211250Y-248698750D03*
D10*
X390023750Y-233458750D03*
D11*
X390023750Y-248698750D03*
%TD*%
D10*
%TO.C,REF\u002A\u002A*%
X363830000Y-271558750D03*
D11*
X363830000Y-286798750D03*
D10*
X387642500Y-271558750D03*
D11*
X387642500Y-286798750D03*
%TD*%
D13*
%TO.C,REF\u002A\u002A*%
X446000000Y-322000000D03*
D14*
X446000000Y-322000000D03*
%TD*%
D12*
%TO.C,REF\u002A\u002A*%
X292392500Y-249968750D03*
%TD*%
D13*
%TO.C,REF\u002A\u002A*%
X106000000Y-322000000D03*
D14*
X106000000Y-322000000D03*
%TD*%
D12*
%TO.C,REF\u002A\u002A*%
X197142500Y-249968750D03*
%TD*%
D10*
%TO.C,REF\u002A\u002A*%
X120942500Y-290608750D03*
D11*
X120942500Y-305848750D03*
D10*
X144755000Y-290608750D03*
D11*
X144755000Y-305848750D03*
%TD*%
D12*
%TO.C,REF\u002A\u002A*%
X144755000Y-269081250D03*
%TD*%
D22*
%TO.C,D27*%
X349542500Y-267900000D03*
D19*
X349542500Y-260280000D03*
%TD*%
D23*
%TO.C,SW36*%
X249530000Y-278543750D03*
D24*
X253930000Y-273843750D03*
D25*
X257175000Y-273843750D03*
X243685000Y-272793750D03*
D24*
X246930000Y-272793750D03*
%TD*%
D23*
%TO.C,SW6*%
X216192500Y-240443750D03*
D24*
X220592500Y-235743750D03*
D25*
X223837500Y-235743750D03*
X210347500Y-234693750D03*
D24*
X213592500Y-234693750D03*
%TD*%
D23*
%TO.C,SW42*%
X375736250Y-278543750D03*
D24*
X380136250Y-273843750D03*
D25*
X383381250Y-273843750D03*
X369891250Y-272793750D03*
D24*
X373136250Y-272793750D03*
%TD*%
D22*
%TO.C,D5*%
X187617500Y-248850000D03*
D19*
X187617500Y-241230000D03*
%TD*%
D22*
%TO.C,D62*%
X301917500Y-324326250D03*
D19*
X301917500Y-316706250D03*
%TD*%
D26*
%TO.C,LED66*%
X391062500Y-322570000D03*
X391062500Y-321070000D03*
X385612500Y-322570000D03*
D27*
X385612500Y-321070000D03*
%TD*%
D26*
%TO.C,LED44*%
X136268750Y-303520000D03*
X136268750Y-302020000D03*
X130818750Y-303520000D03*
D27*
X130818750Y-302020000D03*
%TD*%
D28*
%TO.C,C5*%
X189000000Y-297962500D03*
X189000000Y-300037500D03*
%TD*%
D22*
%TO.C,D36*%
X240005000Y-286950000D03*
D19*
X240005000Y-279330000D03*
%TD*%
D26*
%TO.C,LED1*%
X124362500Y-246370000D03*
X124362500Y-244870000D03*
X118912500Y-246370000D03*
D27*
X118912500Y-244870000D03*
%TD*%
D26*
%TO.C,LED17*%
X171987500Y-265420000D03*
X171987500Y-263920000D03*
X166537500Y-265420000D03*
D27*
X166537500Y-263920000D03*
%TD*%
D28*
%TO.C,C3*%
X373000000Y-240462500D03*
X373000000Y-242537500D03*
%TD*%
D26*
%TO.C,LED43*%
X410112500Y-284470000D03*
X410112500Y-282970000D03*
X404662500Y-284470000D03*
D27*
X404662500Y-282970000D03*
%TD*%
D26*
%TO.C,LED53*%
X319625000Y-303520000D03*
X319625000Y-302020000D03*
X314175000Y-303520000D03*
D27*
X314175000Y-302020000D03*
%TD*%
D23*
%TO.C,SW45*%
X163805000Y-297593750D03*
D24*
X168205000Y-292893750D03*
D25*
X171450000Y-292893750D03*
X157960000Y-291843750D03*
D24*
X161205000Y-291843750D03*
%TD*%
D23*
%TO.C,SW47*%
X201905000Y-297593750D03*
D24*
X206305000Y-292893750D03*
D25*
X209550000Y-292893750D03*
X196060000Y-291843750D03*
D24*
X199305000Y-291843750D03*
%TD*%
D23*
%TO.C,SW39*%
X306680000Y-278543750D03*
D24*
X311080000Y-273843750D03*
D25*
X314325000Y-273843750D03*
X300835000Y-272793750D03*
D24*
X304080000Y-272793750D03*
%TD*%
D22*
%TO.C,D25*%
X311442500Y-267900000D03*
D19*
X311442500Y-260280000D03*
%TD*%
D23*
%TO.C,SW63*%
X330492500Y-316643750D03*
D24*
X334892500Y-311943750D03*
D25*
X338137500Y-311943750D03*
X324647500Y-310893750D03*
D24*
X327892500Y-310893750D03*
%TD*%
D26*
%TO.C,LED41*%
X348200000Y-284470000D03*
X348200000Y-282970000D03*
X342750000Y-284470000D03*
D27*
X342750000Y-282970000D03*
%TD*%
D23*
%TO.C,SW24*%
X301917500Y-259493750D03*
D24*
X306317500Y-254793750D03*
D25*
X309562500Y-254793750D03*
X296072500Y-253743750D03*
D24*
X299317500Y-253743750D03*
%TD*%
D22*
%TO.C,D9*%
X263817500Y-248850000D03*
D19*
X263817500Y-241230000D03*
%TD*%
D23*
%TO.C,SW48*%
X220955000Y-297593750D03*
D24*
X225355000Y-292893750D03*
D25*
X228600000Y-292893750D03*
X215110000Y-291843750D03*
D24*
X218355000Y-291843750D03*
%TD*%
D26*
%TO.C,LED48*%
X224375000Y-303520000D03*
X224375000Y-302020000D03*
X218925000Y-303520000D03*
D27*
X218925000Y-302020000D03*
%TD*%
D26*
%TO.C,LED47*%
X205325000Y-303520000D03*
X205325000Y-302020000D03*
X199875000Y-303520000D03*
D27*
X199875000Y-302020000D03*
%TD*%
D22*
%TO.C,D28*%
X373355000Y-267900000D03*
D19*
X373355000Y-260280000D03*
%TD*%
D22*
%TO.C,D3*%
X149517500Y-248850000D03*
D19*
X149517500Y-241230000D03*
%TD*%
D22*
%TO.C,D18*%
X178092500Y-267900000D03*
D19*
X178092500Y-260280000D03*
%TD*%
D23*
%TO.C,SW31*%
X154280000Y-278543750D03*
D24*
X158680000Y-273843750D03*
D25*
X161925000Y-273843750D03*
X148435000Y-272793750D03*
D24*
X151680000Y-272793750D03*
%TD*%
D23*
%TO.C,SW28*%
X382880000Y-259493750D03*
D24*
X387280000Y-254793750D03*
D25*
X390525000Y-254793750D03*
X377035000Y-253743750D03*
D24*
X380280000Y-253743750D03*
%TD*%
D23*
%TO.C,SW43*%
X406692500Y-278543750D03*
D24*
X411092500Y-273843750D03*
D25*
X414337500Y-273843750D03*
X400847500Y-272793750D03*
D24*
X404092500Y-272793750D03*
%TD*%
D26*
%TO.C,LED58*%
X126743750Y-322570000D03*
X126743750Y-321070000D03*
X121293750Y-322570000D03*
D27*
X121293750Y-321070000D03*
%TD*%
D26*
%TO.C,LED26*%
X343437500Y-265420000D03*
X343437500Y-263920000D03*
X337987500Y-265420000D03*
D27*
X337987500Y-263920000D03*
%TD*%
D23*
%TO.C,SW54*%
X335255000Y-297593750D03*
D24*
X339655000Y-292893750D03*
D25*
X342900000Y-292893750D03*
X329410000Y-291843750D03*
D24*
X332655000Y-291843750D03*
%TD*%
D23*
%TO.C,SW50*%
X259055000Y-297593750D03*
D24*
X263455000Y-292893750D03*
D25*
X266700000Y-292893750D03*
X253210000Y-291843750D03*
D24*
X256455000Y-291843750D03*
%TD*%
D22*
%TO.C,D56*%
X378117500Y-306000000D03*
D19*
X378117500Y-298380000D03*
%TD*%
D23*
%TO.C,SW59*%
X147136250Y-316643750D03*
D24*
X151536250Y-311943750D03*
D25*
X154781250Y-311943750D03*
X141291250Y-310893750D03*
D24*
X144536250Y-310893750D03*
%TD*%
D23*
%TO.C,SW3*%
X159042500Y-240443750D03*
D24*
X163442500Y-235743750D03*
D25*
X166687500Y-235743750D03*
X153197500Y-234693750D03*
D24*
X156442500Y-234693750D03*
%TD*%
D22*
%TO.C,D51*%
X268580000Y-306000000D03*
D19*
X268580000Y-298380000D03*
%TD*%
D22*
%TO.C,D30*%
X118561250Y-286950000D03*
D19*
X118561250Y-279330000D03*
%TD*%
D22*
%TO.C,D17*%
X159042500Y-267900000D03*
D19*
X159042500Y-260280000D03*
%TD*%
D23*
%TO.C,SW55*%
X361448750Y-297593750D03*
D24*
X365848750Y-292893750D03*
D25*
X369093750Y-292893750D03*
X355603750Y-291843750D03*
D24*
X358848750Y-291843750D03*
%TD*%
D22*
%TO.C,D55*%
X351923750Y-306000000D03*
D19*
X351923750Y-298380000D03*
%TD*%
D23*
%TO.C,SW9*%
X273342500Y-240443750D03*
D24*
X277742500Y-235743750D03*
D25*
X280987500Y-235743750D03*
X267497500Y-234693750D03*
D24*
X270742500Y-234693750D03*
%TD*%
D23*
%TO.C,SW65*%
X368592500Y-316643750D03*
D24*
X372992500Y-311943750D03*
D25*
X376237500Y-311943750D03*
X362747500Y-310893750D03*
D24*
X365992500Y-310893750D03*
%TD*%
D26*
%TO.C,LED5*%
X200562500Y-246370000D03*
X200562500Y-244870000D03*
X195112500Y-246370000D03*
D27*
X195112500Y-244870000D03*
%TD*%
D26*
%TO.C,LED25*%
X324387500Y-265420000D03*
X324387500Y-263920000D03*
X318937500Y-265420000D03*
D27*
X318937500Y-263920000D03*
%TD*%
D26*
%TO.C,LED61*%
X245806250Y-322570000D03*
X245806250Y-321070000D03*
X240356250Y-322570000D03*
D27*
X240356250Y-321070000D03*
%TD*%
D22*
%TO.C,D34*%
X201905000Y-286950000D03*
D19*
X201905000Y-279330000D03*
%TD*%
D23*
%TO.C,SW64*%
X349542500Y-316643750D03*
D24*
X353942500Y-311943750D03*
D25*
X357187500Y-311943750D03*
X343697500Y-310893750D03*
D24*
X346942500Y-310893750D03*
%TD*%
D23*
%TO.C,SW7*%
X235242500Y-240443750D03*
D24*
X239642500Y-235743750D03*
D25*
X242887500Y-235743750D03*
X229397500Y-234693750D03*
D24*
X232642500Y-234693750D03*
%TD*%
D28*
%TO.C,C1*%
X145000000Y-259962500D03*
X145000000Y-262037500D03*
%TD*%
D26*
%TO.C,LED52*%
X300575000Y-303520000D03*
X300575000Y-302020000D03*
X295125000Y-303520000D03*
D27*
X295125000Y-302020000D03*
%TD*%
D23*
%TO.C,SW33*%
X192380000Y-278543750D03*
D24*
X196780000Y-273843750D03*
D25*
X200025000Y-273843750D03*
X186535000Y-272793750D03*
D24*
X189780000Y-272793750D03*
%TD*%
D22*
%TO.C,D33*%
X182855000Y-286950000D03*
D19*
X182855000Y-279330000D03*
%TD*%
D22*
%TO.C,D40*%
X316205000Y-286950000D03*
D19*
X316205000Y-279330000D03*
%TD*%
D28*
%TO.C,C8*%
X249250000Y-240712500D03*
X249250000Y-242787500D03*
%TD*%
D26*
%TO.C,LED12*%
X333912500Y-246370000D03*
X333912500Y-244870000D03*
X328462500Y-246370000D03*
D27*
X328462500Y-244870000D03*
%TD*%
D26*
%TO.C,LED27*%
X362487500Y-265420000D03*
X362487500Y-263920000D03*
X357037500Y-265420000D03*
D27*
X357037500Y-263920000D03*
%TD*%
D26*
%TO.C,LED30*%
X131506250Y-284470000D03*
X131506250Y-282970000D03*
X126056250Y-284470000D03*
D27*
X126056250Y-282970000D03*
%TD*%
D22*
%TO.C,D42*%
X359000000Y-286810000D03*
D19*
X359000000Y-279190000D03*
%TD*%
D22*
%TO.C,D4*%
X168567500Y-248850000D03*
D19*
X168567500Y-241230000D03*
%TD*%
D23*
%TO.C,SW30*%
X128086250Y-278543750D03*
D24*
X132486250Y-273843750D03*
D25*
X135731250Y-273843750D03*
X122241250Y-272793750D03*
D24*
X125486250Y-272793750D03*
%TD*%
D23*
%TO.C,SW18*%
X187617500Y-259493750D03*
D24*
X192017500Y-254793750D03*
D25*
X195262500Y-254793750D03*
X181772500Y-253743750D03*
D24*
X185017500Y-253743750D03*
%TD*%
D22*
%TO.C,D49*%
X230480000Y-306000000D03*
D19*
X230480000Y-298380000D03*
%TD*%
D26*
%TO.C,LED8*%
X257712500Y-246370000D03*
X257712500Y-244870000D03*
X252262500Y-246370000D03*
D27*
X252262500Y-244870000D03*
%TD*%
D22*
%TO.C,D67*%
X397167500Y-324326250D03*
D19*
X397167500Y-316706250D03*
%TD*%
D26*
%TO.C,LED9*%
X276762500Y-246370000D03*
X276762500Y-244870000D03*
X271312500Y-246370000D03*
D27*
X271312500Y-244870000D03*
%TD*%
D26*
%TO.C,LED65*%
X372012500Y-322570000D03*
X372012500Y-321070000D03*
X366562500Y-322570000D03*
D27*
X366562500Y-321070000D03*
%TD*%
D23*
%TO.C,SW29*%
X406692500Y-259493750D03*
D24*
X411092500Y-254793750D03*
D25*
X414337500Y-254793750D03*
X400847500Y-253743750D03*
D24*
X404092500Y-253743750D03*
%TD*%
D26*
%TO.C,LED55*%
X364868750Y-303520000D03*
X364868750Y-302020000D03*
X359418750Y-303520000D03*
D27*
X359418750Y-302020000D03*
%TD*%
D23*
%TO.C,SW12*%
X330492500Y-240443750D03*
D24*
X334892500Y-235743750D03*
D25*
X338137500Y-235743750D03*
X324647500Y-234693750D03*
D24*
X327892500Y-234693750D03*
%TD*%
D28*
%TO.C,C6*%
X375000000Y-294962500D03*
X375000000Y-297037500D03*
%TD*%
D22*
%TO.C,D43*%
X397167500Y-286950000D03*
D19*
X397167500Y-279330000D03*
%TD*%
D26*
%TO.C,LED34*%
X214850000Y-284470000D03*
X214850000Y-282970000D03*
X209400000Y-284470000D03*
D27*
X209400000Y-282970000D03*
%TD*%
D23*
%TO.C,SW41*%
X344780000Y-278543750D03*
D24*
X349180000Y-273843750D03*
D25*
X352425000Y-273843750D03*
X338935000Y-272793750D03*
D24*
X342180000Y-272793750D03*
%TD*%
D23*
%TO.C,SW19*%
X206667500Y-259493750D03*
D24*
X211067500Y-254793750D03*
D25*
X214312500Y-254793750D03*
X200822500Y-253743750D03*
D24*
X204067500Y-253743750D03*
%TD*%
D22*
%TO.C,D52*%
X287630000Y-306000000D03*
D19*
X287630000Y-298380000D03*
%TD*%
D23*
%TO.C,SW10*%
X292392500Y-240443750D03*
D24*
X296792500Y-235743750D03*
D25*
X300037500Y-235743750D03*
X286547500Y-234693750D03*
D24*
X289792500Y-234693750D03*
%TD*%
D23*
%TO.C,SW51*%
X278105000Y-297593750D03*
D24*
X282505000Y-292893750D03*
D25*
X285750000Y-292893750D03*
X272260000Y-291843750D03*
D24*
X275505000Y-291843750D03*
%TD*%
D26*
%TO.C,LED49*%
X243425000Y-303520000D03*
X243425000Y-302020000D03*
X237975000Y-303520000D03*
D27*
X237975000Y-302020000D03*
%TD*%
D26*
%TO.C,LED29*%
X410112500Y-265420000D03*
X410112500Y-263920000D03*
X404662500Y-265420000D03*
D27*
X404662500Y-263920000D03*
%TD*%
D22*
%TO.C,D8*%
X244767500Y-248850000D03*
D19*
X244767500Y-241230000D03*
%TD*%
D22*
%TO.C,D45*%
X154280000Y-306000000D03*
D19*
X154280000Y-298380000D03*
%TD*%
D26*
%TO.C,LED22*%
X267237500Y-265420000D03*
X267237500Y-263920000D03*
X261787500Y-265420000D03*
D27*
X261787500Y-263920000D03*
%TD*%
D22*
%TO.C,D65*%
X359067500Y-324326250D03*
D19*
X359067500Y-316706250D03*
%TD*%
D22*
%TO.C,D10*%
X282867500Y-248850000D03*
D19*
X282867500Y-241230000D03*
%TD*%
D26*
%TO.C,LED2*%
X143412500Y-246370000D03*
X143412500Y-244870000D03*
X137962500Y-246370000D03*
D27*
X137962500Y-244870000D03*
%TD*%
D22*
%TO.C,D41*%
X335255000Y-286950000D03*
D19*
X335255000Y-279330000D03*
%TD*%
D26*
%TO.C,LED59*%
X150556250Y-322570000D03*
X150556250Y-321070000D03*
X145106250Y-322570000D03*
D27*
X145106250Y-321070000D03*
%TD*%
D26*
%TO.C,LED19*%
X210087500Y-265420000D03*
X210087500Y-263920000D03*
X204637500Y-265420000D03*
D27*
X204637500Y-263920000D03*
%TD*%
D22*
%TO.C,D61*%
X232861250Y-324326250D03*
D19*
X232861250Y-316706250D03*
%TD*%
D22*
%TO.C,D31*%
X144755000Y-286950000D03*
D19*
X144755000Y-279330000D03*
%TD*%
D22*
%TO.C,D48*%
X211430000Y-306000000D03*
D19*
X211430000Y-298380000D03*
%TD*%
D26*
%TO.C,LED6*%
X219612500Y-246370000D03*
X219612500Y-244870000D03*
X214162500Y-246370000D03*
D27*
X214162500Y-244870000D03*
%TD*%
D23*
%TO.C,SW5*%
X197142500Y-240443750D03*
D24*
X201542500Y-235743750D03*
D25*
X204787500Y-235743750D03*
X191297500Y-234693750D03*
D24*
X194542500Y-234693750D03*
%TD*%
D22*
%TO.C,D20*%
X216192500Y-267900000D03*
D19*
X216192500Y-260280000D03*
%TD*%
D23*
%TO.C,SW67*%
X406692500Y-316643750D03*
D24*
X411092500Y-311943750D03*
D25*
X414337500Y-311943750D03*
X400847500Y-310893750D03*
D24*
X404092500Y-310893750D03*
%TD*%
D23*
%TO.C,SW53*%
X316205000Y-297593750D03*
D24*
X320605000Y-292893750D03*
D25*
X323850000Y-292893750D03*
X310360000Y-291843750D03*
D24*
X313605000Y-291843750D03*
%TD*%
D26*
%TO.C,LED42*%
X379156250Y-284470000D03*
X379156250Y-282970000D03*
X373706250Y-284470000D03*
D27*
X373706250Y-282970000D03*
%TD*%
D26*
%TO.C,LED63*%
X333912500Y-322570000D03*
X333912500Y-321070000D03*
X328462500Y-322570000D03*
D27*
X328462500Y-321070000D03*
%TD*%
D26*
%TO.C,LED28*%
X386300000Y-265420000D03*
X386300000Y-263920000D03*
X380850000Y-265420000D03*
D27*
X380850000Y-263920000D03*
%TD*%
D22*
%TO.C,D35*%
X220955000Y-286950000D03*
D19*
X220955000Y-279330000D03*
%TD*%
D23*
%TO.C,SW34*%
X211430000Y-278543750D03*
D24*
X215830000Y-273843750D03*
D25*
X219075000Y-273843750D03*
X205585000Y-272793750D03*
D24*
X208830000Y-272793750D03*
%TD*%
D23*
%TO.C,SW46*%
X182855000Y-297593750D03*
D24*
X187255000Y-292893750D03*
D25*
X190500000Y-292893750D03*
X177010000Y-291843750D03*
D24*
X180255000Y-291843750D03*
%TD*%
D26*
%TO.C,LED21*%
X248187500Y-265420000D03*
X248187500Y-263920000D03*
X242737500Y-265420000D03*
D27*
X242737500Y-263920000D03*
%TD*%
D22*
%TO.C,D53*%
X306680000Y-306000000D03*
D19*
X306680000Y-298380000D03*
%TD*%
D23*
%TO.C,SW57*%
X406692500Y-297593750D03*
D24*
X411092500Y-292893750D03*
D25*
X414337500Y-292893750D03*
X400847500Y-291843750D03*
D24*
X404092500Y-291843750D03*
%TD*%
D26*
%TO.C,LED33*%
X195800000Y-284470000D03*
X195800000Y-282970000D03*
X190350000Y-284470000D03*
D27*
X190350000Y-282970000D03*
%TD*%
D26*
%TO.C,LED16*%
X152937500Y-265420000D03*
X152937500Y-263920000D03*
X147487500Y-265420000D03*
D27*
X147487500Y-263920000D03*
%TD*%
D26*
%TO.C,LED57*%
X410112500Y-303520000D03*
X410112500Y-302020000D03*
X404662500Y-303520000D03*
D27*
X404662500Y-302020000D03*
%TD*%
D26*
%TO.C,LED50*%
X262475000Y-303520000D03*
X262475000Y-302020000D03*
X257025000Y-303520000D03*
D27*
X257025000Y-302020000D03*
%TD*%
D23*
%TO.C,SW66*%
X387642500Y-316643750D03*
D24*
X392042500Y-311943750D03*
D25*
X395287500Y-311943750D03*
X381797500Y-310893750D03*
D24*
X385042500Y-310893750D03*
%TD*%
D23*
%TO.C,SW32*%
X173330000Y-278543750D03*
D24*
X177730000Y-273843750D03*
D25*
X180975000Y-273843750D03*
X167485000Y-272793750D03*
D24*
X170730000Y-272793750D03*
%TD*%
D22*
%TO.C,D47*%
X192380000Y-306000000D03*
D19*
X192380000Y-298380000D03*
%TD*%
D26*
%TO.C,LED46*%
X186275000Y-303520000D03*
X186275000Y-302020000D03*
X180825000Y-303520000D03*
D27*
X180825000Y-302020000D03*
%TD*%
D22*
%TO.C,D50*%
X249530000Y-306000000D03*
D19*
X249530000Y-298380000D03*
%TD*%
D23*
%TO.C,SW8*%
X254292500Y-240443750D03*
D24*
X258692500Y-235743750D03*
D25*
X261937500Y-235743750D03*
X248447500Y-234693750D03*
D24*
X251692500Y-234693750D03*
%TD*%
D23*
%TO.C,SW38*%
X287630000Y-278543750D03*
D24*
X292030000Y-273843750D03*
D25*
X295275000Y-273843750D03*
X281785000Y-272793750D03*
D24*
X285030000Y-272793750D03*
%TD*%
D23*
%TO.C,SW26*%
X340017500Y-259493750D03*
D24*
X344417500Y-254793750D03*
D25*
X347662500Y-254793750D03*
X334172500Y-253743750D03*
D24*
X337417500Y-253743750D03*
%TD*%
D23*
%TO.C,SW62*%
X311442500Y-316643750D03*
D24*
X315842500Y-311943750D03*
D25*
X319087500Y-311943750D03*
X305597500Y-310893750D03*
D24*
X308842500Y-310893750D03*
%TD*%
D23*
%TO.C,SW52*%
X297155000Y-297593750D03*
D24*
X301555000Y-292893750D03*
D25*
X304800000Y-292893750D03*
X291310000Y-291843750D03*
D24*
X294555000Y-291843750D03*
%TD*%
D26*
%TO.C,LED7*%
X238662500Y-246370000D03*
X238662500Y-244870000D03*
X233212500Y-246370000D03*
D27*
X233212500Y-244870000D03*
%TD*%
D22*
%TO.C,D7*%
X225717500Y-248850000D03*
D19*
X225717500Y-241230000D03*
%TD*%
D22*
%TO.C,D14*%
X361500000Y-248810000D03*
D19*
X361500000Y-241190000D03*
%TD*%
D22*
%TO.C,D38*%
X278105000Y-286950000D03*
D19*
X278105000Y-279330000D03*
%TD*%
D22*
%TO.C,D59*%
X137611250Y-324326250D03*
D19*
X137611250Y-316706250D03*
%TD*%
D23*
%TO.C,SW44*%
X132848750Y-297593750D03*
D24*
X137248750Y-292893750D03*
D25*
X140493750Y-292893750D03*
X127003750Y-291843750D03*
D24*
X130248750Y-291843750D03*
%TD*%
D26*
%TO.C,LED38*%
X291050000Y-284470000D03*
X291050000Y-282970000D03*
X285600000Y-284470000D03*
D27*
X285600000Y-282970000D03*
%TD*%
D23*
%TO.C,SW25*%
X320967500Y-259493750D03*
D24*
X325367500Y-254793750D03*
D25*
X328612500Y-254793750D03*
X315122500Y-253743750D03*
D24*
X318367500Y-253743750D03*
%TD*%
D22*
%TO.C,D66*%
X378117500Y-324326250D03*
D19*
X378117500Y-316706250D03*
%TD*%
D22*
%TO.C,D23*%
X273342500Y-267900000D03*
D19*
X273342500Y-260280000D03*
%TD*%
D22*
%TO.C,D12*%
X320967500Y-248850000D03*
D19*
X320967500Y-241230000D03*
%TD*%
D23*
%TO.C,SW15*%
X125705000Y-259493750D03*
D24*
X130105000Y-254793750D03*
D25*
X133350000Y-254793750D03*
X119860000Y-253743750D03*
D24*
X123105000Y-253743750D03*
%TD*%
D26*
%TO.C,LED18*%
X191037500Y-265420000D03*
X191037500Y-263920000D03*
X185587500Y-265420000D03*
D27*
X185587500Y-263920000D03*
%TD*%
D26*
%TO.C,LED51*%
X281525000Y-303520000D03*
X281525000Y-302020000D03*
X276075000Y-303520000D03*
D27*
X276075000Y-302020000D03*
%TD*%
D26*
%TO.C,LED4*%
X181512500Y-246370000D03*
X181512500Y-244870000D03*
X176062500Y-246370000D03*
D27*
X176062500Y-244870000D03*
%TD*%
D26*
%TO.C,LED35*%
X233900000Y-284470000D03*
X233900000Y-282970000D03*
X228450000Y-284470000D03*
D27*
X228450000Y-282970000D03*
%TD*%
D23*
%TO.C,SW35*%
X230480000Y-278543750D03*
D24*
X234880000Y-273843750D03*
D25*
X238125000Y-273843750D03*
X224635000Y-272793750D03*
D24*
X227880000Y-272793750D03*
%TD*%
D26*
%TO.C,LED37*%
X272000000Y-284470000D03*
X272000000Y-282970000D03*
X266550000Y-284470000D03*
D27*
X266550000Y-282970000D03*
%TD*%
D23*
%TO.C,SW20*%
X225717500Y-259493750D03*
D24*
X230117500Y-254793750D03*
D25*
X233362500Y-254793750D03*
X219872500Y-253743750D03*
D24*
X223117500Y-253743750D03*
%TD*%
D22*
%TO.C,D60*%
X161423750Y-324326250D03*
D19*
X161423750Y-316706250D03*
%TD*%
D23*
%TO.C,SW61*%
X242386250Y-316643750D03*
D24*
X246786250Y-311943750D03*
D25*
X250031250Y-311943750D03*
X236541250Y-310893750D03*
D24*
X239786250Y-310893750D03*
%TD*%
D22*
%TO.C,D11*%
X301917500Y-248850000D03*
D19*
X301917500Y-241230000D03*
%TD*%
D23*
%TO.C,SW27*%
X359067500Y-259493750D03*
D24*
X363467500Y-254793750D03*
D25*
X366712500Y-254793750D03*
X353222500Y-253743750D03*
D24*
X356467500Y-253743750D03*
%TD*%
D26*
%TO.C,LED3*%
X162462500Y-246370000D03*
X162462500Y-244870000D03*
X157012500Y-246370000D03*
D27*
X157012500Y-244870000D03*
%TD*%
D26*
%TO.C,LED45*%
X167225000Y-303520000D03*
X167225000Y-302020000D03*
X161775000Y-303520000D03*
D27*
X161775000Y-302020000D03*
%TD*%
D23*
%TO.C,SW22*%
X263817500Y-259493750D03*
D24*
X268217500Y-254793750D03*
D25*
X271462500Y-254793750D03*
X257972500Y-253743750D03*
D24*
X261217500Y-253743750D03*
%TD*%
D26*
%TO.C,LED31*%
X157700000Y-284470000D03*
X157700000Y-282970000D03*
X152250000Y-284470000D03*
D27*
X152250000Y-282970000D03*
%TD*%
D26*
%TO.C,LED15*%
X129125000Y-265420000D03*
X129125000Y-263920000D03*
X123675000Y-265420000D03*
D27*
X123675000Y-263920000D03*
%TD*%
D22*
%TO.C,D57*%
X397167500Y-306000000D03*
D19*
X397167500Y-298380000D03*
%TD*%
D26*
%TO.C,LED60*%
X174368750Y-322570000D03*
X174368750Y-321070000D03*
X168918750Y-322570000D03*
D27*
X168918750Y-321070000D03*
%TD*%
D22*
%TO.C,D2*%
X130467500Y-248850000D03*
D19*
X130467500Y-241230000D03*
%TD*%
D23*
%TO.C,SW16*%
X149517500Y-259493750D03*
D24*
X153917500Y-254793750D03*
D25*
X157162500Y-254793750D03*
X143672500Y-253743750D03*
D24*
X146917500Y-253743750D03*
%TD*%
D26*
%TO.C,LED54*%
X338675000Y-303520000D03*
X338675000Y-302020000D03*
X333225000Y-303520000D03*
D27*
X333225000Y-302020000D03*
%TD*%
D26*
%TO.C,LED13*%
X352962500Y-246370000D03*
X352962500Y-244870000D03*
X347512500Y-246370000D03*
D27*
X347512500Y-244870000D03*
%TD*%
D23*
%TO.C,SW2*%
X139992500Y-240443750D03*
D24*
X144392500Y-235743750D03*
D25*
X147637500Y-235743750D03*
X134147500Y-234693750D03*
D24*
X137392500Y-234693750D03*
%TD*%
D23*
%TO.C,SW49*%
X240005000Y-297593750D03*
D24*
X244405000Y-292893750D03*
D25*
X247650000Y-292893750D03*
X234160000Y-291843750D03*
D24*
X237405000Y-291843750D03*
%TD*%
D23*
%TO.C,SW40*%
X325730000Y-278543750D03*
D24*
X330130000Y-273843750D03*
D25*
X333375000Y-273843750D03*
X319885000Y-272793750D03*
D24*
X323130000Y-272793750D03*
%TD*%
D22*
%TO.C,D39*%
X297155000Y-286950000D03*
D19*
X297155000Y-279330000D03*
%TD*%
D23*
%TO.C,SW4*%
X178092500Y-240443750D03*
D24*
X182492500Y-235743750D03*
D25*
X185737500Y-235743750D03*
X172247500Y-234693750D03*
D24*
X175492500Y-234693750D03*
%TD*%
D26*
%TO.C,LED67*%
X410112500Y-322570000D03*
X410112500Y-321070000D03*
X404662500Y-322570000D03*
D27*
X404662500Y-321070000D03*
%TD*%
D22*
%TO.C,D22*%
X254292500Y-267900000D03*
D19*
X254292500Y-260280000D03*
%TD*%
D26*
%TO.C,LED10*%
X295812500Y-246370000D03*
X295812500Y-244870000D03*
X290362500Y-246370000D03*
D27*
X290362500Y-244870000D03*
%TD*%
D22*
%TO.C,D6*%
X206667500Y-248850000D03*
D19*
X206667500Y-241230000D03*
%TD*%
D22*
%TO.C,D13*%
X340017500Y-248850000D03*
D19*
X340017500Y-241230000D03*
%TD*%
D22*
%TO.C,D63*%
X320967500Y-324326250D03*
D19*
X320967500Y-316706250D03*
%TD*%
D26*
%TO.C,LED62*%
X314862500Y-322570000D03*
X314862500Y-321070000D03*
X309412500Y-322570000D03*
D27*
X309412500Y-321070000D03*
%TD*%
D26*
%TO.C,LED36*%
X252950000Y-284470000D03*
X252950000Y-282970000D03*
X247500000Y-284470000D03*
D27*
X247500000Y-282970000D03*
%TD*%
D26*
%TO.C,LED23*%
X286287500Y-265420000D03*
X286287500Y-263920000D03*
X280837500Y-265420000D03*
D27*
X280837500Y-263920000D03*
%TD*%
D23*
%TO.C,SW14*%
X378117500Y-240443750D03*
D24*
X382517500Y-235743750D03*
D25*
X385762500Y-235743750D03*
X372272500Y-234693750D03*
D24*
X375517500Y-234693750D03*
%TD*%
D26*
%TO.C,LED40*%
X329150000Y-284470000D03*
X329150000Y-282970000D03*
X323700000Y-284470000D03*
D27*
X323700000Y-282970000D03*
%TD*%
D22*
%TO.C,D58*%
X113798750Y-324326250D03*
D19*
X113798750Y-316706250D03*
%TD*%
D23*
%TO.C,SW1*%
X120942500Y-240443750D03*
D24*
X125342500Y-235743750D03*
D25*
X128587500Y-235743750D03*
X115097500Y-234693750D03*
D24*
X118342500Y-234693750D03*
%TD*%
D23*
%TO.C,SW17*%
X168567500Y-259493750D03*
D24*
X172967500Y-254793750D03*
D25*
X176212500Y-254793750D03*
X162722500Y-253743750D03*
D24*
X165967500Y-253743750D03*
%TD*%
D22*
%TO.C,D1*%
X111417500Y-248850000D03*
D19*
X111417500Y-241230000D03*
%TD*%
D23*
%TO.C,SW13*%
X349542500Y-240443750D03*
D24*
X353942500Y-235743750D03*
D25*
X357187500Y-235743750D03*
X343697500Y-234693750D03*
D24*
X346942500Y-234693750D03*
%TD*%
D22*
%TO.C,D16*%
X139992500Y-267900000D03*
D19*
X139992500Y-260280000D03*
%TD*%
D23*
%TO.C,SW21*%
X244767500Y-259493750D03*
D24*
X249167500Y-254793750D03*
D25*
X252412500Y-254793750D03*
X238922500Y-253743750D03*
D24*
X242167500Y-253743750D03*
%TD*%
D22*
%TO.C,D37*%
X259055000Y-286950000D03*
D19*
X259055000Y-279330000D03*
%TD*%
D23*
%TO.C,SW56*%
X387642500Y-297593750D03*
D24*
X392042500Y-292893750D03*
D25*
X395287500Y-292893750D03*
X381797500Y-291843750D03*
D24*
X385042500Y-291843750D03*
%TD*%
D22*
%TO.C,D29*%
X397167500Y-267900000D03*
D19*
X397167500Y-260280000D03*
%TD*%
D22*
%TO.C,D21*%
X235242500Y-267900000D03*
D19*
X235242500Y-260280000D03*
%TD*%
D23*
%TO.C,SW60*%
X170948750Y-316643750D03*
D24*
X175348750Y-311943750D03*
D25*
X178593750Y-311943750D03*
X165103750Y-310893750D03*
D24*
X168348750Y-310893750D03*
%TD*%
D26*
%TO.C,LED11*%
X314862500Y-246370000D03*
X314862500Y-244870000D03*
X309412500Y-246370000D03*
D27*
X309412500Y-244870000D03*
%TD*%
D22*
%TO.C,D54*%
X325730000Y-306000000D03*
D19*
X325730000Y-298380000D03*
%TD*%
D23*
%TO.C,SW37*%
X268580000Y-278543750D03*
D24*
X272980000Y-273843750D03*
D25*
X276225000Y-273843750D03*
X262735000Y-272793750D03*
D24*
X265980000Y-272793750D03*
%TD*%
D26*
%TO.C,LED20*%
X229137500Y-265420000D03*
X229137500Y-263920000D03*
X223687500Y-265420000D03*
D27*
X223687500Y-263920000D03*
%TD*%
D28*
%TO.C,C2*%
X321000000Y-276962500D03*
X321000000Y-279037500D03*
%TD*%
D26*
%TO.C,LED56*%
X391062500Y-303520000D03*
X391062500Y-302020000D03*
X385612500Y-303520000D03*
D27*
X385612500Y-302020000D03*
%TD*%
D23*
%TO.C,SW11*%
X311442500Y-240443750D03*
D24*
X315842500Y-235743750D03*
D25*
X319087500Y-235743750D03*
X305597500Y-234693750D03*
D24*
X308842500Y-234693750D03*
%TD*%
D22*
%TO.C,D24*%
X292392500Y-267900000D03*
D19*
X292392500Y-260280000D03*
%TD*%
D22*
%TO.C,D32*%
X163805000Y-286950000D03*
D19*
X163805000Y-279330000D03*
%TD*%
D26*
%TO.C,LED32*%
X176750000Y-284470000D03*
X176750000Y-282970000D03*
X171300000Y-284470000D03*
D27*
X171300000Y-282970000D03*
%TD*%
D23*
%TO.C,SW23*%
X282867500Y-259493750D03*
D24*
X287267500Y-254793750D03*
D25*
X290512500Y-254793750D03*
X277022500Y-253743750D03*
D24*
X280267500Y-253743750D03*
%TD*%
D26*
%TO.C,LED14*%
X381537500Y-246370000D03*
X381537500Y-244870000D03*
X376087500Y-246370000D03*
D27*
X376087500Y-244870000D03*
%TD*%
D22*
%TO.C,D64*%
X340017500Y-324326250D03*
D19*
X340017500Y-316706250D03*
%TD*%
D22*
%TO.C,D46*%
X173330000Y-306000000D03*
D19*
X173330000Y-298380000D03*
%TD*%
D23*
%TO.C,SW58*%
X123323750Y-316643750D03*
D24*
X127723750Y-311943750D03*
D25*
X130968750Y-311943750D03*
X117478750Y-310893750D03*
D24*
X120723750Y-310893750D03*
%TD*%
D26*
%TO.C,LED24*%
X305337500Y-265420000D03*
X305337500Y-263920000D03*
X299887500Y-265420000D03*
D27*
X299887500Y-263920000D03*
%TD*%
D22*
%TO.C,D44*%
X115000000Y-302310000D03*
D19*
X115000000Y-294690000D03*
%TD*%
D22*
%TO.C,D26*%
X330492500Y-267900000D03*
D19*
X330492500Y-260280000D03*
%TD*%
D22*
%TO.C,D19*%
X197142500Y-267900000D03*
D19*
X197142500Y-260280000D03*
%TD*%
D26*
%TO.C,LED64*%
X352962500Y-322570000D03*
X352962500Y-321070000D03*
X347512500Y-322570000D03*
D27*
X347512500Y-321070000D03*
%TD*%
D28*
%TO.C,C7*%
X299000000Y-310962500D03*
X299000000Y-313037500D03*
%TD*%
D26*
%TO.C,LED39*%
X310100000Y-284470000D03*
X310100000Y-282970000D03*
X304650000Y-284470000D03*
D27*
X304650000Y-282970000D03*
%TD*%
D28*
%TO.C,C4*%
X244250000Y-278462500D03*
X244250000Y-280537500D03*
%TD*%
D22*
%TO.C,D15*%
X116180000Y-267900000D03*
D19*
X116180000Y-260280000D03*
%TD*%
M02*
